<?xml version="1.0" encoding="UTF-8"?> <svg xmlns="http://www.w3.org/2000/svg" id="Layer_1" data-name="Layer 1" viewBox="0 0 120 135"><defs><style>.cls-1{fill:#60d0e4;}.cls-2{fill:#fff;}</style></defs><title>01_INSTANA_IconSet</title><path class="cls-1" d="M52,4.64,9.56,29.15A16,16,0,0,0,1.57,43V92a16,16,0,0,0,8,13.84L52,130.36a16,16,0,0,0,16,0l42.45-24.51a16,16,0,0,0,8-13.84V43a16,16,0,0,0-8-13.84L68,4.64A16,16,0,0,0,52,4.64Z"></path><path class="cls-2" d="M45,50.42a47.53,47.53,0,0,0,7.61-.59c5.41-.94,12.93-5.1,13-5.14a2.19,2.19,0,0,0,1.11-1c-3.09-1.93-13.23-5-17.1-4.81-4.17.26-10.16,7.33-10.42,8.39a16,16,0,0,0,0,2.68A28.61,28.61,0,0,0,45,50.42ZM40.75,90.26A63.73,63.73,0,0,1,37.13,82c-1.42,1.92-3.09,7.13-.72,9C38,92.27,39.58,91.33,40.75,90.26ZM40.6,55.91c-1-2.51-3.82-8-6.47-6.09s-.54,5.71,1.35,8.83A9.28,9.28,0,0,1,40.6,55.91Zm-5.32-4.15c1.6-1,2.71,1,3.2,3.52-.69-1.14-2.06-2.94-2.72-2.59s0,2.83,0,2.83S33.67,52.73,35.28,51.76ZM34.5,59a28.71,28.71,0,0,1-1.62-2.57c-1.92,1-2.21,1.64-2.07,2.13.08.29,1.77,1,4.61,1.47C35.42,60.06,34.71,59.29,34.5,59Zm20.86.39a63,63,0,0,0,16.44-6.3s-2.08-.74-7.59-.84A41.89,41.89,0,0,1,51.1,56.13a67.35,67.35,0,0,1-7.41.48c-3.94,0-5.73,1.14-6.95,2.21l-1.31,1.24A51.48,51.48,0,0,0,55.36,59.41Zm18-7.26c4.7-2.67,7.22-4.79,7.09-5.29s-2.18-.39-5.69-.25A40.87,40.87,0,0,1,73.38,52.15ZM45.17,70.24a1.92,1.92,0,1,0,1.92,1.92A1.91,1.91,0,0,0,45.17,70.24Zm18.49-4.43a1.93,1.93,0,1,0,1.92,1.92A1.92,1.92,0,0,0,63.66,65.81ZM82.29,84.37c0-.5-.07-1-.13-1.38s-.5-.72-.87-1.07c-.68-.64-2-1.83-1-3.34a3.41,3.41,0,0,1,2.06-1.41A92.13,92.13,0,0,0,78.45,57.9a12.2,12.2,0,0,0-2.91-5.11L73.28,54,70.49,55.5a65.76,65.76,0,0,1-14.8,5.39,55.51,55.51,0,0,1-12.2,1.36h0a47.1,47.1,0,0,1-8.21-.68,16.52,16.52,0,0,0,0,7.67A80.57,80.57,0,0,0,42.2,89.61s16.19,2.37,41.09,0c0-.42-.05-.83-.07-1.25A8.88,8.88,0,0,1,82.29,84.37ZM55.33,72c1.86-.39,3.54.15,3.75,1.19s-1.12,2.18-3,2.57-3.54-.15-3.75-1.19S53.47,72.37,55.33,72ZM39.4,69.87a6.23,6.23,0,1,1,6.23,6.23A6.22,6.22,0,0,1,39.4,69.87ZM55.8,83.46c-1.52.46-2.32-1.88-2.32-1.88a7.28,7.28,0,0,1,2.89-1.49C56.66,81.16,57.31,83,55.8,83.46Zm3.08-.65c-1.75,0-1.66-2.93-1.66-2.93a10.15,10.15,0,0,1,2.8,0C60.16,81.15,60.41,82.81,58.88,82.81Zm6.25-6.38c-.35,2.76-3.35,2.59-5.75,2.46a14.49,14.49,0,0,0-2.73,0,8.16,8.16,0,0,0-2.77,1.33,6.57,6.57,0,0,1-3.13,1.31,2.21,2.21,0,0,1-1.84-1,2.44,2.44,0,0,1-.34-2.46,6.26,6.26,0,0,1,2.84-2.78A3.66,3.66,0,0,0,54.91,77a6.85,6.85,0,0,0,1.42-.15,6.2,6.2,0,0,0,2.77-1.29,2.84,2.84,0,0,0,1.12-2.26c1.71.06,3.36.37,4.24,1.22A2.08,2.08,0,0,1,65.13,76.43Zm-.89-4.68a6.24,6.24,0,1,1,6.23-6.23A6.22,6.22,0,0,1,64.24,71.75ZM88.66,82c-1.85-4.07-5.87-4.36-7-2.6-.83,1.29,1.8,2.07,2,3.63.3,2.07,0,5.22,1.86,5.6S90.5,86.07,88.66,82ZM35.42,60.06ZM45,51.93a38.33,38.33,0,0,1-5.18-.3A14.08,14.08,0,0,1,41.44,55c.5,0,1.24.08,2.25.08a69.28,69.28,0,0,0,7.25-.46,41,41,0,0,0,13.37-4.1,23.39,23.39,0,0,1,.94-3.93c-2.36,1.22-8,3.95-12.37,4.71A47.33,47.33,0,0,1,45,51.93Zm27.27.22c1.19-4,2.76-8.61-.76-9.95s-6,6-6.41,9.07A18.81,18.81,0,0,1,72.28,52.15Zm-1.17-7.6c2.09.62.29,4.2.29,4.2s.4-2.69-.62-2.93C69.46,45.5,69,48,68.51,49.51,68.28,46.74,69,43.93,71.11,44.55Zm-3.79-1.81a4.45,4.45,0,0,1,3.35-1.85,3.78,3.78,0,0,1,1.26.23,4.81,4.81,0,0,1,1.31.73l.18-.06c1.32-.43,3.08-1.66,2.7-1.94s-1,0-2.7.52c2.84-1.75,5.12-6.15,4-5.92s-3.32,3.36-3.55,3.36,1.37-2.61.52-2.18-4,3.74-4,2.8,2.75-6.68,1.32-6.92S69.06,35.34,69,35s-.57-3.08-.8-2.41-1.33,6.86-1.61,6.91-1.32-1.8-1.47-1.13a26.85,26.85,0,0,0,.33,3.39A18.88,18.88,0,0,1,67.32,42.74ZM51.05,96.1a10.9,10.9,0,0,0-5.8,1.11,37.42,37.42,0,0,1-8.63,2.18c-2.91.47-2.16,1.51-1.37,1.77a24.44,24.44,0,0,0,6.56.43c3-.14,3.26-.19,3.26-.71s-4.26-1-2.84-1.68,6.63-.62,8.22-.93,3.15-1,2.94-1.42S51.65,96.18,51.05,96.1ZM66,99c-.65,0-1.18.17-1.18.38s.53.39,1.18.39,1.18-.17,1.18-.39S66.64,99,66,99ZM33.87,100.4c0-.19-.38-.3-.77-.22s-.68.28-.65.47.39.3.77.23S33.9,100.59,33.87,100.4Zm24.68-1c-.82,0-1.49.23-1.49.49s.67.49,1.49.49,1.5-.22,1.5-.49S59.38,99.39,58.55,99.39Zm9.79-.82c-.48,0-.87.12-.87.28s.39.29.87.29.86-.12.86-.29S68.82,98.57,68.34,98.57ZM70.41,98c-.48,0-.86.12-.86.28s.38.29.86.29.87-.12.87-.29S70.89,98,70.41,98Zm-8,1.22c-.72,0-1.31.19-1.31.43s.59.42,1.31.42,1.31-.19,1.31-.42S63.15,99.23,62.43,99.23Zm-26.78,2.42c-.54.1-.94.4-.89.66s.53.41,1.07.31.94-.4.89-.66S36.19,101.55,35.65,101.65Zm-1.85-.5c-.44.08-.76.32-.72.54s.43.33.86.24.77-.31.73-.53S34.24,101.07,33.8,101.15Zm36.47-3.84c1-.8-.44-1.07-.63-1.86s1.35-.89,1.61-1.86-2-1-4-1c0,0-5.09.06-5,1.54s3.63,1.43,3.6,1.9.34,1.29-3.19.91-5.64.48-5.8.86,3.06.85,6.18.94S69.29,98.1,70.27,97.31ZM42,102.12c-.66.28-1.1.77-1,1.11s.8.36,1.46.09,1.1-.77,1-1.11S42.67,101.84,42,102.12ZM38.63,102c-.65.12-1.13.47-1.08.79s.63.49,1.29.36,1.12-.47,1.07-.79S39.28,101.83,38.63,102Z"></path></svg> 