<svg width="20" height="20" fill="none" xmlns="http://www.w3.org/2000/svg"><rect width="20" height="20" rx="3" fill="#EDF0F2"/><path d="M8.804 10.459v2.085h1.025c.725 0 1.235-.08 1.531-.24.297-.159.445-.425.445-.8 0-.377-.142-.646-.424-.806-.283-.16-.777-.239-1.484-.239H8.804zM12.29 9.7c.497.182.861.433 1.094.752.232.315.348.718.348 1.21 0 .415-.1.793-.3 1.135-.2.342-.488.622-.862.84a2.51 2.51 0 01-.738.281c-.269.055-.652.082-1.148.082H7.115c-.3 0-.517-.06-.65-.178-.127-.118-.19-.312-.19-.58 0-.242.06-.425.184-.548.123-.127.303-.191.54-.191h.116v-5.1H7c-.237 0-.417-.063-.54-.191-.123-.128-.185-.315-.185-.56 0-.265.066-.456.199-.575.132-.123.346-.184.642-.184h3.145c.961 0 1.69.186 2.187.56.502.374.752.92.752 1.64 0 .356-.077.67-.232.944-.15.269-.376.49-.677.663zM8.804 7.362v1.723h.923c.56 0 .954-.066 1.182-.198.233-.132.349-.356.349-.67 0-.296-.105-.513-.315-.65-.205-.136-.54-.205-1.005-.205H8.804z" fill="#3F566C"/></svg>