<svg width="20" height="20" viewBox="0 0 20 20" fill="none" xmlns="http://www.w3.org/2000/svg"><rect width="20" height="20" rx="3" fill="#EDF0F2"/><path d="M10 5.15625C7.32422 5.15625 5.15625 7.32422 5.15625 10C5.15625 12.6758 7.32422 14.8438 10 14.8438C12.6758 14.8438 14.8438 12.6758 14.8438 10C14.8438 7.32422 12.6758 5.15625 10 5.15625ZM10 13.9062C7.8418 13.9062 6.09375 12.1582 6.09375 10C6.09375 7.8418 7.8418 6.09375 10 6.09375C12.1582 6.09375 13.9062 7.8418 13.9062 10C13.9062 12.1582 12.1582 13.9062 10 13.9062ZM11.207 11.8672L9.54883 10.6621C9.48828 10.6172 9.45312 10.5469 9.45312 10.4727V7.26562C9.45312 7.13672 9.55859 7.03125 9.6875 7.03125H10.3125C10.4414 7.03125 10.5469 7.13672 10.5469 7.26562V10.0332L11.8516 10.9824C11.957 11.0586 11.9785 11.2051 11.9023 11.3105L11.5352 11.8164C11.459 11.9199 11.3125 11.9434 11.207 11.8672Z" fill="#3F566C"/></svg>
