<svg width="20" height="20" viewBox="0 0 20 20" fill="none" xmlns="http://www.w3.org/2000/svg">
<path d="M17 0H3C1.34315 0 0 1.34315 0 3V17C0 18.6569 1.34315 20 3 20H17C18.6569 20 20 18.6569 20 17V3C20 1.34315 18.6569 0 17 0Z" fill="#EDF0F2"/>
<path d="M9.4668 11.9287C9.86784 11.9287 10.1914 12.029 10.4375 12.2295C10.6836 12.4255 10.8066 12.6852 10.8066 13.0088C10.8066 13.3278 10.6813 13.5898 10.4307 13.7949C10.1846 13.9954 9.86328 14.0957 9.4668 14.0957C9.07031 14.0957 8.74902 13.9954 8.50293 13.7949C8.25684 13.5898 8.13379 13.3278 8.13379 13.0088C8.13379 12.6852 8.25456 12.4255 8.49609 12.2295C8.74219 12.029 9.06576 11.9287 9.4668 11.9287ZM10.1914 10.3291V10.8623C10.1914 11.0492 10.123 11.1973 9.98633 11.3066C9.85417 11.4115 9.6696 11.4639 9.43262 11.4639C9.2002 11.4639 9.01562 11.4115 8.87891 11.3066C8.74674 11.2018 8.68066 11.0583 8.68066 10.876V10.4727C8.68066 10.1354 8.73535 9.88249 8.84473 9.71387C8.95866 9.54525 9.17057 9.37891 9.48047 9.21484C9.58073 9.16016 9.72884 9.08496 9.9248 8.98926C10.6175 8.65658 10.9639 8.25553 10.9639 7.78613C10.9639 7.45345 10.8522 7.19141 10.6289 7C10.4056 6.80404 10.1003 6.70605 9.71289 6.70605C9.35742 6.70605 9.10677 6.74023 8.96094 6.80859C8.81966 6.8724 8.72624 7.01139 8.68066 7.22559C8.62142 7.48991 8.53939 7.66309 8.43457 7.74512C8.32975 7.82715 8.17253 7.86816 7.96289 7.86816C7.76693 7.86816 7.62109 7.81576 7.52539 7.71094C7.43424 7.60156 7.38867 7.43066 7.38867 7.19824V6.33008C7.38867 6.07943 7.64388 5.86751 8.1543 5.69434C8.66471 5.52116 9.28678 5.43457 10.0205 5.43457C10.8545 5.43457 11.5107 5.65104 11.9893 6.08398C12.4723 6.51693 12.7139 7.1071 12.7139 7.85449C12.7139 8.44694 12.4951 8.95736 12.0576 9.38574C11.6247 9.80957 11.0026 10.124 10.1914 10.3291Z" fill="#3F566C"/>
</svg>
