<svg width="20" height="20" fill="none" xmlns="http://www.w3.org/2000/svg"><rect width="20" height="20" rx="3" fill="#EDF0F2"/><g clip-path="url(#clip0)"><path d="M8.571 5.625h-2c-.315 0-.571.28-.571.625v7.5c0 .345.256.625.571.625h2c.158 0 .286-.14.286-.313v-.624c0-.173-.128-.313-.286-.313H7.143v-6.25H8.57c.158 0 .286-.14.286-.313v-.625c0-.172-.128-.312-.286-.312zm4.858 0h-2c-.158 0-.286.14-.286.313v.625c0 .172.128.312.286.312h1.428v6.25H11.43c-.158 0-.286.14-.286.313v.624c0 .173.128.313.286.313h2c.315 0 .571-.28.571-.625v-7.5c0-.345-.256-.625-.571-.625z" fill="#3F566C"/></g><defs><clipPath id="clip0"><path fill="#fff" transform="translate(6 5)" d="M0 0h8v10H0z"/></clipPath></defs></svg>