<svg width="20" height="20" viewBox="0 0 20 20" fill="none" xmlns="http://www.w3.org/2000/svg">
<path d="M17 0H3C1.34315 0 0 1.34315 0 3V17C0 18.6569 1.34315 20 3 20H17C18.6569 20 20 18.6569 20 17V3C20 1.34315 18.6569 0 17 0Z" fill="#EDF0F2"/>
<path d="M11.3931 5H12.3574C12.8689 5 13.3594 5.20319 13.7211 5.56487C14.0828 5.92654 14.286 6.41708 14.286 6.92857V7.68152C14.286 7.85217 14.3538 8.01582 14.4744 8.13654L15.3834 9.04538C15.4431 9.10508 15.4905 9.17595 15.5228 9.25396C15.5551 9.33196 15.5718 9.41557 15.5718 9.5C15.5718 9.58443 15.5551 9.66804 15.5228 9.74604C15.4905 9.82405 15.4431 9.89492 15.3834 9.95462L14.4744 10.8637C14.4147 10.9233 14.3673 10.9942 14.335 11.0722C14.3026 11.1502 14.286 11.2338 14.286 11.3183V12.0714C14.286 12.5829 14.0828 13.0735 13.7211 13.4351C13.3594 13.7968 12.8689 14 12.3574 14H11.3931C11.3079 14 11.2261 13.9661 11.1658 13.9059C11.1055 13.8456 11.0717 13.7638 11.0717 13.6786V13.0357C11.0717 12.9505 11.1055 12.8687 11.1658 12.8084C11.2261 12.7482 11.3079 12.7143 11.3931 12.7143H12.3574C12.5279 12.7143 12.6914 12.6466 12.812 12.526C12.9325 12.4054 13.0002 12.2419 13.0002 12.0714V11.3185C13.0003 11.0652 13.0502 10.8144 13.1471 10.5803C13.2441 10.3463 13.3862 10.1337 13.5654 9.95462L14.0198 9.5L13.5652 9.04538C13.386 8.86628 13.244 8.65365 13.147 8.41964C13.0501 8.18563 13.0002 7.93481 13.0002 7.68152V6.92857C13.0002 6.75808 12.9325 6.59456 12.812 6.474C12.6914 6.35344 12.5279 6.28571 12.3574 6.28571H11.3931C11.3079 6.28571 11.2261 6.25185 11.1658 6.19157C11.1055 6.13129 11.0717 6.04953 11.0717 5.96429V5.32143C11.0717 5.23618 11.1055 5.15442 11.1658 5.09414C11.2261 5.03386 11.3079 5 11.3931 5ZM4.18848 9.04538L5.09752 8.13654C5.21813 8.01582 5.28591 7.85217 5.28596 7.68152V6.92857C5.28596 6.41708 5.48915 5.92654 5.85082 5.56487C6.2125 5.20319 6.70304 5 7.21453 5H8.17882C8.26406 5 8.34582 5.03386 8.4061 5.09414C8.46638 5.15442 8.50024 5.23618 8.50024 5.32143V5.96429C8.50024 6.04953 8.46638 6.13129 8.4061 6.19157C8.34582 6.25185 8.26406 6.28571 8.17882 6.28571H7.21453C7.04403 6.28571 6.88052 6.35344 6.75996 6.474C6.6394 6.59456 6.57167 6.75808 6.57167 6.92857V7.68132C6.57171 7.93469 6.52183 8.18559 6.42486 8.41968C6.3279 8.65376 6.18576 8.86645 6.00656 9.04558L5.55214 9.5L6.00656 9.95462C6.18571 10.1337 6.32782 10.3463 6.42479 10.5803C6.52175 10.8144 6.57166 11.0652 6.57167 11.3185V12.0714C6.57167 12.2419 6.6394 12.4054 6.75996 12.526C6.88052 12.6466 7.04403 12.7143 7.21453 12.7143H8.17882C8.26406 12.7143 8.34582 12.7482 8.4061 12.8084C8.46638 12.8687 8.50024 12.9505 8.50024 13.0357V13.6786C8.50024 13.7638 8.46638 13.8456 8.4061 13.9059C8.34582 13.9661 8.26406 14 8.17882 14H7.21453C6.70304 14 6.2125 13.7968 5.85082 13.4351C5.48915 13.0735 5.28596 12.5829 5.28596 12.0714V11.3183C5.28595 11.2338 5.2693 11.1502 5.23696 11.0722C5.20463 10.9942 5.15725 10.9233 5.09752 10.8637L4.18848 9.95462C4.12877 9.89492 4.0814 9.82405 4.04909 9.74604C4.01677 9.66804 4.00014 9.58443 4.00014 9.5C4.00014 9.41557 4.01677 9.33196 4.04909 9.25396C4.0814 9.17595 4.12877 9.10508 4.18848 9.04538Z" fill="#3F566C"/>
</svg>
