<svg width="20" height="20" fill="none" xmlns="http://www.w3.org/2000/svg"><rect width="20" height="20" rx="3" fill="#EDF0F2"/><path d="M11.58 11.17V7.403h-.377c-.3 0-.517-.059-.65-.177-.127-.119-.19-.31-.19-.575 0-.264.063-.455.19-.574.133-.123.35-.184.65-.184h1.942c.296 0 .51.061.642.184.132.119.198.31.198.574 0 .242-.063.429-.191.56-.123.129-.3.192-.533.192h-.116v6.207c0 .215-.023.349-.069.404-.045.054-.148.082-.307.082h-.684c-.219 0-.374-.023-.465-.069a.576.576 0 01-.225-.239L8.55 8.791v3.712h.396c.296 0 .508.057.636.17.128.115.191.304.191.568 0 .27-.066.463-.198.581-.127.119-.337.178-.629.178H6.985c-.296 0-.51-.06-.642-.178s-.198-.312-.198-.58c0-.242.061-.425.184-.548.123-.127.305-.191.547-.191h.11v-5.1h-.11c-.232 0-.412-.063-.54-.191-.128-.132-.191-.32-.191-.56 0-.265.066-.456.198-.575.136-.123.35-.184.642-.184h1.121c.27 0 .452.036.547.109.096.068.203.21.322.424l2.604 4.744z" fill="#3F566C"/></svg>