<svg width="20" height="20" fill="none" xmlns="http://www.w3.org/2000/svg"><rect width="20" height="20" rx="3" fill="#EDF0F2"/><path d="M11.702 6.05c.069-.146.146-.246.233-.301.086-.055.218-.082.396-.082.264 0 .433.05.506.15.077.096.12.29.13.581l.027 1.313v.075c0 .269-.054.458-.164.568-.105.104-.285.157-.54.157-.323 0-.565-.173-.725-.52a6.526 6.526 0 01-.054-.123 1.476 1.476 0 00-.574-.636 1.621 1.621 0 00-.855-.218c-.41 0-.743.095-.998.287a.865.865 0 00-.376.724c0 .42.579.75 1.736.992.196.04.351.073.465.095.875.192 1.509.483 1.9.875.393.392.589.928.589 1.607 0 .838-.285 1.485-.855 1.941-.57.451-1.385.677-2.447.677-.415 0-.786-.027-1.115-.082a5.148 5.148 0 01-.943-.253.671.671 0 01-.253.253.803.803 0 01-.396.082c-.287 0-.488-.055-.602-.164-.114-.11-.173-.303-.178-.581l-.027-1.607v-.075c0-.3.055-.51.164-.629.114-.118.31-.178.588-.178.296 0 .545.215.745.643.046.105.082.185.11.24.177.35.423.612.738.785.319.174.708.26 1.169.26.419 0 .745-.086.977-.26.233-.173.349-.417.349-.731 0-.488-.527-.857-1.58-1.107a19.808 19.808 0 01-.744-.185c-.884-.232-1.497-.522-1.84-.868-.341-.351-.512-.83-.512-1.436 0-.779.292-1.415.875-1.907.588-.497 1.347-.745 2.276-.745.31 0 .613.032.91.096.3.064.599.16.895.287z" fill="#3F566C"/></svg>