<svg width="729" height="780" fill="none" xmlns="http://www.w3.org/2000/svg"><path opacity=".5" d="M489.59 131.21H41.15v602.6h448.44v-602.6z" fill="url(#paint0_linear)"/><path d="M481.42 139.39H46.99v581.58h434.43V139.39z" fill="#F2F2F2"/><path d="M230.34 163.91H80.86v4.67h149.48v-4.67zm171.67 0H252.53v4.67h149.48v-4.67zm23.35 133.14H275.88v4.67h149.48v-4.67zm3.51 12.84H279.39v4.67h149.48v-4.67zm7.01 12.85H286.4v4.67h149.48v-4.67zm-10.52 181.01H275.88v4.67h149.48v-4.67zm3.51 12.85H279.39v4.67h149.48v-4.67zm7.01 12.84H286.4v4.67h149.48v-4.67z" fill="#E0E0E0"/><path opacity=".5" d="M240.85 249.16H82.03v161.16h158.82V249.16z" fill="url(#paint1_linear)"/><path d="M239.35 252.67H83.03v154.15h156.32V252.67z" fill="#F5F5F5"/><path opacity=".5" d="M234.34 262.01H88.54v100.43h145.8V262.01z" fill="url(#paint2_linear)"/><path d="M233.33 263.18H89.54v96.93h143.79v-96.93z" fill="#fff"/><path opacity=".5" d="M240.85 455.87H82.03v161.16h158.82V455.87z" fill="url(#paint3_linear)"/><path d="M239.35 459.37H83.03v154.15h156.32V459.37z" fill="#F5F5F5"/><path opacity=".5" d="M234.34 468.72H88.54v100.43h145.8V468.72z" fill="url(#paint4_linear)"/><path d="M233.33 469.88H89.54v96.93h143.79v-96.93z" fill="#fff"/><path opacity=".4" d="M77.35 563.31l36.21-56.06 15.18 24.53 32.7-33.87 28.03 33.87 24.52-50.22 63.06 100.43-204.37-7 4.67-11.68zm28.03-68.9c5.804 0 10.51-4.705 10.51-10.51 0-5.804-4.706-10.51-10.51-10.51-5.805 0-10.51 4.706-10.51 10.51 0 5.805 4.705 10.51 10.51 10.51z" fill="#BDBDBD"/><path opacity=".5" d="M224.444 101.437L106.985 692.479l439.839 87.409 117.458-591.042-439.838-87.409z" fill="url(#paint5_linear)"/><path opacity=".4" d="M77.35 356.61l36.21-56.06 15.18 24.52 32.7-33.86 28.03 33.86 24.52-50.21 63.06 100.43-204.37-7.01 4.67-11.67z" fill="url(#paint6_linear)"/><path d="M228.575 110.595L115.214 681.02l426.097 84.679 113.361-570.425-426.097-84.679z" fill="#fff"/><path d="M556.715 203.173l-302.396-60.096-.91 4.581 302.396 60.095.91-4.58zm-86.043 432.981l-302.397-60.096-.91 4.581 302.397 60.095.91-4.58zm-73.971 12.677L163.03 602.393l-.91 4.58 233.67 46.438.911-4.58zM516.46 249.945l-272.609-54.176-.91 4.581 272.608 54.176.911-4.581z" fill="#E0E0E0"/><path opacity=".7" d="M305.041 235.321l-66.431-13.202-.91 4.581 66.431 13.201.91-4.58z" fill="#3AD29F"/><path d="M535.776 308.56L233.38 248.465l-.91 4.58 302.396 60.096.91-4.581z" fill="#E0E0E0"/><path opacity=".5" d="M260.023 359.744l-30.957 155.774 271.461 53.948 30.957-155.774-271.461-53.948z" fill="url(#paint7_linear)"/><path d="M529.589 414.496L261.561 361.23l-30.275 152.341 268.029 53.266 30.274-152.341z" fill="#fff"/><path d="M530.541 334.913l-302.397-60.095-.91 4.58 302.396 60.096.911-4.581z" fill="#E0E0E0"/><path d="M371.029 442.52l-33.22-6.602-14.796 74.454 33.22 6.602 14.796-74.454z" fill="#3AD29F"/><path d="M423.771 488.723l-33.221-6.602-7.966 40.086 33.22 6.602 7.967-40.086z" fill="#F55F44"/><path d="M491.528 459.323l-33.22-6.602-16.163 81.329 33.22 6.602 16.163-81.329z" fill="#FDD835"/><path d="M588.45 351.01a155.897 155.897 0 00-111.201-47.841A155.893 155.893 0 00365.34 349.33c-59 59.48-60 156.33-2.29 217.07a155.888 155.888 0 00199.9 22.06l112.69 117.21a7.593 7.593 0 0010.73.21l28.08-27a7.593 7.593 0 00.21-10.73L602 550.95a155.904 155.904 0 00-13.55-199.94zm-35.1 188.45a111.505 111.505 0 01-171.184-20.269 111.502 111.502 0 01117.805-169.02A111.5 111.5 0 01553.35 539.46z" fill="url(#paint8_linear)"/><path d="M393.49 428.06c-12.54 0-12.56 19.49 0 19.49s12.56-19.49 0-19.49z" fill="url(#paint9_linear)"/><path d="M480.9 365.63c-33.75-.76-64.46 16.17-80.79 41.73-5.33 8.34 9.8 15.71 15.1 7.41 13.52-21.16 39.21-34.6 67-33.9 29.12.73 55.62 17.39 69.65 40.51 5.32 8.77 19.27.8 14-7.92-17.06-28-50.1-47-84.96-47.83z" fill="url(#paint10_linear)"/><path opacity=".7" d="M230.34 184.93H80.86v4.67h149.48v-4.67z" fill="url(#paint11_linear)"/><path opacity=".4" d="M105.38 287.7c5.804 0 10.51-4.705 10.51-10.51 0-5.804-4.706-10.51-10.51-10.51-5.805 0-10.51 4.706-10.51 10.51 0 5.805 4.705 10.51 10.51 10.51z" fill="url(#paint12_linear)"/><path opacity=".7" d="M244.845 646.045l-87.048-17.299-.91 4.581 87.047 17.299.911-4.581z" fill="url(#paint13_linear)"/><path opacity=".7" d="M400.268 199.474l-151.194-30.047-.91 4.581 151.194 30.046.91-4.58z" fill="url(#paint14_linear)"/><path d="M318.754 394.028l-33.221-6.602-22.08 111.107 33.22 6.602 22.081-111.107z" fill="url(#paint15_linear)"/><path d="M600.68 345.09a155.897 155.897 0 00-111.201-47.841A155.888 155.888 0 00377.57 343.41c-59 59.48-60 156.33-2.29 217.07a155.89 155.89 0 00199.9 22.05l112.68 117.22a7.593 7.593 0 0010.73.21l28.08-27a7.593 7.593 0 00.21-10.73L614.19 545.02a155.905 155.905 0 00-13.51-199.93zm-35.1 188.37a111.505 111.505 0 01-171.184-20.269 111.502 111.502 0 01117.805-169.02 111.504 111.504 0 0179.935 68.271A111.498 111.498 0 01565.58 533.46z" fill="url(#paint16_linear)"/><path d="M405.72 422.13c-12.54 0-12.56 19.49 0 19.49s12.56-19.49 0-19.49zm87.41-62.42c-33.75-.76-64.46 16.17-80.79 41.73-5.33 8.34 9.8 15.71 15.1 7.41 13.52-21.16 39.21-34.6 67-33.9 29.12.73 55.62 17.39 69.65 40.51 5.32 8.77 19.27.8 14-7.92-17.09-28.08-50.09-47.08-84.96-47.83z" fill="#735DD0"/><path d="M11.95 664.91h-3.5v19.85h3.5v-19.85z" fill="#47E6B1"/><path d="M20.13 676.58v-3.5H.28v3.5h19.85z" fill="#47E6B1"/><path d="M458.87 8.95a4.289 4.289 0 01-2.39-5.19 2.157 2.157 0 00-.25-1.795 2.152 2.152 0 00-3.53-.115 2.06 2.06 0 00-.24.42 4.292 4.292 0 01-5.19 2.39 2.15 2.15 0 00-1.89 3.8c.13.096.271.177.42.24a4.292 4.292 0 012.39 5.19 2.064 2.064 0 00-.09.48 2.146 2.146 0 001.412 2.193A2.15 2.15 0 00452 15.78c.096-.13.176-.271.24-.42a4.288 4.288 0 015.19-2.39 2.148 2.148 0 002.688-2.667 2.159 2.159 0 00-.778-1.113c-.146-.1-.304-.18-.47-.24z" fill="#4D8AF0"/><path d="M24.44 156.1a4.292 4.292 0 01-2.39-5.19 2.152 2.152 0 00-2.667-2.688 2.147 2.147 0 00-1.113.778c-.096.13-.177.271-.24.42a4.292 4.292 0 01-5.19 2.39 2.15 2.15 0 00-1.91 3.78c.13.096.27.177.42.24a4.292 4.292 0 012.39 5.19 2.151 2.151 0 003.78 1.91c.096-.13.177-.271.24-.42a4.292 4.292 0 015.19-2.39 2.15 2.15 0 001.91-3.78 2.06 2.06 0 00-.42-.24zm617.78 607.26a4.287 4.287 0 01-2.39-5.19 2.156 2.156 0 00-1.31-2.643 2.151 2.151 0 00-2.47.733 2.01 2.01 0 00-.24.42 4.289 4.289 0 01-5.19 2.39 2.157 2.157 0 00-1.795.25 2.148 2.148 0 00-.115 3.53c.13.096.271.177.42.24a4.289 4.289 0 012.39 5.19 2.144 2.144 0 00.25 1.795 2.15 2.15 0 003.53.115c.096-.13.176-.271.24-.42a4.293 4.293 0 015.19-2.39 2.142 2.142 0 001.794-.25 2.148 2.148 0 00.116-3.53 2.103 2.103 0 00-.42-.24z" fill="#FDD835"/><path d="M208.15 83.34a7.01 7.01 0 100-14.02 7.01 7.01 0 000 14.02zm502.16 87.58a7.01 7.01 0 100-14.02 7.01 7.01 0 000 14.02z" fill="#F55F44"/><path d="M670.61 379.96a7.01 7.01 0 100-14.02 7.01 7.01 0 000 14.02z" fill="#4D8AF0"/><defs><linearGradient id="paint1_linear" x1="43668.6" y1="66215.2" x2="43668.6" y2="40242.6" gradientUnits="userSpaceOnUse"><stop stop-color="gray" stop-opacity=".25"/><stop offset=".54" stop-color="gray" stop-opacity=".12"/><stop offset="1" stop-color="gray" stop-opacity=".1"/></linearGradient><linearGradient id="paint8_linear" x1="518.6" y1="708" x2="518.6" y2="303.17" gradientUnits="userSpaceOnUse"><stop stop-color="#B3B3B3" stop-opacity=".25"/><stop offset=".54" stop-color="#B3B3B3" stop-opacity=".1"/><stop offset="1" stop-color="#B3B3B3" stop-opacity=".05"/></linearGradient><linearGradient id="paint2_linear" x1="40101.9" y1="36561.4" x2="40101.9" y2="26475.2" gradientUnits="userSpaceOnUse"><stop stop-color="gray" stop-opacity=".25"/><stop offset=".54" stop-color="gray" stop-opacity=".12"/><stop offset="1" stop-color="gray" stop-opacity=".1"/></linearGradient><linearGradient id="paint3_linear" x1="43668.6" y1="99735.3" x2="43668.6" y2="73762.7" gradientUnits="userSpaceOnUse"><stop stop-color="gray" stop-opacity=".25"/><stop offset=".54" stop-color="gray" stop-opacity=".12"/><stop offset="1" stop-color="gray" stop-opacity=".1"/></linearGradient><linearGradient id="paint4_linear" x1="40101.9" y1="57528" x2="40101.9" y2="47441.9" gradientUnits="userSpaceOnUse"><stop stop-color="gray" stop-opacity=".25"/><stop offset=".54" stop-color="gray" stop-opacity=".12"/><stop offset="1" stop-color="gray" stop-opacity=".1"/></linearGradient><linearGradient id="paint5_linear" x1="340258" y1="417950" x2="392931" y2="152903" gradientUnits="userSpaceOnUse"><stop stop-color="gray" stop-opacity=".25"/><stop offset=".54" stop-color="gray" stop-opacity=".12"/><stop offset="1" stop-color="gray" stop-opacity=".1"/></linearGradient><linearGradient id="paint6_linear" x1="174.865" y1="274.86" x2="174.865" y2="375.29" gradientUnits="userSpaceOnUse"><stop stop-color="#CE5AFF"/><stop offset="1" stop-color="#7C64BD"/></linearGradient><linearGradient id="paint7_linear" x1="76838.5" y1="175972" x2="85406.5" y2="132858" gradientUnits="userSpaceOnUse"><stop stop-color="gray" stop-opacity=".25"/><stop offset=".54" stop-color="gray" stop-opacity=".12"/><stop offset="1" stop-color="gray" stop-opacity=".1"/></linearGradient><linearGradient id="paint0_linear" x1="265.37" y1="733.81" x2="265.37" y2="131.21" gradientUnits="userSpaceOnUse"><stop stop-color="gray" stop-opacity=".25"/><stop offset=".54" stop-color="gray" stop-opacity=".12"/><stop offset="1" stop-color="gray" stop-opacity=".1"/></linearGradient><linearGradient id="paint9_linear" x1="393.49" y1="447.54" x2="393.49" y2="428.06" gradientUnits="userSpaceOnUse"><stop stop-opacity=".12"/><stop offset=".55" stop-opacity=".09"/><stop offset="1" stop-opacity=".02"/></linearGradient><linearGradient id="paint10_linear" x1="130628" y1="29246.4" x2="130628" y2="25696.6" gradientUnits="userSpaceOnUse"><stop stop-opacity=".12"/><stop offset=".55" stop-opacity=".09"/><stop offset="1" stop-opacity=".02"/></linearGradient><linearGradient id="paint11_linear" x1="155.6" y1="184.93" x2="155.6" y2="189.6" gradientUnits="userSpaceOnUse"><stop stop-color="#CE5AFF"/><stop offset="1" stop-color="#7C64BD"/></linearGradient><linearGradient id="paint12_linear" x1="105.38" y1="266.68" x2="105.38" y2="287.7" gradientUnits="userSpaceOnUse"><stop stop-color="#CE5AFF"/><stop offset="1" stop-color="#7C64BD"/></linearGradient><linearGradient id="paint13_linear" x1="201.321" y1="637.396" x2="200.41" y2="641.976" gradientUnits="userSpaceOnUse"><stop stop-color="#CE5AFF"/><stop offset="1" stop-color="#7C64BD"/></linearGradient><linearGradient id="paint14_linear" x1="324.671" y1="184.451" x2="323.761" y2="189.031" gradientUnits="userSpaceOnUse"><stop stop-color="#CE5AFF"/><stop offset="1" stop-color="#7C64BD"/></linearGradient><linearGradient id="paint15_linear" x1="302.143" y1="390.727" x2="280.063" y2="501.834" gradientUnits="userSpaceOnUse"><stop stop-color="#CE5AFF"/><stop offset="1" stop-color="#7C64BD"/></linearGradient><linearGradient id="paint16_linear" x1="530.824" y1="297.244" x2="530.824" y2="702.078" gradientUnits="userSpaceOnUse"><stop stop-color="#CE5AFF"/><stop offset="1" stop-color="#7C64BD"/></linearGradient></defs></svg>