<svg width="740" height="779" fill="none" xmlns="http://www.w3.org/2000/svg"><path opacity=".5" d="M489.31 130.227H40.87v602.6h448.44v-602.6z" fill="url(#paint0_linear)"/><path d="M481.14 138.407H46.71v581.58h434.43v-581.58z" fill="#F2F2F2"/><path d="M230.06 162.927H80.58v4.67h149.48v-4.67z" fill="#E0E0E0"/><path opacity=".7" d="M230.06 183.947H80.58v4.67h149.48v-4.67z" fill="url(#paint1_linear)"/><path d="M401.73 162.927H252.25v4.67h149.48v-4.67zM425.08 296.067H275.6v4.67h149.48v-4.67zM428.59 308.907H279.11v4.67h149.48v-4.67zM435.6 321.757H286.12v4.67H435.6v-4.67zM425.08 502.767H275.6v4.67h149.48v-4.67zM428.59 515.617H279.11v4.67h149.48v-4.67zM435.6 528.457H286.12v4.67H435.6v-4.67z" fill="#E0E0E0"/><path opacity=".5" d="M240.57 248.177H81.75v161.16h158.82v-161.16z" fill="url(#paint2_linear)"/><path d="M239.07 251.687H82.75v154.15h156.32v-154.15z" fill="#F5F5F5"/><path opacity=".5" d="M234.06 261.027H88.26v100.43h145.8v-100.43z" fill="url(#paint3_linear)"/><path d="M233.05 262.197H89.26v96.93h143.79v-96.93z" fill="#fff"/><path opacity=".4" d="M77.07 355.627l36.21-56.06 15.18 24.52 32.7-33.86 28.03 33.86 24.52-50.21 63.06 100.43-204.37-7.01 4.67-11.67z" fill="url(#paint4_linear)"/><path opacity=".4" d="M105.1 286.717c5.804 0 10.51-4.706 10.51-10.51 0-5.805-4.706-10.51-10.51-10.51-5.805 0-10.51 4.705-10.51 10.51 0 5.804 4.705 10.51 10.51 10.51z" fill="url(#paint5_linear)"/><path opacity=".5" d="M240.57 454.887H81.75v161.16h158.82v-161.16z" fill="url(#paint6_linear)"/><path d="M239.07 458.387H82.75v154.15h156.32v-154.15z" fill="#F5F5F5"/><path opacity=".5" d="M234.06 467.737H88.26v100.43h145.8v-100.43z" fill="url(#paint7_linear)"/><path d="M233.05 468.896H89.26v96.93h143.79v-96.93z" fill="#fff"/><path opacity=".4" d="M77.07 562.327l36.21-56.06 15.18 24.53 32.7-33.87 28.03 33.87 24.52-50.22 63.06 100.43-204.37-7 4.67-11.68zM105.1 493.427c5.804 0 10.51-4.706 10.51-10.51 0-5.805-4.706-10.51-10.51-10.51-5.805 0-10.51 4.705-10.51 10.51 0 5.804 4.705 10.51 10.51 10.51z" fill="#BDBDBD"/><path opacity=".5" d="M224.164 100.453L106.706 691.495l439.838 87.41 117.459-591.042-439.839-87.41z" fill="url(#paint8_linear)"/><path d="M228.295 109.612L114.934 680.037l426.097 84.678L654.392 194.29l-426.097-84.678z" fill="#fff"/><path d="M556.435 202.189l-302.396-60.095-.91 4.58 302.396 60.096.91-4.581zM470.392 635.17l-302.396-60.095-.911 4.58 302.397 60.096.91-4.581zM396.421 647.847L162.75 601.41l-.91 4.58 233.671 46.438.91-4.581z" fill="#E0E0E0"/><path opacity=".7" d="M244.565 645.062l-87.048-17.299-.91 4.58 87.048 17.299.91-4.58z" fill="url(#paint9_linear)"/><path opacity=".7" d="M399.988 198.491l-151.193-30.047-.911 4.58 151.194 30.047.91-4.58z" fill="url(#paint10_linear)"/><path d="M516.18 248.961l-272.609-54.175-.91 4.58 272.609 54.176.91-4.581z" fill="#E0E0E0"/><path opacity=".7" d="M304.761 234.338l-66.43-13.202-.911 4.58 66.431 13.202.91-4.58z" fill="#3AD29F"/><path d="M535.497 307.576L233.1 247.481l-.91 4.58 302.396 60.096.911-4.581z" fill="#E0E0E0"/><path opacity=".5" d="M259.743 358.761l-30.957 155.774 271.461 53.947 30.958-155.773-271.462-53.948z" fill="url(#paint11_linear)"/><path d="M529.31 413.513l-268.029-53.266-30.275 152.341 268.029 53.265 30.275-152.34z" fill="#fff"/><path d="M530.261 333.93l-302.396-60.096-.911 4.581 302.397 60.095.91-4.58z" fill="#E0E0E0"/><path d="M318.474 393.044l-33.221-6.602-22.08 111.108 33.22 6.601 22.081-111.107z" fill="url(#paint12_linear)"/><path d="M370.749 441.537l-33.22-6.602-14.796 74.454 33.22 6.602 14.796-74.454z" fill="#3AD29F"/><path d="M423.491 487.739l-33.22-6.602-7.967 40.086 33.221 6.602 7.966-40.086z" fill="url(#paint13_linear)"/><path d="M491.248 458.339l-33.22-6.602-16.163 81.33 33.22 6.602 16.163-81.33z" fill="#FDD835"/><path d="M393.21 427.077c-12.54 0-12.56 19.49 0 19.49s12.56-19.49 0-19.49z" fill="url(#paint14_linear)"/><path d="M480.62 364.647c-33.75-.76-64.46 16.17-80.79 41.73-5.33 8.34 9.8 15.71 15.1 7.41 13.52-21.16 39.21-34.6 67-33.9 29.12.73 55.62 17.39 69.65 40.51 5.32 8.77 19.27.8 14-7.92-17.06-28-50.1-47-84.96-47.83z" fill="url(#paint15_linear)"/><path d="M405.44 421.146c-12.54 0-12.56 19.49 0 19.49s12.56-19.49 0-19.49z" fill="#735DD0"/><path d="M11.67 663.927h-3.5v19.85h3.5v-19.85z" fill="#47E6B1"/><path d="M19.85 675.597v-3.5H0v3.5h19.85z" fill="#47E6B1"/><path d="M458.59 7.967a4.292 4.292 0 01-2.39-5.19 2.15 2.15 0 00-3.78-1.91 2.06 2.06 0 00-.24.42 4.292 4.292 0 01-5.19 2.39 2.15 2.15 0 00-1.89 3.8c.13.096.271.176.42.24a4.292 4.292 0 012.39 5.19 2.064 2.064 0 00-.09.48 2.154 2.154 0 001.412 2.192 2.15 2.15 0 002.488-.782c.096-.13.177-.271.24-.42a4.288 4.288 0 015.19-2.39 2.151 2.151 0 001.91-3.78c-.146-.1-.304-.18-.47-.24z" fill="#4D8AF0"/><path d="M24.16 155.117a4.29 4.29 0 01-2.39-5.19 2.15 2.15 0 00-3.78-1.91c-.096.13-.177.271-.24.42a4.292 4.292 0 01-5.19 2.39 2.15 2.15 0 00-1.91 3.78c.13.096.271.176.42.24a4.288 4.288 0 012.39 5.19 2.148 2.148 0 002.667 2.687 2.151 2.151 0 001.113-.777c.096-.13.177-.271.24-.42a4.288 4.288 0 015.19-2.39 2.157 2.157 0 001.795-.25 2.152 2.152 0 00.115-3.53 2.013 2.013 0 00-.42-.24zM641.94 762.377a4.288 4.288 0 01-2.39-5.19 2.15 2.15 0 00-3.78-1.91c-.096.13-.177.271-.24.42a4.294 4.294 0 01-2.139 2.185 4.298 4.298 0 01-3.051.205 2.145 2.145 0 00-2.644 1.31 2.15 2.15 0 00.734 2.47c.13.096.271.177.42.24a4.29 4.29 0 012.39 5.19 2.142 2.142 0 00.25 1.794 2.148 2.148 0 003.53.116c.096-.13.177-.271.24-.42a4.29 4.29 0 015.19-2.39 2.152 2.152 0 002.688-2.667 2.153 2.153 0 00-.778-1.113 2.056 2.056 0 00-.42-.24z" fill="#FDD835"/><path d="M207.87 82.357a7.01 7.01 0 100-14.02 7.01 7.01 0 000 14.02zM710.03 169.937a7.01 7.01 0 100-14.02 7.01 7.01 0 000 14.02z" fill="#F55F44"/><path d="M670.33 378.977a7.01 7.01 0 10-.001-14.021 7.01 7.01 0 00.001 14.021z" fill="#4D8AF0"/><path d="M727.583 497.639C689.924 424.16 615.368 374.444 530 374.444s-159.944 49.75-197.583 123.202a22.464 22.464 0 000 20.271C370.076 591.396 444.632 641.111 530 641.111s159.945-49.75 197.583-123.201a22.464 22.464 0 000-20.271zM530 607.778c-55.228 0-100-44.772-100-100 0-55.229 44.772-100 100-100 55.229 0 100 44.771 100 100v-.001c.027 55.202-44.701 99.973-99.903 100H530v.001zm0-166.667a66.161 66.161 0 00-17.576 2.632c10.877 14.781 7.712 35.581-7.07 46.458a33.227 33.227 0 01-39.389 0c-9.622 35.452 11.316 71.993 46.768 81.615 35.452 9.623 71.993-11.316 81.615-46.768 9.623-35.452-11.316-71.992-46.768-81.615a66.527 66.527 0 00-17.58-2.322z" fill="#F4F4F4"/><path d="M737.583 487.639C699.924 414.16 625.368 364.444 540 364.444s-159.944 49.75-197.583 123.202a22.464 22.464 0 000 20.271C380.076 581.396 454.632 631.111 540 631.111s159.945-49.75 197.583-123.201a22.464 22.464 0 000-20.271zM540 597.778c-55.228 0-100-44.772-100-100 0-55.229 44.772-100 100-100 55.229 0 100 44.771 100 100v-.001c.027 55.202-44.701 99.973-99.903 100H540v.001zm0-166.667a66.161 66.161 0 00-17.576 2.632c10.877 14.781 7.712 35.581-7.07 46.458a33.227 33.227 0 01-39.389 0c-9.622 35.452 11.316 71.993 46.768 81.615 35.452 9.623 71.993-11.316 81.615-46.768 9.623-35.452-11.316-71.992-46.768-81.615a66.527 66.527 0 00-17.58-2.322z" fill="url(#paint16_linear)"/><defs><linearGradient id="paint8_linear" x1="340258" y1="417949" x2="392931" y2="152902" gradientUnits="userSpaceOnUse"><stop stop-color="gray" stop-opacity=".25"/><stop offset=".54" stop-color="gray" stop-opacity=".12"/><stop offset="1" stop-color="gray" stop-opacity=".1"/></linearGradient><linearGradient id="paint0_linear" x1="265.09" y1="732.827" x2="265.09" y2="130.227" gradientUnits="userSpaceOnUse"><stop stop-color="gray" stop-opacity=".25"/><stop offset=".54" stop-color="gray" stop-opacity=".12"/><stop offset="1" stop-color="gray" stop-opacity=".1"/></linearGradient><linearGradient id="paint2_linear" x1="43668.3" y1="66214.2" x2="43668.3" y2="40241.6" gradientUnits="userSpaceOnUse"><stop stop-color="gray" stop-opacity=".25"/><stop offset=".54" stop-color="gray" stop-opacity=".12"/><stop offset="1" stop-color="gray" stop-opacity=".1"/></linearGradient><linearGradient id="paint3_linear" x1="40101.6" y1="36560.4" x2="40101.6" y2="26474.3" gradientUnits="userSpaceOnUse"><stop stop-color="gray" stop-opacity=".25"/><stop offset=".54" stop-color="gray" stop-opacity=".12"/><stop offset="1" stop-color="gray" stop-opacity=".1"/></linearGradient><linearGradient id="paint4_linear" x1="174.585" y1="273.877" x2="174.585" y2="374.307" gradientUnits="userSpaceOnUse"><stop stop-color="#36C5F0"/><stop offset=".729" stop-color="#55BA3C"/></linearGradient><linearGradient id="paint5_linear" x1="105.1" y1="265.697" x2="105.1" y2="286.717" gradientUnits="userSpaceOnUse"><stop stop-color="#36C5F0"/><stop offset=".729" stop-color="#55BA3C"/></linearGradient><linearGradient id="paint6_linear" x1="43668.3" y1="99734.3" x2="43668.3" y2="73761.8" gradientUnits="userSpaceOnUse"><stop stop-color="gray" stop-opacity=".25"/><stop offset=".54" stop-color="gray" stop-opacity=".12"/><stop offset="1" stop-color="gray" stop-opacity=".1"/></linearGradient><linearGradient id="paint7_linear" x1="40101.6" y1="57527.1" x2="40101.6" y2="47440.9" gradientUnits="userSpaceOnUse"><stop stop-color="gray" stop-opacity=".25"/><stop offset=".54" stop-color="gray" stop-opacity=".12"/><stop offset="1" stop-color="gray" stop-opacity=".1"/></linearGradient><linearGradient id="paint1_linear" x1="155.32" y1="183.947" x2="155.32" y2="188.617" gradientUnits="userSpaceOnUse"><stop stop-color="#36C5F0"/><stop offset=".729" stop-color="#55BA3C"/></linearGradient><linearGradient id="paint9_linear" x1="201.041" y1="636.412" x2="200.131" y2="640.993" gradientUnits="userSpaceOnUse"><stop stop-color="#36C5F0"/><stop offset=".729" stop-color="#55BA3C"/></linearGradient><linearGradient id="paint10_linear" x1="324.391" y1="183.467" x2="323.481" y2="188.048" gradientUnits="userSpaceOnUse"><stop stop-color="#36C5F0"/><stop offset=".729" stop-color="#55BA3C"/></linearGradient><linearGradient id="paint11_linear" x1="76838.3" y1="175971" x2="85406.2" y2="132857" gradientUnits="userSpaceOnUse"><stop stop-color="gray" stop-opacity=".25"/><stop offset=".54" stop-color="gray" stop-opacity=".12"/><stop offset="1" stop-color="gray" stop-opacity=".1"/></linearGradient><linearGradient id="paint12_linear" x1="301.864" y1="389.743" x2="279.783" y2="500.851" gradientUnits="userSpaceOnUse"><stop stop-color="#36C5F0"/><stop offset=".729" stop-color="#55BA3C"/></linearGradient><linearGradient id="paint13_linear" x1="406.881" y1="484.438" x2="398.914" y2="524.524" gradientUnits="userSpaceOnUse"><stop stop-color="#F7A248"/><stop offset=".766" stop-color="#EC4C47"/></linearGradient><linearGradient id="paint14_linear" x1="393.21" y1="446.557" x2="393.21" y2="427.077" gradientUnits="userSpaceOnUse"><stop stop-opacity=".12"/><stop offset=".55" stop-opacity=".09"/><stop offset="1" stop-opacity=".02"/></linearGradient><linearGradient id="paint15_linear" x1="130628" y1="29245.4" x2="130628" y2="25695.6" gradientUnits="userSpaceOnUse"><stop stop-opacity=".12"/><stop offset=".55" stop-opacity=".09"/><stop offset="1" stop-opacity=".02"/></linearGradient><linearGradient id="paint16_linear" x1="540" y1="364.444" x2="540" y2="631.111" gradientUnits="userSpaceOnUse"><stop stop-color="#36C5F0"/><stop offset=".729" stop-color="#55BA3C"/></linearGradient></defs></svg>