<svg width="718" height="779" fill="none" xmlns="http://www.w3.org/2000/svg"><path opacity=".5" d="M489.59 130.227H41.15v602.6h448.44v-602.6z" fill="url(#paint0_linear)"/><path d="M481.42 138.407H46.99v581.58h434.43v-581.58z" fill="#F2F2F2"/><path d="M230.34 162.927H80.86v4.67h149.48v-4.67zM402.01 162.927H252.53v4.67h149.48v-4.67zM425.36 296.067H275.88v4.67h149.48v-4.67zM428.87 308.907H279.39v4.67h149.48v-4.67zM435.88 321.757H286.4v4.67h149.48v-4.67zM425.36 502.767H275.88v4.67h149.48v-4.67zM428.87 515.617H279.39v4.67h149.48v-4.67zM435.88 528.457H286.4v4.67h149.48v-4.67z" fill="#E0E0E0"/><path opacity=".5" d="M240.85 248.177H82.03v161.16h158.82v-161.16z" fill="url(#paint1_linear)"/><path d="M239.35 251.687H83.03v154.15h156.32v-154.15z" fill="#F5F5F5"/><path opacity=".5" d="M234.34 261.027H88.54v100.43h145.8v-100.43z" fill="url(#paint2_linear)"/><path d="M233.33 262.197H89.54v96.93h143.79v-96.93z" fill="#fff"/><path opacity=".5" d="M240.85 454.887H82.03v161.16h158.82v-161.16z" fill="url(#paint3_linear)"/><path d="M239.35 458.387H83.03v154.15h156.32v-154.15z" fill="#F5F5F5"/><path opacity=".5" d="M234.34 467.737H88.54v100.43h145.8v-100.43z" fill="url(#paint4_linear)"/><path d="M233.33 468.896H89.54v96.93h143.79v-96.93z" fill="#fff"/><path opacity=".4" d="M77.35 562.327l36.21-56.06 15.18 24.53 32.7-33.87 28.03 33.87 24.52-50.22 63.06 100.43-204.37-7 4.67-11.68zM105.38 493.427c5.804 0 10.51-4.706 10.51-10.51 0-5.805-4.706-10.51-10.51-10.51-5.805 0-10.51 4.705-10.51 10.51 0 5.804 4.705 10.51 10.51 10.51z" fill="#BDBDBD"/><path opacity=".5" d="M224.444 100.453L106.985 691.495l439.839 87.41 117.458-591.042-439.838-87.41z" fill="url(#paint5_linear)"/><path opacity=".4" d="M77.35 355.627l36.21-56.06 15.18 24.52 32.7-33.86 28.03 33.86 24.52-50.21 63.06 100.43-204.37-7.01 4.67-11.67z" fill="url(#paint6_linear)"/><path d="M228.575 109.612L115.214 680.037l426.097 84.678L654.672 194.29l-426.097-84.678z" fill="#fff"/><path d="M556.715 202.189l-302.396-60.095-.91 4.58 302.396 60.096.91-4.581zM470.672 635.17l-302.397-60.095-.91 4.58 302.397 60.096.91-4.581zM396.701 647.847L163.03 601.41l-.91 4.58 233.67 46.438.911-4.581zM516.46 248.961l-272.609-54.175-.91 4.58 272.608 54.176.911-4.581z" fill="#E0E0E0"/><path opacity=".7" d="M305.041 234.338l-66.431-13.202-.91 4.58 66.431 13.202.91-4.58z" fill="#3AD29F"/><path d="M535.776 307.576L233.38 247.481l-.91 4.58 302.396 60.096.91-4.581z" fill="#E0E0E0"/><path opacity=".5" d="M260.023 358.761l-30.957 155.774 271.461 53.947 30.957-155.773-271.461-53.948z" fill="url(#paint7_linear)"/><path d="M529.589 413.513l-268.028-53.266-30.275 152.341 268.029 53.265 30.274-152.34z" fill="#fff"/><path d="M530.541 333.93l-302.397-60.096-.91 4.581L529.63 338.51l.911-4.58z" fill="#E0E0E0"/><path d="M371.029 441.537l-33.22-6.602-14.796 74.454 33.22 6.602 14.796-74.454z" fill="#3AD29F"/><path d="M423.771 487.739l-33.221-6.602-7.966 40.086 33.22 6.602 7.967-40.086z" fill="#F55F44"/><path d="M491.528 458.339l-33.22-6.602-16.163 81.33 33.22 6.602 16.163-81.33z" fill="#FDD835"/><path d="M393.49 427.077c-12.54 0-12.56 19.49 0 19.49s12.56-19.49 0-19.49z" fill="url(#paint8_linear)"/><path d="M480.9 364.647c-33.75-.76-64.46 16.17-80.79 41.73-5.33 8.34 9.8 15.71 15.1 7.41 13.52-21.16 39.21-34.6 67-33.9 29.12.73 55.62 17.39 69.65 40.51 5.32 8.77 19.27.8 14-7.92-17.06-28-50.1-47-84.96-47.83z" fill="url(#paint9_linear)"/><path opacity=".7" d="M230.34 183.947H80.86v4.67h149.48v-4.67z" fill="url(#paint10_linear)"/><path opacity=".4" d="M105.38 286.717c5.804 0 10.51-4.706 10.51-10.51 0-5.805-4.706-10.51-10.51-10.51-5.805 0-10.51 4.705-10.51 10.51 0 5.804 4.705 10.51 10.51 10.51z" fill="url(#paint11_linear)"/><path opacity=".7" d="M244.845 645.062l-87.048-17.299-.91 4.58 87.047 17.299.911-4.58z" fill="url(#paint12_linear)"/><path opacity=".7" d="M400.268 198.491l-151.194-30.047-.91 4.58 151.194 30.047.91-4.58z" fill="url(#paint13_linear)"/><path d="M318.754 393.044l-33.221-6.602-22.08 111.108 33.22 6.601 22.081-111.107z" fill="url(#paint14_linear)"/><path d="M405.72 421.146c-12.54 0-12.56 19.49 0 19.49s12.56-19.49 0-19.49z" fill="url(#paint15_linear)"/><path d="M493.13 358.727c-33.75-.76-64.46 16.17-80.79 41.73-5.33 8.34 9.8 15.71 15.1 7.41 13.52-21.16 39.21-34.6 67-33.9 29.12.73 55.62 17.39 69.65 40.51 5.32 8.77 19.27.8 14-7.92-17.09-28.08-50.09-47.08-84.96-47.83z" fill="url(#paint16_linear)"/><path d="M11.95 663.927h-3.5v19.85h3.5v-19.85z" fill="#47E6B1"/><path d="M20.13 675.597v-3.5H.28v3.5h19.85z" fill="#47E6B1"/><path d="M458.87 7.967a4.289 4.289 0 01-2.39-5.19 2.157 2.157 0 00-.25-1.795 2.152 2.152 0 00-3.53-.115 2.06 2.06 0 00-.24.42 4.292 4.292 0 01-5.19 2.39 2.15 2.15 0 00-1.89 3.8c.13.096.271.176.42.24a4.292 4.292 0 012.39 5.19 2.064 2.064 0 00-.09.48 2.146 2.146 0 001.412 2.192 2.15 2.15 0 002.488-.782c.096-.13.176-.271.24-.42a4.288 4.288 0 015.19-2.39 2.148 2.148 0 002.688-2.667 2.159 2.159 0 00-.778-1.113c-.146-.1-.304-.18-.47-.24z" fill="#4D8AF0"/><path d="M24.44 155.117a4.29 4.29 0 01-2.39-5.19 2.15 2.15 0 00-3.78-1.91c-.096.13-.177.271-.24.42a4.292 4.292 0 01-5.19 2.39 2.15 2.15 0 00-1.91 3.78c.13.096.27.176.42.24a4.288 4.288 0 012.39 5.19 2.148 2.148 0 002.667 2.687 2.152 2.152 0 001.113-.777c.096-.13.177-.271.24-.42a4.288 4.288 0 015.19-2.39 2.157 2.157 0 001.795-.25 2.152 2.152 0 00.115-3.53 2.015 2.015 0 00-.42-.24zM642.22 762.377a4.29 4.29 0 01-2.39-5.19 2.157 2.157 0 00-.25-1.795 2.148 2.148 0 00-3.53-.115 2.01 2.01 0 00-.24.42 4.293 4.293 0 01-5.19 2.39 2.144 2.144 0 00-1.795.25 2.148 2.148 0 00-.115 3.53c.13.096.271.177.42.24a4.293 4.293 0 012.39 5.19 2.142 2.142 0 00.25 1.794 2.15 2.15 0 003.53.116c.096-.13.176-.271.24-.42a4.29 4.29 0 015.19-2.39 2.15 2.15 0 001.91-3.78 2.056 2.056 0 00-.42-.24z" fill="#FDD835"/><path d="M208.15 82.357a7.01 7.01 0 100-14.02 7.01 7.01 0 000 14.02zM710.31 169.937a7.01 7.01 0 10-.001-14.021 7.01 7.01 0 00.001 14.021z" fill="#F55F44"/><path d="M670.61 378.977a7.01 7.01 0 10-.001-14.021 7.01 7.01 0 00.001 14.021z" fill="#4D8AF0"/><g clip-path="url(#clip0)"><path d="M519 755c27.594 0 49.976-22.383 49.976-50h-99.953c0 27.617 22.383 50 49.977 50zm168.273-116.961c-15.094-16.219-43.336-40.617-43.336-120.539 0-60.703-42.562-109.297-99.953-121.219V380c0-13.805-11.187-25-24.984-25-13.797 0-24.985 11.195-24.985 25v16.281c-57.39 11.922-99.953 60.516-99.953 121.219 0 79.922-28.242 104.32-43.336 120.539-4.687 5.039-6.765 11.063-6.726 16.961.086 12.812 10.14 25 25.078 25h299.844c14.937 0 25-12.188 25.078-25 .039-5.898-2.039-11.93-6.727-16.961z" fill="#F4F4F4"/></g><g clip-path="url(#clip1)"><path d="M529 745c27.594 0 49.976-22.383 49.976-50h-99.953c0 27.617 22.383 50 49.977 50zm168.273-116.961c-15.094-16.219-43.336-40.617-43.336-120.539 0-60.703-42.562-109.297-99.953-121.219V370c0-13.805-11.187-25-24.984-25-13.797 0-24.985 11.195-24.985 25v16.281c-57.39 11.922-99.953 60.516-99.953 121.219 0 79.922-28.242 104.32-43.336 120.539-4.687 5.039-6.765 11.063-6.726 16.961.086 12.812 10.14 25 25.078 25h299.844c14.937 0 25-12.188 25.078-25 .039-5.898-2.039-11.93-6.727-16.961z" fill="url(#paint17_linear)"/></g><defs><linearGradient id="paint10_linear" x1="155.6" y1="183.947" x2="155.6" y2="188.617" gradientUnits="userSpaceOnUse"><stop stop-color="#00BCF7"/><stop offset=".729" stop-color="#326CE5"/></linearGradient><linearGradient id="paint0_linear" x1="265.37" y1="732.827" x2="265.37" y2="130.227" gradientUnits="userSpaceOnUse"><stop stop-color="gray" stop-opacity=".25"/><stop offset=".54" stop-color="gray" stop-opacity=".12"/><stop offset="1" stop-color="gray" stop-opacity=".1"/></linearGradient><linearGradient id="paint2_linear" x1="40101.9" y1="36560.4" x2="40101.9" y2="26474.3" gradientUnits="userSpaceOnUse"><stop stop-color="gray" stop-opacity=".25"/><stop offset=".54" stop-color="gray" stop-opacity=".12"/><stop offset="1" stop-color="gray" stop-opacity=".1"/></linearGradient><linearGradient id="paint3_linear" x1="43668.6" y1="99734.3" x2="43668.6" y2="73761.8" gradientUnits="userSpaceOnUse"><stop stop-color="gray" stop-opacity=".25"/><stop offset=".54" stop-color="gray" stop-opacity=".12"/><stop offset="1" stop-color="gray" stop-opacity=".1"/></linearGradient><linearGradient id="paint4_linear" x1="40101.9" y1="57527.1" x2="40101.9" y2="47440.9" gradientUnits="userSpaceOnUse"><stop stop-color="gray" stop-opacity=".25"/><stop offset=".54" stop-color="gray" stop-opacity=".12"/><stop offset="1" stop-color="gray" stop-opacity=".1"/></linearGradient><linearGradient id="paint5_linear" x1="340258" y1="417949" x2="392931" y2="152902" gradientUnits="userSpaceOnUse"><stop stop-color="gray" stop-opacity=".25"/><stop offset=".54" stop-color="gray" stop-opacity=".12"/><stop offset="1" stop-color="gray" stop-opacity=".1"/></linearGradient><linearGradient id="paint6_linear" x1="174.865" y1="273.877" x2="174.865" y2="374.307" gradientUnits="userSpaceOnUse"><stop stop-color="#00BCF7"/><stop offset=".729" stop-color="#326CE5"/></linearGradient><linearGradient id="paint7_linear" x1="76838.5" y1="175971" x2="85406.5" y2="132857" gradientUnits="userSpaceOnUse"><stop stop-color="gray" stop-opacity=".25"/><stop offset=".54" stop-color="gray" stop-opacity=".12"/><stop offset="1" stop-color="gray" stop-opacity=".1"/></linearGradient><linearGradient id="paint8_linear" x1="393.49" y1="446.557" x2="393.49" y2="427.077" gradientUnits="userSpaceOnUse"><stop stop-opacity=".12"/><stop offset=".55" stop-opacity=".09"/><stop offset="1" stop-opacity=".02"/></linearGradient><linearGradient id="paint9_linear" x1="130628" y1="29245.4" x2="130628" y2="25695.6" gradientUnits="userSpaceOnUse"><stop stop-opacity=".12"/><stop offset=".55" stop-opacity=".09"/><stop offset="1" stop-opacity=".02"/></linearGradient><linearGradient id="paint1_linear" x1="43668.6" y1="66214.2" x2="43668.6" y2="40241.6" gradientUnits="userSpaceOnUse"><stop stop-color="gray" stop-opacity=".25"/><stop offset=".54" stop-color="gray" stop-opacity=".12"/><stop offset="1" stop-color="gray" stop-opacity=".1"/></linearGradient><linearGradient id="paint11_linear" x1="105.38" y1="265.697" x2="105.38" y2="286.717" gradientUnits="userSpaceOnUse"><stop stop-color="#00BCF7"/><stop offset=".729" stop-color="#326CE5"/></linearGradient><linearGradient id="paint12_linear" x1="201.321" y1="636.412" x2="200.41" y2="640.993" gradientUnits="userSpaceOnUse"><stop stop-color="#00BCF7"/><stop offset=".729" stop-color="#326CE5"/></linearGradient><linearGradient id="paint13_linear" x1="324.671" y1="183.467" x2="323.761" y2="188.048" gradientUnits="userSpaceOnUse"><stop stop-color="#00BCF7"/><stop offset=".729" stop-color="#326CE5"/></linearGradient><linearGradient id="paint14_linear" x1="302.143" y1="389.743" x2="280.063" y2="500.851" gradientUnits="userSpaceOnUse"><stop stop-color="#00BCF7"/><stop offset=".729" stop-color="#326CE5"/></linearGradient><linearGradient id="paint15_linear" x1="405.723" y1="421.146" x2="405.723" y2="440.636" gradientUnits="userSpaceOnUse"><stop stop-color="#00BCF7"/><stop offset=".729" stop-color="#326CE5"/></linearGradient><linearGradient id="paint16_linear" x1="495.239" y1="358.702" x2="495.239" y2="418.283" gradientUnits="userSpaceOnUse"><stop stop-color="#00BCF7"/><stop offset=".729" stop-color="#326CE5"/></linearGradient><linearGradient id="paint17_linear" x1="529" y1="345" x2="529" y2="745" gradientUnits="userSpaceOnUse"><stop stop-color="#00BCF7"/><stop offset=".729" stop-color="#326CE5"/></linearGradient><clipPath id="clip0"><path fill="#fff" transform="translate(344 355)" d="M0 0h350v400H0z"/></clipPath><clipPath id="clip1"><path fill="#fff" transform="translate(354 345)" d="M0 0h350v400H0z"/></clipPath></defs></svg>