<svg width="733" height="780" fill="none" xmlns="http://www.w3.org/2000/svg"><path opacity=".5" d="M489.31 131.21H40.87v602.6h448.44v-602.6z" fill="url(#paint0_linear)"/><path d="M481.14 139.39H46.71v581.58h434.43V139.39z" fill="#F2F2F2"/><path d="M230.06 163.91H80.58v4.67h149.48v-4.67z" fill="#E0E0E0"/><path opacity=".7" d="M230.06 184.93H80.58v4.67h149.48v-4.67z" fill="url(#paint1_linear)"/><path d="M401.73 163.91H252.25v4.67h149.48v-4.67zm23.35 133.14H275.6v4.67h149.48v-4.67zm3.51 12.84H279.11v4.67h149.48v-4.67zm7.01 12.85H286.12v4.67H435.6v-4.67zm-10.52 181.01H275.6v4.67h149.48v-4.67zm3.51 12.85H279.11v4.67h149.48v-4.67zm7.01 12.84H286.12v4.67H435.6v-4.67z" fill="#E0E0E0"/><path opacity=".5" d="M240.57 249.16H81.75v161.16h158.82V249.16z" fill="url(#paint2_linear)"/><path d="M239.07 252.67H82.75v154.15h156.32V252.67z" fill="#F5F5F5"/><path opacity=".5" d="M234.06 262.01H88.26v100.43h145.8V262.01z" fill="url(#paint3_linear)"/><path d="M233.05 263.18H89.26v96.93h143.79v-96.93z" fill="#fff"/><path opacity=".4" d="M77.07 356.61l36.21-56.06 15.18 24.52 32.7-33.86 28.03 33.86 24.52-50.21 63.06 100.43-204.37-7.01 4.67-11.67z" fill="url(#paint4_linear)"/><path opacity=".4" d="M105.1 287.7c5.804 0 10.51-4.705 10.51-10.51 0-5.804-4.706-10.51-10.51-10.51-5.805 0-10.51 4.706-10.51 10.51 0 5.805 4.705 10.51 10.51 10.51z" fill="url(#paint5_linear)"/><path opacity=".5" d="M240.57 455.87H81.75v161.16h158.82V455.87z" fill="url(#paint6_linear)"/><path d="M239.07 459.37H82.75v154.15h156.32V459.37z" fill="#F5F5F5"/><path opacity=".5" d="M234.06 468.72H88.26v100.43h145.8V468.72z" fill="url(#paint7_linear)"/><path d="M233.05 469.88H89.26v96.93h143.79v-96.93z" fill="#fff"/><path opacity=".4" d="M77.07 563.31l36.21-56.06 15.18 24.53 32.7-33.87 28.03 33.87 24.52-50.22 63.06 100.43-204.37-7 4.67-11.68zm28.03-68.9c5.804 0 10.51-4.705 10.51-10.51 0-5.804-4.706-10.51-10.51-10.51-5.805 0-10.51 4.706-10.51 10.51 0 5.805 4.705 10.51 10.51 10.51z" fill="#BDBDBD"/><path opacity=".5" d="M224.164 101.437L106.706 692.479l439.838 87.409 117.459-591.042-439.839-87.409z" fill="url(#paint8_linear)"/><path d="M228.295 110.595L114.934 681.02l426.097 84.679 113.361-570.425-426.097-84.679z" fill="#fff"/><path d="M556.435 203.173l-302.396-60.096-.91 4.581 302.396 60.095.91-4.58zm-86.043 432.981l-302.396-60.096-.911 4.581 302.397 60.095.91-4.58zm-73.971 12.677L162.75 602.393l-.91 4.58 233.671 46.438.91-4.58z" fill="#E0E0E0"/><path opacity=".7" d="M244.565 646.045l-87.048-17.299-.91 4.581 87.048 17.299.91-4.581z" fill="url(#paint9_linear)"/><path opacity=".7" d="M399.988 199.474l-151.193-30.047-.911 4.581 151.194 30.046.91-4.58z" fill="url(#paint10_linear)"/><path d="M516.18 249.945l-272.609-54.176-.91 4.581 272.609 54.176.91-4.581z" fill="#E0E0E0"/><path opacity=".7" d="M304.761 235.321l-66.43-13.202-.911 4.581 66.431 13.201.91-4.58z" fill="#3AD29F"/><path d="M535.497 308.56L233.1 248.465l-.91 4.58 302.396 60.096.911-4.581z" fill="#E0E0E0"/><path opacity=".5" d="M259.743 359.744l-30.957 155.774 271.461 53.948 30.958-155.774-271.462-53.948z" fill="url(#paint11_linear)"/><path d="M529.31 414.496L261.281 361.23l-30.275 152.341 268.029 53.266 30.275-152.341z" fill="#fff"/><path d="M530.261 334.913l-302.396-60.095-.911 4.58 302.397 60.096.91-4.581z" fill="#E0E0E0"/><path d="M318.474 394.028l-33.221-6.602-22.08 111.107 33.22 6.602 22.081-111.107z" fill="url(#paint12_linear)"/><path d="M370.749 442.52l-33.22-6.602-14.796 74.454 33.22 6.602 14.796-74.454z" fill="#3AD29F"/><path d="M423.491 488.723l-33.22-6.602-7.967 40.086 33.221 6.602 7.966-40.086z" fill="url(#paint13_linear)"/><path d="M491.248 459.323l-33.22-6.602-16.163 81.329 33.22 6.602 16.163-81.329z" fill="#FDD835"/><path d="M393.21 428.06c-12.54 0-12.56 19.49 0 19.49s12.56-19.49 0-19.49z" fill="url(#paint14_linear)"/><path d="M480.62 365.63c-33.75-.76-64.46 16.17-80.79 41.73-5.33 8.34 9.8 15.71 15.1 7.41 13.52-21.16 39.21-34.6 67-33.9 29.12.73 55.62 17.39 69.65 40.51 5.32 8.77 19.27.8 14-7.92-17.06-28-50.1-47-84.96-47.83z" fill="url(#paint15_linear)"/><path d="M405.44 422.13c-12.54 0-12.56 19.49 0 19.49s12.56-19.49 0-19.49z" fill="#735DD0"/><path d="M11.67 664.91h-3.5v19.85h3.5v-19.85z" fill="#47E6B1"/><path d="M19.85 676.58v-3.5H0v3.5h19.85z" fill="#47E6B1"/><path d="M458.59 8.95a4.292 4.292 0 01-2.39-5.19 2.15 2.15 0 00-3.78-1.91 2.06 2.06 0 00-.24.42 4.292 4.292 0 01-5.19 2.39 2.15 2.15 0 00-1.89 3.8c.13.096.271.177.42.24a4.292 4.292 0 012.39 5.19 2.064 2.064 0 00-.09.48 2.154 2.154 0 001.412 2.193 2.15 2.15 0 002.488-.783 2.06 2.06 0 00.24-.42 4.288 4.288 0 015.19-2.39 2.151 2.151 0 001.91-3.78c-.146-.1-.304-.18-.47-.24z" fill="#4D8AF0"/><path d="M24.16 156.1a4.292 4.292 0 01-2.39-5.19 2.151 2.151 0 00-3.78-1.91c-.096.13-.177.271-.24.42a4.292 4.292 0 01-5.19 2.39 2.15 2.15 0 00-1.91 3.78c.13.096.271.177.42.24a4.292 4.292 0 012.39 5.19 2.151 2.151 0 003.78 1.91c.096-.13.177-.271.24-.42a4.292 4.292 0 015.19-2.39 2.15 2.15 0 001.91-3.78 2.058 2.058 0 00-.42-.24zm617.78 607.26a4.29 4.29 0 01-2.39-5.19 2.15 2.15 0 00-3.78-1.91c-.096.13-.177.271-.24.42a4.29 4.29 0 01-5.19 2.39 2.159 2.159 0 00-1.795.25 2.148 2.148 0 00-.115 3.53c.13.096.271.177.42.24a4.293 4.293 0 012.39 5.19 2.144 2.144 0 00.25 1.795 2.148 2.148 0 003.53.115c.096-.13.177-.271.24-.42a4.293 4.293 0 015.19-2.39 2.145 2.145 0 002.643-1.31 2.15 2.15 0 00-.733-2.47 2.103 2.103 0 00-.42-.24z" fill="#FDD835"/><path d="M207.87 83.34a7.01 7.01 0 100-14.02 7.01 7.01 0 000 14.02zm502.16 87.58a7.01 7.01 0 100-14.02 7.01 7.01 0 000 14.02z" fill="#F55F44"/><path d="M670.33 379.96a7.01 7.01 0 100-14.02 7.01 7.01 0 000 14.02z" fill="#4D8AF0"/><path d="M722.777 510.619c.206 111.295-90.559 202.303-201.855 202.381-52.14.037-99.674-19.681-135.53-52.082-4.152-3.751-4.317-10.216-.361-14.172l13.814-13.815c3.689-3.689 9.592-3.794 13.484-.321 28.795 25.689 66.784 41.293 108.448 41.293 90.044 0 162.904-72.873 162.904-162.903 0-90.044-72.874-162.903-162.904-162.903-45.222 0-86.101 18.387-115.598 48.091l39.985 39.433c6.224 6.138 1.878 16.734-6.863 16.734H333.774c-5.398 0-9.774-4.377-9.774-9.774V339.498c0-8.675 10.461-13.051 16.637-6.959l36.733 36.224C413.967 331.861 464.698 309 520.777 309c111.435 0 201.794 90.233 202 201.619zm-136.071 73.447l11.498-15.809c3.175-4.366 2.209-10.479-2.156-13.654l-55.722-40.526V396.968c0-5.398-4.377-9.774-9.775-9.774h-19.548c-5.398 0-9.774 4.376-9.774 9.774v137.019l71.823 52.235c4.366 3.174 10.479 2.209 13.654-2.156z" fill="#B3B3B3" fill-opacity=".15"/><path d="M732.777 500.619c.206 111.295-90.559 202.303-201.855 202.381-52.14.037-99.674-19.681-135.53-52.082-4.152-3.751-4.317-10.216-.361-14.172l13.814-13.815c3.689-3.689 9.592-3.794 13.484-.321 28.795 25.689 66.784 41.293 108.448 41.293 90.044 0 162.904-72.873 162.904-162.903 0-90.044-72.874-162.903-162.904-162.903-45.222 0-86.101 18.387-115.598 48.091l39.985 39.433c6.224 6.138 1.878 16.734-6.863 16.734H343.774c-5.398 0-9.774-4.377-9.774-9.774V329.498c0-8.675 10.461-13.051 16.637-6.959l36.733 36.224C423.967 321.861 474.698 299 530.777 299c111.435 0 201.794 90.233 202 201.619zm-136.071 73.447l11.498-15.809c3.175-4.366 2.209-10.479-2.156-13.654l-55.722-40.526V386.968c0-5.398-4.377-9.774-9.775-9.774h-19.548c-5.398 0-9.774 4.376-9.774 9.774v137.019l71.823 52.235c4.366 3.174 10.479 2.209 13.654-2.156z" fill="url(#paint16_linear)"/><defs><linearGradient id="paint1_linear" x1="155.32" y1="184.93" x2="155.32" y2="189.6" gradientUnits="userSpaceOnUse"><stop stop-color="#F7A248"/><stop offset=".766" stop-color="#EC4C47"/></linearGradient><linearGradient id="paint8_linear" x1="340258" y1="417950" x2="392931" y2="152903" gradientUnits="userSpaceOnUse"><stop stop-color="gray" stop-opacity=".25"/><stop offset=".54" stop-color="gray" stop-opacity=".12"/><stop offset="1" stop-color="gray" stop-opacity=".1"/></linearGradient><linearGradient id="paint2_linear" x1="43668.3" y1="66215.2" x2="43668.3" y2="40242.6" gradientUnits="userSpaceOnUse"><stop stop-color="gray" stop-opacity=".25"/><stop offset=".54" stop-color="gray" stop-opacity=".12"/><stop offset="1" stop-color="gray" stop-opacity=".1"/></linearGradient><linearGradient id="paint3_linear" x1="40101.6" y1="36561.4" x2="40101.6" y2="26475.2" gradientUnits="userSpaceOnUse"><stop stop-color="gray" stop-opacity=".25"/><stop offset=".54" stop-color="gray" stop-opacity=".12"/><stop offset="1" stop-color="gray" stop-opacity=".1"/></linearGradient><linearGradient id="paint4_linear" x1="174.585" y1="274.86" x2="174.585" y2="375.29" gradientUnits="userSpaceOnUse"><stop stop-color="#F7A248"/><stop offset=".766" stop-color="#EC4C47"/></linearGradient><linearGradient id="paint5_linear" x1="105.1" y1="266.68" x2="105.1" y2="287.7" gradientUnits="userSpaceOnUse"><stop stop-color="#F7A248"/><stop offset=".766" stop-color="#EC4C47"/></linearGradient><linearGradient id="paint6_linear" x1="43668.3" y1="99735.3" x2="43668.3" y2="73762.7" gradientUnits="userSpaceOnUse"><stop stop-color="gray" stop-opacity=".25"/><stop offset=".54" stop-color="gray" stop-opacity=".12"/><stop offset="1" stop-color="gray" stop-opacity=".1"/></linearGradient><linearGradient id="paint7_linear" x1="40101.6" y1="57528" x2="40101.6" y2="47441.9" gradientUnits="userSpaceOnUse"><stop stop-color="gray" stop-opacity=".25"/><stop offset=".54" stop-color="gray" stop-opacity=".12"/><stop offset="1" stop-color="gray" stop-opacity=".1"/></linearGradient><linearGradient id="paint0_linear" x1="265.09" y1="733.81" x2="265.09" y2="131.21" gradientUnits="userSpaceOnUse"><stop stop-color="gray" stop-opacity=".25"/><stop offset=".54" stop-color="gray" stop-opacity=".12"/><stop offset="1" stop-color="gray" stop-opacity=".1"/></linearGradient><linearGradient id="paint9_linear" x1="201.041" y1="637.396" x2="200.131" y2="641.976" gradientUnits="userSpaceOnUse"><stop stop-color="#F7A248"/><stop offset=".766" stop-color="#EC4C47"/></linearGradient><linearGradient id="paint10_linear" x1="324.391" y1="184.451" x2="323.481" y2="189.031" gradientUnits="userSpaceOnUse"><stop stop-color="#F7A248"/><stop offset=".766" stop-color="#EC4C47"/></linearGradient><linearGradient id="paint11_linear" x1="76838.3" y1="175972" x2="85406.2" y2="132858" gradientUnits="userSpaceOnUse"><stop stop-color="gray" stop-opacity=".25"/><stop offset=".54" stop-color="gray" stop-opacity=".12"/><stop offset="1" stop-color="gray" stop-opacity=".1"/></linearGradient><linearGradient id="paint12_linear" x1="301.864" y1="390.727" x2="279.783" y2="501.834" gradientUnits="userSpaceOnUse"><stop stop-color="#F7A248"/><stop offset=".766" stop-color="#EC4C47"/></linearGradient><linearGradient id="paint13_linear" x1="406.881" y1="485.422" x2="398.914" y2="525.508" gradientUnits="userSpaceOnUse"><stop stop-color="#F7A248"/><stop offset=".766" stop-color="#EC4C47"/></linearGradient><linearGradient id="paint14_linear" x1="393.21" y1="447.54" x2="393.21" y2="428.06" gradientUnits="userSpaceOnUse"><stop stop-opacity=".12"/><stop offset=".55" stop-opacity=".09"/><stop offset="1" stop-opacity=".02"/></linearGradient><linearGradient id="paint15_linear" x1="130628" y1="29246.4" x2="130628" y2="25696.6" gradientUnits="userSpaceOnUse"><stop stop-opacity=".12"/><stop offset=".55" stop-opacity=".09"/><stop offset="1" stop-opacity=".02"/></linearGradient><linearGradient id="paint16_linear" x1="533.389" y1="299" x2="533.389" y2="703" gradientUnits="userSpaceOnUse"><stop stop-color="#F7A248"/><stop offset=".766" stop-color="#EC4C47"/></linearGradient></defs></svg>