<svg width="718" height="779" viewBox="0 0 718 779" fill="none" xmlns="http://www.w3.org/2000/svg">
<g clip-path="url(#clip0_3512_3765)">
<g opacity="0.5">
<path opacity="0.5" d="M489.31 130.227H40.8701V732.827H489.31V130.227Z" fill="url(#paint0_linear_3512_3765)"/>
</g>
<path d="M481.14 138.407H46.71V719.987H481.14V138.407Z" fill="#F2F2F2"/>
<path d="M230.06 162.927H80.5801V167.597H230.06V162.927Z" fill="#E0E0E0"/>
<path d="M401.73 162.927H252.25V167.597H401.73V162.927Z" fill="#E0E0E0"/>
<path d="M425.08 296.067H275.6V300.737H425.08V296.067Z" fill="#E0E0E0"/>
<path d="M428.59 308.907H279.11V313.577H428.59V308.907Z" fill="#E0E0E0"/>
<path d="M435.6 321.757H286.12V326.427H435.6V321.757Z" fill="#E0E0E0"/>
<path d="M425.08 502.767H275.6V507.437H425.08V502.767Z" fill="#E0E0E0"/>
<path d="M428.59 515.617H279.11V520.287H428.59V515.617Z" fill="#E0E0E0"/>
<path d="M435.6 528.457H286.12V533.127H435.6V528.457Z" fill="#E0E0E0"/>
<g opacity="0.5">
<path opacity="0.5" d="M240.57 248.177H81.75V409.337H240.57V248.177Z" fill="url(#paint1_linear_3512_3765)"/>
</g>
<path d="M239.07 251.687H82.75V405.837H239.07V251.687Z" fill="#F5F5F5"/>
<g opacity="0.5">
<path opacity="0.5" d="M234.06 261.027H88.2598V361.457H234.06V261.027Z" fill="url(#paint2_linear_3512_3765)"/>
</g>
<path d="M233.05 262.197H89.2598V359.127H233.05V262.197Z" fill="white"/>
<g opacity="0.5">
<path opacity="0.5" d="M240.57 454.887H81.75V616.047H240.57V454.887Z" fill="url(#paint3_linear_3512_3765)"/>
</g>
<path d="M239.07 458.387H82.75V612.537H239.07V458.387Z" fill="#F5F5F5"/>
<g opacity="0.5">
<path opacity="0.5" d="M234.06 467.737H88.2598V568.167H234.06V467.737Z" fill="url(#paint4_linear_3512_3765)"/>
</g>
<path d="M233.05 468.897H89.2598V565.827H233.05V468.897Z" fill="white"/>
<path opacity="0.4" d="M77.0699 562.327L113.28 506.267L128.46 530.797L161.16 496.927L189.19 530.797L213.71 480.577L276.77 581.007L72.3999 574.007L77.0699 562.327Z" fill="#BDBDBD"/>
<path opacity="0.4" d="M105.1 493.427C110.904 493.427 115.61 488.721 115.61 482.917C115.61 477.112 110.904 472.407 105.1 472.407C99.2953 472.407 94.5898 477.112 94.5898 482.917C94.5898 488.721 99.2953 493.427 105.1 493.427Z" fill="#BDBDBD"/>
<g opacity="0.5">
<path opacity="0.5" d="M224.164 100.453L106.706 691.495L546.544 778.905L664.002 187.863L224.164 100.453Z" fill="url(#paint5_linear_3512_3765)"/>
</g>
<path opacity="0.4" d="M77.0699 355.627L113.28 299.567L128.46 324.087L161.16 290.227L189.19 324.087L213.71 273.877L276.77 374.307L72.3999 367.297L77.0699 355.627Z" fill="url(#paint6_linear_3512_3765)"/>
<path d="M228.295 109.612L114.934 680.037L541.031 764.716L654.392 194.291L228.295 109.612Z" fill="white"/>
<path d="M556.435 202.19L254.039 142.094L253.129 146.674L555.525 206.77L556.435 202.19Z" fill="#E0E0E0"/>
<path d="M470.392 635.17L167.996 575.075L167.085 579.655L469.482 639.751L470.392 635.17Z" fill="#E0E0E0"/>
<path d="M396.421 647.847L162.75 601.41L161.84 605.99L395.511 652.428L396.421 647.847Z" fill="#E0E0E0"/>
<path d="M516.18 248.962L243.571 194.786L242.661 199.366L515.269 253.542L516.18 248.962Z" fill="#E0E0E0"/>
<path opacity="0.7" d="M304.761 234.338L238.331 221.136L237.42 225.716L303.851 238.918L304.761 234.338Z" fill="#3AD29F"/>
<path d="M535.497 307.577L233.1 247.481L232.19 252.062L534.586 312.157L535.497 307.577Z" fill="#E0E0E0"/>
<g opacity="0.5">
<path opacity="0.5" d="M259.743 358.761L228.786 514.535L500.247 568.482L531.205 412.709L259.743 358.761Z" fill="url(#paint7_linear_3512_3765)"/>
</g>
<path d="M529.31 413.513L261.281 360.247L231.006 512.588L499.035 565.853L529.31 413.513Z" fill="white"/>
<path d="M530.261 333.93L227.865 273.834L226.954 278.415L529.351 338.51L530.261 333.93Z" fill="#E0E0E0"/>
<path d="M370.749 441.537L337.529 434.935L322.732 509.389L355.953 515.991L370.749 441.537Z" fill="#3AD29F"/>
<path d="M423.491 487.739L390.271 481.137L382.304 521.223L415.525 527.825L423.491 487.739Z" fill="#F55F44"/>
<path d="M491.248 458.339L458.028 451.737L441.865 533.067L475.085 539.669L491.248 458.339Z" fill="#FDD835"/>
<path d="M393.21 427.077C380.67 427.077 380.65 446.567 393.21 446.567C405.77 446.567 405.77 427.077 393.21 427.077Z" fill="url(#paint8_linear_3512_3765)"/>
<path d="M480.62 364.647C446.87 363.887 416.16 380.817 399.83 406.377C394.5 414.717 409.63 422.087 414.93 413.787C428.45 392.627 454.14 379.187 481.93 379.887C511.05 380.617 537.55 397.277 551.58 420.397C556.9 429.167 570.85 421.197 565.58 412.477C548.52 384.477 515.48 365.477 480.62 364.647Z" fill="url(#paint9_linear_3512_3765)"/>
<path opacity="0.7" d="M230.06 183.947H80.5801V188.617H230.06V183.947Z" fill="url(#paint10_linear_3512_3765)"/>
<path opacity="0.4" d="M105.1 286.717C110.904 286.717 115.61 282.011 115.61 276.207C115.61 270.402 110.904 265.697 105.1 265.697C99.2953 265.697 94.5898 270.402 94.5898 276.207C94.5898 282.011 99.2953 286.717 105.1 286.717Z" fill="url(#paint11_linear_3512_3765)"/>
<path opacity="0.7" d="M244.565 645.062L157.517 627.763L156.607 632.343L243.655 649.642L244.565 645.062Z" fill="url(#paint12_linear_3512_3765)"/>
<path opacity="0.7" d="M399.988 198.491L248.795 168.444L247.885 173.024L399.078 203.071L399.988 198.491Z" fill="url(#paint13_linear_3512_3765)"/>
<path d="M318.474 393.044L285.253 386.442L263.173 497.55L296.393 504.151L318.474 393.044Z" fill="url(#paint14_linear_3512_3765)"/>
<path d="M405.44 421.147C392.9 421.147 392.88 440.637 405.44 440.637C418 440.637 418 421.147 405.44 421.147Z" fill="url(#paint15_linear_3512_3765)"/>
<path d="M11.6699 663.927H8.16992V683.777H11.6699V663.927Z" fill="#47E6B1"/>
<path d="M19.8501 675.597V672.097H0.00012207V675.597H19.8501Z" fill="#47E6B1"/>
<path d="M458.59 7.96671C457.624 7.54618 456.846 6.78471 456.405 5.8275C455.964 4.87029 455.891 3.78433 456.2 2.77671C456.249 2.62084 456.279 2.45971 456.29 2.29671C456.322 1.83328 456.202 1.37205 455.95 0.982057C455.698 0.592062 455.326 0.294277 454.89 0.133276C454.454 -0.0277255 453.978 -0.0432841 453.533 0.0889297C453.088 0.221144 452.697 0.494017 452.42 0.866708C452.324 0.996797 452.243 1.13777 452.18 1.28671C451.759 2.25299 450.998 3.03069 450.041 3.47148C449.084 3.91228 447.998 3.98533 446.99 3.67671C446.834 3.62778 446.673 3.59757 446.51 3.58671C446.043 3.55299 445.578 3.67263 445.185 3.92744C444.792 4.18225 444.493 4.5583 444.334 4.99847C444.174 5.43863 444.163 5.91884 444.301 6.36614C444.439 6.81344 444.72 7.20338 445.1 7.47671C445.23 7.57293 445.371 7.65348 445.52 7.71671C446.486 8.13723 447.264 8.89871 447.705 9.85591C448.146 10.8131 448.219 11.8991 447.91 12.9067C447.861 13.0626 447.831 13.2237 447.82 13.3867C447.783 13.8564 447.901 14.3254 448.156 14.7215C448.411 15.1176 448.789 15.419 449.232 15.5792C449.675 15.7394 450.159 15.7496 450.608 15.6082C451.058 15.4668 451.448 15.1817 451.72 14.7967C451.816 14.6666 451.897 14.5257 451.96 14.3767C452.38 13.4104 453.142 12.6327 454.099 12.1919C455.056 11.7511 456.142 11.6781 457.15 11.9867C457.306 12.0356 457.467 12.0658 457.63 12.0767C458.093 12.1084 458.555 11.9892 458.945 11.7368C459.335 11.4845 459.632 11.1126 459.793 10.6769C459.954 10.2412 459.97 9.76506 459.838 9.31977C459.706 8.87447 459.433 8.48397 459.06 8.20671C458.914 8.10689 458.756 8.02623 458.59 7.96671Z" fill="#4D8AF0"/>
<path d="M24.1599 155.117C23.1936 154.696 22.4159 153.935 21.9751 152.978C21.5343 152.02 21.4613 150.934 21.7699 149.927C21.8188 149.771 21.8491 149.61 21.8599 149.447C21.8916 148.983 21.7724 148.522 21.52 148.132C21.2677 147.742 20.8958 147.444 20.4601 147.283C20.0244 147.122 19.5483 147.107 19.103 147.239C18.6577 147.371 18.2672 147.644 17.9899 148.017C17.8937 148.147 17.8131 148.288 17.7499 148.437C17.3294 149.403 16.5679 150.181 15.6107 150.622C14.6535 151.062 13.5675 151.135 12.5599 150.827C12.404 150.778 12.2429 150.748 12.0799 150.737C11.6165 150.705 11.1553 150.824 10.7653 151.077C10.3753 151.329 10.0775 151.701 9.91648 152.137C9.75548 152.572 9.73992 153.048 9.87213 153.494C10.0043 153.939 10.2772 154.329 10.6499 154.607C10.78 154.703 10.921 154.784 11.0699 154.847C12.0362 155.267 12.8139 156.029 13.2547 156.986C13.6955 157.943 13.7685 159.029 13.4599 160.037C13.411 160.193 13.3808 160.354 13.3699 160.517C13.3382 160.98 13.4574 161.441 13.7098 161.831C13.9621 162.221 14.334 162.519 14.7697 162.68C15.2054 162.841 15.6816 162.857 16.1269 162.725C16.5722 162.592 16.9626 162.319 17.2399 161.947C17.3361 161.817 17.4167 161.676 17.4799 161.527C17.9004 160.56 18.6619 159.783 19.6191 159.342C20.5763 158.901 21.6623 158.828 22.6699 159.137C22.8258 159.186 22.9869 159.216 23.1499 159.227C23.6133 159.258 24.0746 159.139 24.4646 158.887C24.8546 158.635 25.1524 158.263 25.3134 157.827C25.4744 157.391 25.4899 156.915 25.3577 156.47C25.2255 156.024 24.9526 155.634 24.5799 155.357C24.4498 155.261 24.3089 155.18 24.1599 155.117Z" fill="#FDD835"/>
<path d="M641.94 762.377C640.974 761.956 640.196 761.195 639.755 760.238C639.315 759.28 639.242 758.194 639.55 757.187C639.599 757.031 639.629 756.87 639.64 756.707C639.672 756.243 639.553 755.782 639.3 755.392C639.048 755.002 638.676 754.704 638.24 754.543C637.805 754.382 637.329 754.367 636.883 754.499C636.438 754.631 636.047 754.904 635.77 755.277C635.674 755.407 635.593 755.548 635.53 755.697C635.11 756.663 634.348 757.441 633.391 757.882C632.434 758.322 631.348 758.395 630.34 758.087C630.184 758.038 630.023 758.008 629.86 757.997C629.397 757.965 628.935 758.084 628.545 758.337C628.155 758.589 627.858 758.961 627.697 759.397C627.536 759.832 627.52 760.308 627.652 760.754C627.785 761.199 628.058 761.589 628.43 761.867C628.56 761.963 628.701 762.044 628.85 762.107C629.816 762.527 630.594 763.289 631.035 764.246C631.476 765.203 631.549 766.289 631.24 767.297C631.191 767.453 631.161 767.614 631.15 767.777C631.118 768.24 631.238 768.701 631.49 769.091C631.742 769.481 632.114 769.779 632.55 769.94C632.986 770.101 633.462 770.117 633.907 769.984C634.352 769.852 634.743 769.579 635.02 769.207C635.116 769.077 635.197 768.936 635.26 768.787C635.681 767.82 636.442 767.043 637.399 766.602C638.357 766.161 639.443 766.088 640.45 766.397C640.606 766.446 640.767 766.476 640.93 766.487C641.394 766.518 641.855 766.399 642.245 766.147C642.635 765.895 642.933 765.523 643.094 765.087C643.255 764.651 643.27 764.175 643.138 763.73C643.006 763.284 642.733 762.894 642.36 762.617C642.23 762.521 642.089 762.44 641.94 762.377Z" fill="#FDD835"/>
<path d="M207.87 82.3567C211.741 82.3567 214.88 79.2182 214.88 75.3467C214.88 71.4752 211.741 68.3367 207.87 68.3367C203.998 68.3367 200.86 71.4752 200.86 75.3467C200.86 79.2182 203.998 82.3567 207.87 82.3567Z" fill="#F55F44"/>
<path d="M710.03 169.937C713.902 169.937 717.04 166.798 717.04 162.927C717.04 159.055 713.902 155.917 710.03 155.917C706.159 155.917 703.02 159.055 703.02 162.927C703.02 166.798 706.159 169.937 710.03 169.937Z" fill="#F55F44"/>
<path d="M670.33 378.977C674.201 378.977 677.34 375.838 677.34 371.967C677.34 368.095 674.201 364.957 670.33 364.957C666.458 364.957 663.32 368.095 663.32 371.967C663.32 375.838 666.458 378.977 670.33 378.977Z" fill="#4D8AF0"/>
<path d="M604 370C604 356.234 592.766 345 579 345C565.234 345 554 356.234 554 370V445H604V370ZM641.5 469.297H366.5C359.566 469.297 354 474.863 354 481.797V506.797C354 513.73 359.566 519.297 366.5 519.297H379V545C379 604.375 420.797 655.625 479 667.5V745H529V667.461C587.203 655.625 629 604.375 629 545V519.297H641.5C648.434 519.297 654 513.73 654 506.797V481.797C654 475.547 648.453 469.297 641.5 469.297ZM454 370C454 356.234 442.766 345 429 345C415.234 345 404 356.234 404 370V445H454V370Z" fill="url(#paint16_linear_3512_3765)"/>
</g>
<defs>
<linearGradient id="paint0_linear_3512_3765" x1="265.09" y1="732.827" x2="265.09" y2="130.227" gradientUnits="userSpaceOnUse">
<stop stop-color="#808080" stop-opacity="0.25"/>
<stop offset="0.54" stop-color="#808080" stop-opacity="0.12"/>
<stop offset="1" stop-color="#808080" stop-opacity="0.1"/>
</linearGradient>
<linearGradient id="paint1_linear_3512_3765" x1="43668.3" y1="66214.2" x2="43668.3" y2="40241.6" gradientUnits="userSpaceOnUse">
<stop stop-color="#808080" stop-opacity="0.25"/>
<stop offset="0.54" stop-color="#808080" stop-opacity="0.12"/>
<stop offset="1" stop-color="#808080" stop-opacity="0.1"/>
</linearGradient>
<linearGradient id="paint2_linear_3512_3765" x1="40101.6" y1="36560.4" x2="40101.6" y2="26474.3" gradientUnits="userSpaceOnUse">
<stop stop-color="#808080" stop-opacity="0.25"/>
<stop offset="0.54" stop-color="#808080" stop-opacity="0.12"/>
<stop offset="1" stop-color="#808080" stop-opacity="0.1"/>
</linearGradient>
<linearGradient id="paint3_linear_3512_3765" x1="43668.3" y1="99734.3" x2="43668.3" y2="73761.8" gradientUnits="userSpaceOnUse">
<stop stop-color="#808080" stop-opacity="0.25"/>
<stop offset="0.54" stop-color="#808080" stop-opacity="0.12"/>
<stop offset="1" stop-color="#808080" stop-opacity="0.1"/>
</linearGradient>
<linearGradient id="paint4_linear_3512_3765" x1="40101.6" y1="57527.1" x2="40101.6" y2="47440.9" gradientUnits="userSpaceOnUse">
<stop stop-color="#808080" stop-opacity="0.25"/>
<stop offset="0.54" stop-color="#808080" stop-opacity="0.12"/>
<stop offset="1" stop-color="#808080" stop-opacity="0.1"/>
</linearGradient>
<linearGradient id="paint5_linear_3512_3765" x1="340258" y1="417949" x2="392931" y2="152902" gradientUnits="userSpaceOnUse">
<stop stop-color="#808080" stop-opacity="0.25"/>
<stop offset="0.54" stop-color="#808080" stop-opacity="0.12"/>
<stop offset="1" stop-color="#808080" stop-opacity="0.1"/>
</linearGradient>
<linearGradient id="paint6_linear_3512_3765" x1="174.585" y1="273.877" x2="174.585" y2="374.307" gradientUnits="userSpaceOnUse">
<stop stop-color="#CE5AFF"/>
<stop offset="1" stop-color="#7C64BD"/>
</linearGradient>
<linearGradient id="paint7_linear_3512_3765" x1="76838.3" y1="175971" x2="85406.2" y2="132857" gradientUnits="userSpaceOnUse">
<stop stop-color="#808080" stop-opacity="0.25"/>
<stop offset="0.54" stop-color="#808080" stop-opacity="0.12"/>
<stop offset="1" stop-color="#808080" stop-opacity="0.1"/>
</linearGradient>
<linearGradient id="paint8_linear_3512_3765" x1="393.21" y1="446.557" x2="393.21" y2="427.077" gradientUnits="userSpaceOnUse">
<stop stop-opacity="0.12"/>
<stop offset="0.55" stop-opacity="0.09"/>
<stop offset="1" stop-opacity="0.02"/>
</linearGradient>
<linearGradient id="paint9_linear_3512_3765" x1="130628" y1="29245.4" x2="130628" y2="25695.6" gradientUnits="userSpaceOnUse">
<stop stop-opacity="0.12"/>
<stop offset="0.55" stop-opacity="0.09"/>
<stop offset="1" stop-opacity="0.02"/>
</linearGradient>
<linearGradient id="paint10_linear_3512_3765" x1="155.32" y1="183.947" x2="155.32" y2="188.617" gradientUnits="userSpaceOnUse">
<stop stop-color="#CE5AFF"/>
<stop offset="1" stop-color="#7C64BD"/>
</linearGradient>
<linearGradient id="paint11_linear_3512_3765" x1="105.1" y1="265.697" x2="105.1" y2="286.717" gradientUnits="userSpaceOnUse">
<stop stop-color="#CE5AFF"/>
<stop offset="1" stop-color="#7C64BD"/>
</linearGradient>
<linearGradient id="paint12_linear_3512_3765" x1="201.041" y1="636.412" x2="200.131" y2="640.993" gradientUnits="userSpaceOnUse">
<stop stop-color="#CE5AFF"/>
<stop offset="1" stop-color="#7C64BD"/>
</linearGradient>
<linearGradient id="paint13_linear_3512_3765" x1="324.392" y1="183.467" x2="323.481" y2="188.048" gradientUnits="userSpaceOnUse">
<stop stop-color="#CE5AFF"/>
<stop offset="1" stop-color="#7C64BD"/>
</linearGradient>
<linearGradient id="paint14_linear_3512_3765" x1="301.864" y1="389.743" x2="279.783" y2="500.851" gradientUnits="userSpaceOnUse">
<stop stop-color="#CE5AFF"/>
<stop offset="1" stop-color="#7C64BD"/>
</linearGradient>
<linearGradient id="paint15_linear_3512_3765" x1="405.444" y1="421.147" x2="405.444" y2="440.637" gradientUnits="userSpaceOnUse">
<stop stop-color="#CE5AFF"/>
<stop offset="1" stop-color="#7C64BD"/>
</linearGradient>
<linearGradient id="paint16_linear_3512_3765" x1="504" y1="345" x2="504" y2="745" gradientUnits="userSpaceOnUse">
<stop stop-color="#CE5AFF"/>
<stop offset="1" stop-color="#7C64BD"/>
</linearGradient>
<clipPath id="clip0_3512_3765">
<rect width="717.04" height="778.905" fill="white"/>
</clipPath>
</defs>
</svg>
