<svg width="283" height="64" viewBox="0 0 283 64" fill="none" xmlns="http://www.w3.org/2000/svg">
<path d="M37 0L74 64H0L37 0ZM159.6 34C159.6 23.7 152 16.5 141.1 16.5C130.2 16.5 122.6 23.7 122.6 34C122.6 44.1 130.8 51.5 142.1 51.5C148.3 51.5 153.9 49.2 157.5 45L150.7 41.1C148.6 43.2 145.5 44.5 142.1 44.5C137.1 44.5 132.8 41.8 131.3 37.7L131 37H159.3C159.5 36 159.6 35 159.6 34ZM130.9 31L131.1 30.4C132.4 26.1 136.2 23.5 141 23.5C145.9 23.5 149.6 26.1 150.9 30.4L151.1 31H130.9ZM267.3 34C267.3 23.7 259.7 16.5 248.8 16.5C237.9 16.5 230.3 23.7 230.3 34C230.3 44.1 238.5 51.5 249.8 51.5C256 51.5 261.6 49.2 265.2 45L258.4 41.1C256.3 43.2 253.2 44.5 249.8 44.5C244.8 44.5 240.5 41.8 239 37.7L238.7 37H267C267.2 36 267.3 35 267.3 34ZM238.6 31L238.8 30.4C240.1 26.1 243.9 23.5 248.7 23.5C253.6 23.5 257.3 26.1 258.6 30.4L258.8 31H238.6ZM219.3 28.3L226.1 24.4C222.9 19.4 217.2 16.6 210.3 16.6C199.4 16.6 191.8 23.8 191.8 34.1C191.8 44.4 199.4 51.6 210.3 51.6C217.2 51.6 222.9 48.8 226.1 43.8L219.3 39.9C217.5 42.9 214.3 44.6 210.3 44.6C204 44.6 199.8 40.4 199.8 34.1C199.8 27.8 204 23.6 210.3 23.6C214.2 23.6 217.5 25.3 219.3 28.3ZM282.3 5.6H274.3V50.6H282.3V5.6ZM128.5 5.6H119.3L101.7 36L84.1 5.6H74.8L101.7 52L128.5 5.6ZM185.1 25.8C186 25.8 186.9 25.9 187.8 26.1V17.6C181 17.8 174.6 21.6 174.6 26.3V17.6H166.6V50.6H174.6V36.3C174.6 30.1 178.9 25.8 185.1 25.8Z" fill="black"/>
</svg>
