<svg width="24" height="24" viewBox="0 0 24 24" fill="none" xmlns="http://www.w3.org/2000/svg">
<path d="M23.8245 15.653L18.6977 6.97022C18.4626 6.57116 17.8833 6.24464 17.4104 6.24464H14.2097C13.4657 6.24464 13.1607 5.73173 13.5319 5.10482L15.287 2.13988C15.4264 1.90454 15.4261 1.61488 15.2862 1.37983C15.1464 1.14477 14.8884 1 14.6092 1H10.1441C9.67116 1 9.09058 1.32579 8.85393 1.72393L0.177602 16.3217C-0.0590538 16.7199 -0.0592297 17.3715 0.17725 17.7698L2.40972 21.5297C2.78169 22.1561 3.39173 22.1569 3.76528 21.5313L5.50971 18.6103C5.88327 17.9847 6.4933 17.9855 6.86527 18.6119L8.44675 21.2754C8.68317 21.6737 9.26369 21.9995 9.73659 21.9995H20.0544C20.5273 21.9995 21.1078 21.6737 21.3443 21.2754L23.8219 17.1028C24.0584 16.7045 24.0595 16.0522 23.8245 15.653ZM16.9008 15.2351C17.2704 15.8629 16.9642 16.3765 16.2202 16.3765H8.19478C7.45084 16.3765 7.14647 15.8639 7.51844 15.2375L11.5344 8.47417C11.9063 7.84771 12.515 7.84771 12.8869 8.47423L16.9008 15.2351Z" fill="#1e293b"/>
</svg>
