<?xml version="1.0" standalone="no"?>
<!DOCTYPE svg PUBLIC "-//W3C//DTD SVG 20010904//EN"
 "http://www.w3.org/TR/2001/REC-SVG-20010904/DTD/svg10.dtd">
<svg version="1.0" xmlns="http://www.w3.org/2000/svg"
 width="700.000000pt" height="700.000000pt" viewBox="0 0 700.000000 700.000000"
 preserveAspectRatio="xMidYMid meet">
<metadata>
Created by potrace 1.14, written by Peter Selinger 2001-2017
</metadata>
<g transform="translate(0.000000,700.000000) scale(0.100000,-0.100000)"
fill="#000000" stroke="none">
<path d="M0 3500 l0 -3500 3500 0 3500 0 0 3500 0 3500 -3500 0 -3500 0 0
-3500z m3924 1546 c44 -18 66 -52 66 -99 0 -31 -27 -84 -139 -280 -77 -133
-143 -254 -146 -270 -10 -39 11 -83 50 -101 27 -13 77 -16 290 -16 171 0 271
-4 298 -12 84 -25 103 -54 503 -753 368 -643 378 -662 382 -721 3 -46 -1 -72
-16 -106 -33 -75 -363 -641 -391 -671 -14 -16 -44 -39 -66 -50 -40 -22 -43
-22 -813 -25 -518 -2 -786 1 -812 8 -82 22 -114 60 -247 290 -68 118 -136 227
-150 243 -34 35 -90 37 -127 5 -14 -13 -88 -131 -164 -263 -225 -388 -216
-390 -478 61 l-179 309 0 80 0 80 634 1100 c349 605 646 1113 660 1128 27 30
68 55 111 68 14 4 177 8 363 8 268 1 345 -2 371 -13z"/>
<path d="M3490 4004 c-34 -21 -25 -6 -358 -585 -325 -563 -324 -561 -261 -613
l31 -26 633 0 633 0 32 27 c61 51 58 57 -274 633 -182 317 -310 528 -331 548
-38 35 -67 40 -105 16z"/>
</g>
</svg>
