<svg width="378" height="139" fill="none" xmlns="http://www.w3.org/2000/svg"><path d="M161.819 23V1.182h4.613v18.015h9.354V23h-13.967Zm35.423-14.18h-4.666a4.595 4.595 0 0 0-.522-1.608 4.097 4.097 0 0 0-1.013-1.215 4.439 4.439 0 0 0-1.427-.767 5.465 5.465 0 0 0-1.737-.266c-1.129 0-2.113.28-2.951.841-.838.554-1.488 1.364-1.949 2.43-.462 1.058-.693 2.343-.693 3.856 0 1.555.231 2.862.693 3.92.469 1.059 1.122 1.858 1.96 2.397.838.54 1.808.81 2.908.81.618 0 1.19-.082 1.716-.245a4.515 4.515 0 0 0 1.417-.714c.411-.32.752-.706 1.022-1.161.277-.454.469-.973.576-1.555l4.666.02a8.447 8.447 0 0 1-.906 2.899 8.703 8.703 0 0 1-1.928 2.482c-.803.724-1.761 1.3-2.876 1.726-1.108.419-2.362.628-3.761.628-1.946 0-3.686-.44-5.22-1.32-1.527-.881-2.735-2.156-3.622-3.825-.881-1.67-1.321-3.69-1.321-6.062 0-2.38.447-4.403 1.342-6.073.895-1.669 2.109-2.94 3.643-3.813 1.534-.881 3.26-1.321 5.178-1.321 1.264 0 2.436.177 3.515.532a8.925 8.925 0 0 1 2.888 1.556 8.007 8.007 0 0 1 2.045 2.482c.533.98.874 2.102 1.023 3.366ZM200.55 23V1.182h8.608c1.654 0 3.064.316 4.229.948 1.165.625 2.053 1.495 2.663 2.61.618 1.108.927 2.386.927 3.835 0 1.45-.312 2.728-.937 3.836-.625 1.107-1.531 1.97-2.717 2.588-1.179.618-2.606.927-4.283.927h-5.486V12.23h4.741c.887 0 1.619-.152 2.194-.458.583-.312 1.016-.742 1.3-1.289.291-.554.437-1.19.437-1.907 0-.724-.146-1.356-.437-1.896a2.914 2.914 0 0 0-1.3-1.268c-.582-.305-1.321-.458-2.216-.458h-3.11V23h-4.613Z" fill="#3A82F6"/><path d="M102.773 43.545h2.096l2.807 6.851h.11l2.807-6.85h2.096V53h-1.643v-6.495h-.088l-2.613 6.467h-1.228l-2.613-6.481h-.088V53h-1.643v-9.455ZM114.554 53v-9.455h6.149v1.436h-4.436v2.567h4.118v1.436h-4.118v2.58h4.473V53h-6.186Zm9.111 0h-1.828l3.328-9.455h2.114L130.613 53h-1.829l-2.525-7.516h-.074L123.665 53Zm.06-3.707h4.986v1.376h-4.986v-1.376Zm13.119-3.148a1.26 1.26 0 0 0-.545-.942c-.317-.225-.73-.337-1.237-.337-.357 0-.664.054-.919.161a1.36 1.36 0 0 0-.586.439 1.062 1.062 0 0 0-.208.632c0 .197.045.368.134.513.092.144.217.268.374.37.157.098.331.18.521.248.191.068.384.125.577.171l.887.222c.357.083.7.195 1.029.337.333.141.63.32.891.535.265.216.474.476.628.78.154.305.231.662.231 1.072 0 .554-.142 1.041-.425 1.463-.283.419-.692.746-1.228.983-.532.234-1.177.351-1.934.351-.736 0-1.374-.114-1.916-.342-.538-.227-.96-.56-1.265-.997-.301-.437-.465-.97-.489-1.597h1.685c.024.33.126.603.305.822.178.218.41.381.697.49.289.107.612.16.969.16.373 0 .699-.055.979-.166.283-.113.505-.27.665-.47.16-.203.241-.44.244-.711a.901.901 0 0 0-.217-.61 1.586 1.586 0 0 0-.595-.406 5.757 5.757 0 0 0-.887-.295l-1.075-.277c-.779-.2-1.394-.504-1.847-.91-.449-.41-.674-.952-.674-1.63 0-.556.151-1.044.453-1.463a2.985 2.985 0 0 1 1.241-.974c.524-.234 1.116-.35 1.778-.35.671 0 1.258.116 1.763.35.508.23.907.552 1.196.965.289.41.438.88.448 1.413h-1.648Zm9.264-2.6h1.712v6.177c0 .677-.16 1.273-.48 1.787a3.245 3.245 0 0 1-1.338 1.205c-.576.286-1.248.43-2.018.43-.772 0-1.446-.144-2.022-.43a3.248 3.248 0 0 1-1.339-1.205c-.317-.514-.475-1.11-.475-1.787v-6.177h1.713v6.034c0 .394.086.745.258 1.053.176.308.422.55.739.724.317.173.692.26 1.126.26.434 0 .81-.087 1.127-.26.32-.175.566-.416.738-.724a2.11 2.11 0 0 0 .259-1.053v-6.034ZM149.682 53v-9.455h3.545c.727 0 1.336.127 1.829.379.495.252.869.606 1.121 1.062.256.452.384.98.384 1.583 0 .606-.13 1.133-.388 1.58a2.566 2.566 0 0 1-1.131 1.029c-.499.24-1.111.36-1.838.36h-2.525v-1.422h2.295c.424 0 .772-.059 1.043-.176a1.24 1.24 0 0 0 .6-.521c.132-.231.199-.514.199-.85a1.74 1.74 0 0 0-.199-.858 1.26 1.26 0 0 0-.605-.545c-.271-.126-.62-.19-1.048-.19h-1.569V53h-1.713Zm4.884-4.284L156.907 53h-1.911l-2.299-4.284h1.869ZM158.137 53v-9.455h6.149v1.436h-4.436v2.567h4.118v1.436h-4.118v2.58h4.473V53h-6.186Zm13.035-6.855a1.26 1.26 0 0 0-.545-.942c-.317-.225-.729-.337-1.237-.337-.357 0-.663.054-.919.161a1.36 1.36 0 0 0-.586.439 1.062 1.062 0 0 0-.208.632c0 .197.045.368.134.513.092.144.217.268.374.37.157.098.331.18.522.248.19.068.383.125.577.171l.886.222c.357.083.7.195 1.029.337.333.141.63.32.891.535.265.216.474.476.628.78.154.305.231.662.231 1.072 0 .554-.141 1.041-.425 1.463-.283.419-.692.746-1.228.983-.532.234-1.177.351-1.934.351-.735 0-1.374-.114-1.916-.342-.538-.227-.96-.56-1.265-.997-.301-.437-.464-.97-.489-1.597h1.685c.025.33.126.603.305.822.178.218.411.381.697.49.289.107.612.16.969.16.373 0 .699-.055.979-.166.283-.113.505-.27.665-.47.16-.203.241-.44.244-.711a.901.901 0 0 0-.217-.61 1.586 1.586 0 0 0-.595-.406 5.742 5.742 0 0 0-.886-.295l-1.076-.277c-.779-.2-1.394-.504-1.847-.91-.449-.41-.674-.952-.674-1.63 0-.556.151-1.044.453-1.463.304-.418.718-.743 1.242-.974.523-.234 1.115-.35 1.777-.35.671 0 1.259.116 1.763.35.508.23.907.552 1.196.965.289.41.439.88.448 1.413h-1.648Z" fill="#A0A0A7"/><path d="M180.599 53v-9.455h3.73c.717 0 1.328.137 1.832.411.505.271.89.648 1.155 1.131.267.48.401 1.034.401 1.662 0 .628-.135 1.182-.406 1.662s-.663.854-1.177 1.122c-.511.268-1.13.402-1.856.402H181.9v-1.602h2.055c.384 0 .701-.066.951-.199.252-.135.44-.321.563-.558.126-.24.189-.516.189-.827 0-.314-.063-.588-.189-.821a1.265 1.265 0 0 0-.563-.55c-.253-.132-.573-.198-.96-.198h-1.348V53h-1.999Zm8.954 0h-2.142l3.264-9.455h2.576L196.51 53h-2.142L192 45.706h-.074L189.553 53Zm-.133-3.716h5.059v1.56h-5.059v-1.56Zm14.053-2.682a2.055 2.055 0 0 0-.272-.596 1.847 1.847 0 0 0-1.002-.725 2.419 2.419 0 0 0-.706-.097c-.483 0-.908.12-1.274.36-.364.24-.647.59-.85 1.048-.203.456-.305 1.013-.305 1.672 0 .658.101 1.218.301 1.68.2.462.483.814.849 1.057.366.24.799.36 1.297.36.453 0 .839-.08 1.159-.24.323-.163.569-.392.739-.688.172-.295.258-.645.258-1.048l.406.06h-2.437V47.94h3.956v1.191c0 .831-.175 1.545-.526 2.142a3.585 3.585 0 0 1-1.45 1.376c-.615.32-1.32.48-2.114.48-.886 0-1.665-.195-2.336-.586a4.074 4.074 0 0 1-1.57-1.676c-.372-.726-.558-1.588-.558-2.585 0-.766.111-1.45.332-2.05a4.387 4.387 0 0 1 .942-1.532 4.072 4.072 0 0 1 1.408-.956 4.563 4.563 0 0 1 1.74-.328c.536 0 1.035.079 1.496.236a3.98 3.98 0 0 1 1.228.655c.36.283.654.62.882 1.011.228.388.374.816.438 1.284h-2.031ZM207.094 53v-9.455h6.37v1.648h-4.371v2.253h4.044v1.648h-4.044v2.258h4.39V53h-6.389Zm10.968 0v-9.455h1.999v7.807h4.054V53h-6.053Zm15.696-4.727c0 1.03-.195 1.908-.586 2.631-.388.723-.917 1.276-1.588 1.657-.668.379-1.419.568-2.253.568-.84 0-1.594-.19-2.262-.572-.668-.382-1.195-.934-1.583-1.657-.388-.724-.582-1.6-.582-2.627 0-1.031.194-1.908.582-2.632.388-.723.915-1.274 1.583-1.652.668-.382 1.422-.573 2.262-.573.834 0 1.585.191 2.253.573.671.378 1.2.93 1.588 1.652.391.724.586 1.6.586 2.632Zm-2.026 0c0-.668-.1-1.231-.3-1.69-.197-.459-.476-.806-.836-1.043-.36-.237-.782-.356-1.265-.356-.483 0-.905.119-1.265.356-.36.237-.64.584-.84 1.043-.197.459-.295 1.022-.295 1.69 0 .668.098 1.23.295 1.69.2.458.48.806.84 1.043.36.237.782.355 1.265.355.483 0 .905-.118 1.265-.355.36-.237.639-.585.836-1.044.2-.458.3-1.021.3-1.69ZM236.336 53h-2.142l3.263-9.455h2.576l3.26 9.455h-2.142l-2.369-7.294h-.074L236.336 53Zm-.134-3.716h5.059v1.56h-5.059v-1.56ZM247.782 53h-3.351v-9.455h3.379c.951 0 1.77.19 2.456.568a3.83 3.83 0 0 1 1.583 1.62c.373.705.559 1.549.559 2.53 0 .985-.186 1.832-.559 2.54a3.838 3.838 0 0 1-1.592 1.63c-.69.378-1.515.567-2.475.567Zm-1.352-1.713h1.269c.591 0 1.088-.104 1.491-.314.406-.212.711-.54.914-.983.206-.446.31-1.022.31-1.727 0-.698-.104-1.269-.31-1.712a2.002 2.002 0 0 0-.909-.979c-.403-.21-.9-.314-1.491-.314h-1.274v6.03Zm9.458-7.742V53h-1.999v-9.455h1.999Zm9.552 0V53h-1.726l-4.114-5.95h-.069V53h-1.999v-9.455h1.754l4.081 5.947h.084v-5.947h1.989Zm7.921 3.057a2.081 2.081 0 0 0-.272-.596 1.841 1.841 0 0 0-1.002-.725 2.426 2.426 0 0 0-.707-.097c-.483 0-.907.12-1.274.36-.363.24-.646.59-.849 1.048-.203.456-.305 1.013-.305 1.672 0 .658.1 1.218.3 1.68.2.462.483.814.85 1.057.366.24.798.36 1.297.36.452 0 .839-.08 1.159-.24.323-.163.569-.392.738-.688.173-.295.259-.645.259-1.048l.406.06h-2.437V47.94h3.956v1.191c0 .831-.176 1.545-.526 2.142a3.585 3.585 0 0 1-1.45 1.376c-.615.32-1.32.48-2.114.48-.887 0-1.665-.195-2.336-.586a4.074 4.074 0 0 1-1.57-1.676c-.372-.726-.558-1.588-.558-2.585 0-.766.11-1.45.332-2.05a4.387 4.387 0 0 1 .942-1.532 4.062 4.062 0 0 1 1.408-.956 4.556 4.556 0 0 1 1.74-.328 4.62 4.62 0 0 1 1.496.236 3.98 3.98 0 0 1 1.228.655c.36.283.654.62.882 1.011.227.388.374.816.438 1.284h-2.031Z" fill="#1E1E2F"/><path d="M101.444 87v-1.33l3.106-2.876c.264-.256.486-.486.665-.69a2.59 2.59 0 0 0 .413-.601c.094-.199.141-.413.141-.644 0-.255-.058-.475-.175-.66a1.141 1.141 0 0 0-.477-.43 1.495 1.495 0 0 0-.686-.154c-.267 0-.5.054-.699.162a1.115 1.115 0 0 0-.46.465 1.505 1.505 0 0 0-.162.72h-1.752c0-.571.13-1.067.388-1.488.259-.42.621-.745 1.087-.975.466-.23 1.003-.346 1.611-.346.625 0 1.169.111 1.632.333.466.218.828.522 1.086.912.259.389.388.835.388 1.338 0 .33-.065.655-.196.976-.128.32-.356.677-.686 1.07-.329.389-.794.856-1.393 1.401l-1.274 1.249v.06h3.664V87h-6.221Zm8.636.11a.995.995 0 0 1-.724-.297.995.995 0 0 1-.298-.725c0-.278.099-.517.298-.716a.995.995 0 0 1 .724-.298c.273 0 .512.1.716.298a.961.961 0 0 1 .307.716c0 .188-.048.36-.145.516a1.096 1.096 0 0 1-.37.37.98.98 0 0 1-.508.137Zm5.614.01c-.603 0-1.139-.112-1.611-.333a2.807 2.807 0 0 1-1.117-.916 2.354 2.354 0 0 1-.43-1.338h1.79c.02.338.162.612.426.822.264.21.578.316.942.316.289 0 .545-.065.767-.192.224-.131.399-.311.524-.541.128-.234.192-.5.192-.802 0-.306-.066-.576-.196-.81a1.39 1.39 0 0 0-.533-.545 1.567 1.567 0 0 0-.78-.2c-.256 0-.504.052-.746.158a1.354 1.354 0 0 0-.558.43l-1.64-.294.413-4.602h5.335v1.508h-3.814l-.226 2.186h.051c.154-.216.385-.395.695-.537.31-.142.656-.213 1.04-.213.525 0 .994.124 1.406.371.412.247.737.587.976 1.019.239.428.356.923.354 1.483.002.588-.134 1.11-.409 1.568a2.885 2.885 0 0 1-1.147 1.073c-.488.26-1.057.388-1.704.388Zm12.787-4.799-1.662.102a.851.851 0 0 0-.183-.383.971.971 0 0 0-.371-.277 1.258 1.258 0 0 0-.541-.107c-.281 0-.519.06-.712.18-.193.116-.29.272-.29.468 0 .156.063.288.188.396.125.108.339.195.643.26l1.185.239c.636.13 1.111.34 1.423.63.313.29.469.671.469 1.143 0 .429-.126.805-.379 1.129-.25.324-.594.577-1.031.758-.435.18-.936.269-1.505.269-.866 0-1.556-.18-2.071-.541a2.11 2.11 0 0 1-.899-1.483l1.786-.094a.915.915 0 0 0 .392.605c.207.136.473.205.797.205.318 0 .574-.061.767-.184.196-.125.295-.285.298-.481a.5.5 0 0 0-.209-.405c-.136-.108-.346-.19-.631-.247l-1.133-.226c-.639-.128-1.115-.35-1.428-.665-.309-.315-.464-.717-.464-1.206 0-.42.114-.782.341-1.086.23-.304.552-.539.967-.703.418-.165.906-.248 1.466-.248.827 0 1.477.175 1.952.525.477.349.755.825.835 1.427Zm4.275 4.807c-.673 0-1.253-.136-1.738-.41a2.8 2.8 0 0 1-1.117-1.167c-.261-.505-.392-1.104-.392-1.794 0-.673.131-1.264.392-1.773a2.892 2.892 0 0 1 1.104-1.188c.477-.285 1.037-.427 1.679-.427.432 0 .834.07 1.206.21.375.136.701.342.98.617.281.276.5.622.656 1.04.156.415.234.9.234 1.457v.499h-5.527v-1.125h3.819c0-.262-.057-.493-.171-.695a1.215 1.215 0 0 0-.473-.473 1.348 1.348 0 0 0-.694-.175c-.276 0-.52.064-.733.192a1.345 1.345 0 0 0-.495.507c-.119.21-.18.445-.183.703v1.07c0 .324.06.604.179.84.122.235.294.417.516.545.221.128.484.192.788.192.202 0 .386-.029.554-.085a1.098 1.098 0 0 0 .703-.673l1.679.11c-.085.403-.26.756-.524 1.057a2.626 2.626 0 0 1-1.014.699c-.412.165-.888.247-1.428.247Zm7.147 0c-.671 0-1.248-.142-1.731-.426a2.885 2.885 0 0 1-1.108-1.194c-.255-.508-.383-1.093-.383-1.755 0-.67.129-1.259.388-1.764a2.879 2.879 0 0 1 1.112-1.19c.48-.286 1.051-.43 1.713-.43.571 0 1.071.104 1.5.311.429.208.768.499 1.018.874s.388.815.414 1.321h-1.713c-.049-.327-.176-.59-.384-.788-.204-.202-.473-.303-.805-.303-.281 0-.527.077-.737.23-.208.15-.37.37-.486.66-.117.29-.175.641-.175 1.053 0 .418.057.773.171 1.066.116.292.279.515.49.669.21.153.456.23.737.23.207 0 .393-.043.558-.128.168-.085.305-.209.413-.37.111-.166.184-.363.218-.593h1.713c-.029.5-.165.94-.409 1.32a2.477 2.477 0 0 1-1.002.887c-.426.213-.93.32-1.512.32ZM234.983 85.466v-1.453l3.644-5.74h1.253v2.011h-.742l-2.297 3.635v.068h5.178v1.479h-7.036ZM239.172 87v-1.977l.034-.644v-6.106h1.731V87h-1.765Zm4.99.11a.995.995 0 0 1-.724-.297.995.995 0 0 1-.298-.725c0-.278.099-.517.298-.716a.995.995 0 0 1 .724-.298c.273 0 .512.1.716.298a.961.961 0 0 1 .307.716c0 .188-.048.36-.145.516a1.096 1.096 0 0 1-.37.37.98.98 0 0 1-.508.137Zm5.567.082c-.733-.003-1.364-.183-1.892-.541-.526-.358-.931-.877-1.215-1.556-.281-.679-.42-1.496-.417-2.45 0-.952.14-1.763.422-2.433.284-.67.689-1.18 1.214-1.53.528-.353 1.158-.529 1.888-.529s1.358.176 1.883.529c.529.352.935.864 1.219 1.534.284.668.425 1.477.422 2.429 0 .957-.142 1.776-.426 2.454-.281.68-.685 1.198-1.21 1.556-.526.358-1.155.537-1.888.537Zm0-1.53c.5 0 .899-.252 1.197-.754.299-.503.446-1.257.443-2.263 0-.662-.068-1.213-.204-1.653-.134-.44-.324-.772-.571-.993a1.245 1.245 0 0 0-.865-.333c-.497 0-.895.249-1.193.746-.299.497-.449 1.241-.452 2.233 0 .67.067 1.23.2 1.679.137.446.328.781.576 1.005.247.222.536.333.869.333Zm13.08-3.341-1.662.102a.851.851 0 0 0-.183-.383.971.971 0 0 0-.371-.277 1.258 1.258 0 0 0-.541-.107c-.281 0-.518.06-.712.18-.193.116-.289.272-.289.468 0 .156.062.288.187.396.125.108.34.195.644.26l1.184.239c.637.13 1.111.34 1.424.63.312.29.468.671.468 1.143 0 .429-.126.805-.379 1.129-.25.324-.594.577-1.031.758-.435.18-.936.269-1.504.269-.867 0-1.557-.18-2.072-.541a2.11 2.11 0 0 1-.899-1.483l1.786-.094a.919.919 0 0 0 .392.605c.207.136.473.205.797.205.318 0 .574-.061.767-.184.196-.125.295-.285.298-.481a.5.5 0 0 0-.209-.405c-.136-.108-.346-.19-.63-.247l-1.134-.226c-.639-.128-1.115-.35-1.427-.665-.31-.315-.465-.717-.465-1.206 0-.42.114-.782.341-1.086.23-.304.553-.539.967-.703.418-.165.907-.248 1.466-.248.827 0 1.477.175 1.952.525.477.349.756.825.835 1.427Zm4.275 4.807c-.673 0-1.253-.136-1.738-.41a2.807 2.807 0 0 1-1.117-1.167c-.261-.505-.392-1.104-.392-1.794 0-.673.131-1.264.392-1.773a2.899 2.899 0 0 1 1.104-1.188c.477-.285 1.037-.427 1.679-.427.432 0 .834.07 1.206.21.375.136.702.342.98.617.281.276.5.622.656 1.04.156.415.235.9.235 1.457v.499h-5.527v-1.125h3.818c0-.262-.057-.493-.171-.695a1.215 1.215 0 0 0-.473-.473 1.348 1.348 0 0 0-.694-.175c-.276 0-.52.064-.733.192-.21.125-.375.294-.495.507-.119.21-.18.445-.183.703v1.07c0 .324.06.604.179.84.122.235.294.417.516.545.221.128.484.192.788.192.202 0 .387-.029.554-.085a1.107 1.107 0 0 0 .703-.673l1.679.11c-.085.403-.26.756-.524 1.057a2.626 2.626 0 0 1-1.014.699c-.412.165-.888.247-1.428.247Zm7.147 0c-.671 0-1.248-.142-1.73-.426a2.872 2.872 0 0 1-1.108-1.194c-.256-.508-.384-1.093-.384-1.755 0-.67.129-1.259.388-1.764a2.879 2.879 0 0 1 1.112-1.19c.48-.286 1.051-.43 1.713-.43.571 0 1.071.104 1.5.311.429.208.769.499 1.019.874.25.375.387.815.413 1.321h-1.713c-.048-.327-.176-.59-.384-.788-.204-.202-.473-.303-.805-.303-.281 0-.527.077-.737.23-.208.15-.37.37-.486.66-.117.29-.175.641-.175 1.053 0 .418.057.773.171 1.066.116.292.28.515.49.669.21.153.456.23.737.23.207 0 .393-.043.558-.128.168-.085.306-.209.414-.37.11-.166.183-.363.217-.593h1.713c-.028.5-.165.94-.409 1.32a2.47 2.47 0 0 1-1.002.887c-.426.213-.93.32-1.512.32Z" fill="#121224"/><path fill="#84CC16" d="M0 97h126v10H0z"/><path fill="#EAB308" d="M126 97h126v10H126z"/><path fill="#EF4444" d="M252 97h126v10H252z"/><path d="M51.818 117.03a2.667 2.667 0 0 0-.332-.695 2.131 2.131 0 0 0-1.142-.865 2.613 2.613 0 0 0-.797-.115 2.42 2.42 0 0 0-1.33.379c-.395.253-.707.624-.937 1.113-.227.485-.341 1.081-.341 1.785 0 .707.115 1.305.345 1.794.23.489.546.86.946 1.112.4.253.857.38 1.368.38.474 0 .888-.097 1.24-.29a2.02 2.02 0 0 0 .822-.818c.197-.355.295-.773.295-1.253l.34.064h-2.497v-1.087h3.43v.993c0 .733-.156 1.369-.468 1.909-.31.537-.739.952-1.287 1.244-.545.293-1.17.439-1.875.439-.79 0-1.483-.181-2.08-.545-.593-.364-1.056-.879-1.389-1.547-.332-.67-.498-1.466-.498-2.386 0-.696.096-1.321.29-1.875a4.068 4.068 0 0 1 .813-1.411 3.562 3.562 0 0 1 1.24-.891 3.889 3.889 0 0 1 1.564-.311c.472 0 .91.07 1.317.209.41.139.773.337 1.091.593a3.344 3.344 0 0 1 1.223 2.075h-1.35Zm10.663 1.606c0 .932-.17 1.733-.511 2.404-.341.667-.808 1.182-1.402 1.542-.591.358-1.263.537-2.016.537-.755 0-1.43-.179-2.024-.537-.59-.36-1.057-.876-1.398-1.546-.34-.671-.511-1.471-.511-2.4 0-.931.17-1.731.511-2.399.341-.67.807-1.184 1.398-1.542.594-.361 1.269-.542 2.024-.542.753 0 1.425.181 2.016.542.594.358 1.06.872 1.402 1.542.34.668.511 1.468.511 2.399Zm-1.304 0c0-.71-.115-1.308-.345-1.794-.227-.488-.54-.858-.938-1.108a2.442 2.442 0 0 0-1.342-.379 2.45 2.45 0 0 0-1.346.379c-.395.25-.708.62-.938 1.108-.227.486-.34 1.084-.34 1.794 0 .711.113 1.31.34 1.799.23.485.543.855.938 1.108.394.25.843.375 1.346.375.5 0 .948-.125 1.343-.375.397-.253.71-.623.937-1.108.23-.489.345-1.088.345-1.799Zm10.527 0c0 .932-.17 1.733-.511 2.404-.341.667-.809 1.182-1.403 1.542-.59.358-1.262.537-2.015.537-.756 0-1.43-.179-2.024-.537-.591-.36-1.057-.876-1.398-1.546-.34-.671-.511-1.471-.511-2.4 0-.931.17-1.731.511-2.399.34-.67.807-1.184 1.398-1.542.593-.361 1.268-.542 2.024-.542.753 0 1.425.181 2.015.542.594.358 1.062.872 1.402 1.542.341.668.512 1.468.512 2.399Zm-1.304 0c0-.71-.115-1.308-.345-1.794-.228-.488-.54-.858-.938-1.108a2.442 2.442 0 0 0-1.342-.379 2.45 2.45 0 0 0-1.347.379c-.395.25-.707.62-.937 1.108-.228.486-.341 1.084-.341 1.794 0 .711.113 1.31.34 1.799.23.485.543.855.938 1.108.395.25.844.375 1.347.375.5 0 .947-.125 1.342-.375.398-.253.71-.623.938-1.108.23-.489.345-1.088.345-1.799ZM76.17 123h-2.825v-8.727h2.915c.855 0 1.59.174 2.203.524a3.449 3.449 0 0 1 1.41 1.496c.33.647.495 1.424.495 2.331 0 .909-.166 1.69-.498 2.343a3.496 3.496 0 0 1-1.432 1.509c-.625.349-1.38.524-2.267.524Zm-1.508-1.151h1.436c.665 0 1.218-.125 1.658-.375.44-.252.77-.617.989-1.095.218-.48.328-1.065.328-1.755 0-.685-.11-1.266-.328-1.743a2.315 2.315 0 0 0-.968-1.087c-.429-.247-.961-.371-1.598-.371h-1.517v6.426ZM177.099 114.273V123h-1.211l-4.436-6.401h-.081V123h-1.316v-8.727h1.218l4.441 6.409h.081v-6.409h1.304Zm1.92 8.727v-8.727h5.472v1.133h-4.155v2.659h3.869v1.13h-3.869v2.671h4.206V123h-5.523Zm7.231 0v-8.727h5.471v1.133h-4.154v2.659h3.869v1.13h-3.869v2.671h4.206V123h-5.523Zm10.056 0h-2.826v-8.727h2.915c.855 0 1.59.174 2.203.524a3.45 3.45 0 0 1 1.411 1.496c.329.647.494 1.424.494 2.331 0 .909-.166 1.69-.499 2.343a3.49 3.49 0 0 1-1.431 1.509c-.625.349-1.381.524-2.267.524Zm-1.509-1.151h1.436c.665 0 1.217-.125 1.658-.375.44-.252.77-.617.988-1.095.219-.48.329-1.065.329-1.755 0-.685-.11-1.266-.329-1.743a2.31 2.31 0 0 0-.967-1.087c-.429-.247-.962-.371-1.598-.371h-1.517v6.426Zm12.103-5.284a1.243 1.243 0 0 0-.562-.937c-.33-.225-.744-.337-1.244-.337a2.31 2.31 0 0 0-.929.171c-.262.11-.465.264-.61.46a1.085 1.085 0 0 0-.213.66c0 .208.048.387.145.537.099.151.229.277.388.38.162.099.335.183.52.251.184.065.362.119.532.162l.853.222c.278.068.564.16.856.277.293.116.564.269.814.46.25.19.452.426.605.707.156.281.235.618.235 1.01 0 .494-.128.933-.384 1.317-.253.383-.621.686-1.104.907-.48.222-1.061.333-1.743.333-.653 0-1.218-.104-1.696-.311a2.621 2.621 0 0 1-1.12-.882c-.27-.384-.419-.838-.448-1.364h1.321c.026.315.128.578.307.788.182.208.413.363.695.465.284.099.595.149.933.149.372 0 .703-.058.993-.175a1.66 1.66 0 0 0 .69-.494 1.17 1.17 0 0 0 .252-.746.916.916 0 0 0-.222-.635 1.647 1.647 0 0 0-.592-.409 5.72 5.72 0 0 0-.84-.285l-1.031-.282c-.699-.19-1.253-.47-1.662-.839-.406-.369-.609-.858-.609-1.466 0-.503.136-.942.409-1.317a2.677 2.677 0 0 1 1.108-.873c.466-.21.991-.316 1.576-.316.591 0 1.113.104 1.564.311.455.208.813.493 1.074.857.262.361.398.776.409 1.244h-1.27Zm-59.933 12.708V138h-1.317v-8.727h1.317Zm1.918 0h1.598l2.778 6.784h.102l2.779-6.784h1.598V138h-1.253v-6.315h-.081l-2.574 6.302h-1.04l-2.574-6.307h-.081V138h-1.252v-8.727ZM159.654 138v-8.727h3.111c.679 0 1.241.123 1.687.37.446.248.78.586 1.002 1.015.221.426.332.906.332 1.44 0 .537-.112 1.02-.336 1.449a2.438 2.438 0 0 1-1.006 1.014c-.446.247-1.007.371-1.683.371h-2.14v-1.117h2.02c.429 0 .777-.074 1.044-.221.267-.151.463-.355.588-.614.125-.258.188-.552.188-.882 0-.33-.063-.622-.188-.878a1.343 1.343 0 0 0-.592-.601c-.267-.145-.619-.217-1.057-.217h-1.653V138h-1.317Zm7.676 0v-8.727h3.111c.676 0 1.237.116 1.683.349.449.233.784.556 1.006.967.221.41.332.883.332 1.42 0 .534-.112 1.004-.337 1.41a2.265 2.265 0 0 1-1.005.942c-.446.224-1.007.336-1.684.336h-2.356v-1.133h2.237c.426 0 .773-.061 1.04-.183.27-.122.467-.3.592-.533.125-.233.188-.513.188-.839 0-.33-.064-.616-.192-.857a1.24 1.24 0 0 0-.592-.554c-.267-.131-.618-.196-1.053-.196h-1.653V138h-1.317Zm4.308-3.938 2.156 3.938h-1.5l-2.113-3.938h1.457Zm11.007-.426c0 .932-.17 1.733-.511 2.404-.341.667-.808 1.182-1.402 1.542-.591.358-1.263.537-2.016.537-.755 0-1.43-.179-2.024-.537-.591-.36-1.057-.876-1.398-1.546-.341-.671-.511-1.471-.511-2.4 0-.931.17-1.731.511-2.399.341-.67.807-1.184 1.398-1.542.594-.361 1.269-.542 2.024-.542.753 0 1.425.181 2.016.542.594.358 1.061.872 1.402 1.542.341.668.511 1.468.511 2.399Zm-1.304 0c0-.71-.115-1.308-.345-1.794-.227-.488-.54-.858-.937-1.108a2.445 2.445 0 0 0-1.343-.379c-.503 0-.951.127-1.346.379-.395.25-.708.62-.938 1.108-.227.486-.341 1.084-.341 1.794 0 .711.114 1.31.341 1.799.23.485.543.855.938 1.108.395.25.843.375 1.346.375.5 0 .948-.125 1.343-.375.397-.253.71-.623.937-1.108.23-.489.345-1.088.345-1.799Zm3.275-4.363 2.429 7.108h.098l2.429-7.108h1.423l-3.14 8.727h-1.522l-3.14-8.727h1.423Zm7.64 8.727v-8.727h5.471v1.133h-4.155v2.659h3.87v1.13h-3.87v2.671h4.206V138h-5.522Zm7.23-8.727h1.598l2.779 6.784h.102l2.778-6.784h1.598V138h-1.253v-6.315h-.081l-2.573 6.302h-1.04l-2.574-6.307h-.081V138h-1.253v-8.727Zm10.77 8.727v-8.727h5.471v1.133h-4.155v2.659h3.87v1.13h-3.87v2.671h4.206V138h-5.522Zm14.274-8.727V138h-1.21l-4.436-6.401h-.081V138h-1.317v-8.727h1.219l4.44 6.409h.081v-6.409h1.304Zm1.491 1.133v-1.133h6.754v1.133h-2.723V138h-1.313v-7.594h-2.718ZM299.031 123v-8.727h3.111c.679 0 1.241.123 1.687.37.446.248.78.586 1.002 1.015.221.426.332.906.332 1.44 0 .537-.112 1.02-.336 1.449a2.438 2.438 0 0 1-1.006 1.014c-.446.247-1.007.371-1.683.371h-2.14v-1.117h2.02c.429 0 .777-.074 1.044-.221.267-.151.463-.355.588-.614.125-.258.188-.552.188-.882 0-.33-.063-.622-.188-.878a1.343 1.343 0 0 0-.592-.601c-.267-.145-.619-.217-1.057-.217h-1.653V123h-1.317Zm15.257-4.364c0 .932-.171 1.733-.512 2.404-.34.667-.808 1.182-1.402 1.542-.59.358-1.262.537-2.015.537-.756 0-1.431-.179-2.024-.537-.591-.36-1.057-.876-1.398-1.546-.341-.671-.511-1.471-.511-2.4 0-.931.17-1.731.511-2.399.341-.67.807-1.184 1.398-1.542.593-.361 1.268-.542 2.024-.542.753 0 1.425.181 2.015.542.594.358 1.062.872 1.402 1.542.341.668.512 1.468.512 2.399Zm-1.304 0c0-.71-.115-1.308-.345-1.794-.228-.488-.54-.858-.938-1.108a2.442 2.442 0 0 0-1.342-.379c-.503 0-.952.127-1.347.379-.395.25-.707.62-.937 1.108-.228.486-.341 1.084-.341 1.794 0 .711.113 1.31.341 1.799.23.485.542.855.937 1.108.395.25.844.375 1.347.375.5 0 .947-.125 1.342-.375.398-.253.71-.623.938-1.108.23-.489.345-1.088.345-1.799Zm10.526 0c0 .932-.17 1.733-.511 2.404-.341.667-.808 1.182-1.402 1.542-.591.358-1.263.537-2.016.537-.755 0-1.43-.179-2.024-.537-.591-.36-1.056-.876-1.397-1.546-.341-.671-.512-1.471-.512-2.4 0-.931.171-1.731.512-2.399.341-.67.806-1.184 1.397-1.542.594-.361 1.269-.542 2.024-.542.753 0 1.425.181 2.016.542.594.358 1.061.872 1.402 1.542.341.668.511 1.468.511 2.399Zm-1.304 0c0-.71-.115-1.308-.345-1.794-.227-.488-.539-.858-.937-1.108a2.445 2.445 0 0 0-1.343-.379 2.45 2.45 0 0 0-1.346.379c-.395.25-.707.62-.938 1.108-.227.486-.341 1.084-.341 1.794 0 .711.114 1.31.341 1.799.231.485.543.855.938 1.108.395.25.844.375 1.346.375.5 0 .948-.125 1.343-.375.398-.253.71-.623.937-1.108.23-.489.345-1.088.345-1.799Zm2.946 4.364v-8.727h3.111c.676 0 1.237.116 1.683.349.449.233.784.556 1.006.967.221.41.332.883.332 1.42 0 .534-.112 1.004-.336 1.41a2.273 2.273 0 0 1-1.006.942c-.446.224-1.007.336-1.683.336h-2.357v-1.133h2.237c.427 0 .773-.061 1.04-.183.27-.122.467-.3.592-.533.125-.233.188-.513.188-.839 0-.33-.064-.616-.192-.857a1.24 1.24 0 0 0-.592-.554c-.267-.131-.618-.196-1.053-.196h-1.653V123h-1.317Zm4.308-3.938 2.157 3.938h-1.5l-2.114-3.938h1.457Z" fill="#595966"/></svg>