<svg width="378" height="138" fill="none" xmlns="http://www.w3.org/2000/svg"><path d="M161.131 22.5V.682h14.446v3.803h-9.833v5.199h8.874v3.803h-8.874V22.5h-4.613ZM197.93 8.32h-4.666a4.554 4.554 0 0 0-.522-1.608c-.263-.476-.6-.881-1.012-1.215a4.454 4.454 0 0 0-1.428-.767 5.454 5.454 0 0 0-1.736-.266c-1.129 0-2.113.28-2.951.841-.838.554-1.488 1.364-1.95 2.43-.461 1.058-.692 2.343-.692 3.856 0 1.555.231 2.862.692 3.92.469 1.059 1.122 1.858 1.961 2.397.838.54 1.807.81 2.908.81.618 0 1.19-.082 1.715-.245a4.505 4.505 0 0 0 1.417-.714c.412-.32.753-.706 1.023-1.161.277-.454.468-.973.575-1.555l4.666.02a8.445 8.445 0 0 1-.905 2.899 8.707 8.707 0 0 1-1.929 2.482c-.802.724-1.761 1.3-2.876 1.726-1.108.419-2.362.628-3.761.628-1.946 0-3.686-.44-5.22-1.32-1.527-.881-2.734-2.156-3.622-3.825-.881-1.67-1.321-3.69-1.321-6.062 0-2.38.447-4.403 1.342-6.073.895-1.669 2.11-2.94 3.644-3.813 1.534-.881 3.26-1.321 5.177-1.321 1.265 0 2.436.177 3.516.532a8.91 8.91 0 0 1 2.887 1.556 7.993 7.993 0 0 1 2.045 2.482c.533.98.874 2.102 1.023 3.366Zm3.308 14.18V.682h8.608c1.655 0 3.065.316 4.229.948 1.165.625 2.053 1.495 2.664 2.61.618 1.108.927 2.386.927 3.835 0 1.45-.313 2.728-.938 3.836-.625 1.107-1.53 1.97-2.716 2.588-1.179.618-2.607.927-4.283.927h-5.487V11.73h4.741c.888 0 1.619-.152 2.195-.458.582-.312 1.015-.742 1.299-1.289.292-.554.437-1.19.437-1.907 0-.724-.145-1.356-.437-1.896a2.916 2.916 0 0 0-1.299-1.268c-.583-.305-1.321-.458-2.216-.458h-3.111V22.5h-4.613Z" fill="#3A82F6"/><path d="M98.368 43.045h2.095l2.807 6.851h.111l2.807-6.85h2.096V52.5h-1.644v-6.495h-.087l-2.613 6.467h-1.228l-2.613-6.481h-.088V52.5h-1.643v-9.455Zm11.781 9.455v-9.455h6.149v1.436h-4.436v2.567h4.117v1.436h-4.117v2.58h4.473V52.5h-6.186Zm9.11 0h-1.828l3.329-9.455h2.114l3.333 9.455h-1.828l-2.525-7.516h-.074l-2.521 7.516Zm.06-3.707h4.986v1.376h-4.986v-1.376Zm13.119-3.148a1.26 1.26 0 0 0-.544-.942c-.317-.225-.73-.337-1.238-.337-.357 0-.663.054-.918.161a1.363 1.363 0 0 0-.587.439 1.068 1.068 0 0 0-.207.632.95.95 0 0 0 .134.513c.092.144.217.268.373.37.157.098.331.18.522.248s.383.125.577.171l.887.222c.357.083.7.195 1.029.337.332.141.629.32.891.535.265.216.474.476.628.78.154.305.231.662.231 1.072 0 .554-.142 1.041-.425 1.463-.283.419-.693.746-1.228.983-.532.234-1.177.351-1.934.351-.736 0-1.374-.114-1.916-.342-.539-.227-.96-.56-1.265-.997-.302-.437-.465-.97-.489-1.597h1.685c.024.33.126.603.304.822.179.218.411.381.697.49.29.107.613.16.97.16.372 0 .698-.055.979-.166.283-.113.504-.27.664-.47.16-.203.242-.44.245-.711a.901.901 0 0 0-.217-.61 1.59 1.59 0 0 0-.596-.406 5.706 5.706 0 0 0-.886-.295l-1.076-.277c-.778-.2-1.394-.504-1.846-.91-.449-.41-.674-.952-.674-1.63 0-.556.151-1.044.452-1.463a2.994 2.994 0 0 1 1.242-.974c.523-.234 1.116-.35 1.777-.35.671 0 1.259.116 1.764.35.508.23.906.552 1.196.965.289.41.438.88.447 1.413h-1.648Zm9.264-2.6h1.713v6.177c0 .677-.16 1.273-.48 1.787a3.242 3.242 0 0 1-1.339 1.205c-.575.286-1.248.43-2.017.43-.773 0-1.447-.144-2.022-.43a3.242 3.242 0 0 1-1.339-1.205c-.317-.514-.475-1.11-.475-1.787v-6.177h1.712v6.034c0 .394.086.745.259 1.053.175.308.421.55.738.724.317.173.693.26 1.127.26.434 0 .809-.087 1.126-.26a1.84 1.84 0 0 0 .739-.724 2.12 2.12 0 0 0 .258-1.053v-6.034Zm3.575 9.455v-9.455h3.545c.727 0 1.336.127 1.828.379.496.252.87.606 1.122 1.062.256.452.383.98.383 1.583 0 .606-.129 1.133-.387 1.58a2.563 2.563 0 0 1-1.132 1.029c-.498.24-1.111.36-1.837.36h-2.525v-1.422h2.294c.425 0 .773-.059 1.044-.176.27-.12.471-.294.6-.521.132-.231.198-.514.198-.85 0-.335-.066-.621-.198-.858a1.265 1.265 0 0 0-.605-.545c-.271-.126-.62-.19-1.048-.19h-1.57V52.5h-1.712Zm4.884-4.284 2.341 4.284h-1.912l-2.299-4.284h1.87Zm3.571 4.284v-9.455h6.149v1.436h-4.436v2.567h4.117v1.436h-4.117v2.58h4.473V52.5h-6.186Zm13.034-6.855a1.26 1.26 0 0 0-.544-.942c-.317-.225-.73-.337-1.237-.337-.357 0-.664.054-.919.161a1.354 1.354 0 0 0-.586.439 1.062 1.062 0 0 0-.208.632.95.95 0 0 0 .134.513c.092.144.217.268.374.37.157.098.33.18.521.248s.383.125.577.171l.887.222c.357.083.7.195 1.029.337.333.141.63.32.891.535.265.216.474.476.628.78.154.305.231.662.231 1.072 0 .554-.142 1.041-.425 1.463-.283.419-.692.746-1.228.983-.532.234-1.177.351-1.934.351-.736 0-1.374-.114-1.916-.342-.539-.227-.96-.56-1.265-.997-.302-.437-.465-.97-.489-1.597h1.685c.024.33.126.603.304.822.179.218.411.381.697.49.29.107.613.16.97.16.372 0 .699-.055.979-.166.283-.113.504-.27.664-.47.16-.203.242-.44.245-.711a.901.901 0 0 0-.217-.61 1.586 1.586 0 0 0-.595-.406 5.757 5.757 0 0 0-.887-.295l-1.075-.277c-.779-.2-1.395-.504-1.847-.91-.449-.41-.674-.952-.674-1.63 0-.556.151-1.044.452-1.463a2.994 2.994 0 0 1 1.242-.974c.523-.234 1.116-.35 1.778-.35.671 0 1.258.116 1.763.35.508.23.906.552 1.196.965.289.41.438.88.448 1.413h-1.649Z" fill="#A0A0A7"/><path d="M175.183 43.045V52.5h-1.998v-9.455h1.998Zm9.553 0V52.5h-1.726l-4.114-5.95h-.069v5.95h-1.999v-9.455h1.754l4.081 5.947h.083v-5.947h1.99Zm3.651 0V52.5h-1.999v-9.455h1.999Zm1.284 1.648v-1.648h7.765v1.648h-2.894V52.5h-1.976v-7.806h-2.895Zm11.043-1.648V52.5h-1.999v-9.455h1.999Zm3.274 9.455h-2.142l3.264-9.455h2.576l3.259 9.455h-2.142l-2.368-7.294h-.074l-2.373 7.294Zm-.134-3.716h5.06v1.56h-5.06v-1.56Zm8.229 3.716v-9.455h1.999v7.807h4.053V52.5h-6.052Zm10.385 0v-9.455h1.999v7.807h4.053V52.5h-6.052Zm15.696-4.727c0 1.03-.196 1.908-.587 2.631-.387.723-.917 1.276-1.588 1.657-.667.379-1.418.568-2.252.568-.841 0-1.595-.19-2.263-.572-.667-.382-1.195-.934-1.583-1.657-.388-.724-.582-1.6-.582-2.627 0-1.031.194-1.908.582-2.632.388-.723.916-1.274 1.583-1.652.668-.382 1.422-.573 2.263-.573.834 0 1.585.191 2.252.573.671.378 1.201.93 1.588 1.652.391.724.587 1.6.587 2.632Zm-2.027 0c0-.668-.1-1.231-.3-1.69-.197-.459-.475-.806-.836-1.043-.36-.237-.781-.356-1.264-.356-.484 0-.905.119-1.265.356-.36.237-.641.584-.841 1.043-.197.459-.295 1.022-.295 1.69 0 .668.098 1.23.295 1.69.2.458.481.806.841 1.043.36.237.781.355 1.265.355.483 0 .904-.118 1.264-.355.361-.237.639-.585.836-1.044.2-.458.3-1.021.3-1.69Zm4.604 4.727h-2.142l3.264-9.455h2.576l3.259 9.455h-2.142l-2.368-7.294h-.074l-2.373 7.294Zm-.134-3.716h5.06v1.56h-5.06v-1.56Zm11.58 3.716h-3.351v-9.455h3.379c.951 0 1.77.19 2.456.568a3.838 3.838 0 0 1 1.584 1.62c.372.705.558 1.549.558 2.53 0 .985-.186 1.832-.558 2.54a3.846 3.846 0 0 1-1.593 1.63c-.69.378-1.514.567-2.475.567Zm-1.352-1.713h1.269c.591 0 1.088-.104 1.491-.314.407-.212.711-.54.915-.983.206-.446.309-1.022.309-1.727 0-.698-.103-1.269-.309-1.712a2.008 2.008 0 0 0-.91-.979c-.403-.21-.9-.314-1.491-.314h-1.274v6.03Zm9.458-7.742V52.5h-1.999v-9.455h1.999Zm9.552 0V52.5h-1.726l-4.113-5.95h-.07v5.95h-1.999v-9.455h1.755l4.081 5.947h.083v-5.947h1.989Zm7.921 3.057a2.055 2.055 0 0 0-.272-.596 1.673 1.673 0 0 0-.43-.443 1.841 1.841 0 0 0-.572-.282 2.419 2.419 0 0 0-.706-.097c-.483 0-.908.12-1.274.36-.364.24-.647.59-.85 1.048-.203.456-.305 1.013-.305 1.672 0 .658.1 1.218.301 1.68.2.462.483.814.849 1.057.366.24.799.36 1.297.36.453 0 .839-.08 1.159-.24.323-.163.569-.392.739-.688.172-.295.258-.645.258-1.048l.406.06h-2.437V47.44h3.956v1.191c0 .831-.175 1.545-.526 2.142a3.585 3.585 0 0 1-1.45 1.376c-.615.32-1.32.48-2.114.48-.886 0-1.665-.195-2.336-.586a4.074 4.074 0 0 1-1.57-1.676c-.372-.726-.558-1.588-.558-2.585 0-.766.111-1.45.332-2.05a4.387 4.387 0 0 1 .942-1.532 4.062 4.062 0 0 1 1.408-.956 4.563 4.563 0 0 1 1.74-.328c.536 0 1.035.079 1.496.236a3.98 3.98 0 0 1 1.228.655c.36.283.654.62.882 1.011.228.388.374.816.438 1.284h-2.031Z" fill="#1E1E2F"/><path d="M106.36 77.773V86.5h-1.845v-6.976h-.052l-1.998 1.253v-1.636l2.16-1.368h1.735Zm2.683 8.838a.995.995 0 0 1-.724-.299.995.995 0 0 1-.298-.724c0-.278.099-.517.298-.716a.995.995 0 0 1 .724-.298c.273 0 .512.1.716.298a.961.961 0 0 1 .307.716c0 .188-.048.36-.145.516a1.1 1.1 0 0 1-.371.37.974.974 0 0 1-.507.137Zm5.401.008c-.657 0-1.241-.106-1.752-.32-.508-.215-.908-.51-1.197-.881a2.005 2.005 0 0 1-.435-1.266c0-.364.082-.698.247-1.001.168-.307.395-.561.682-.763.287-.205.608-.335.963-.392v-.06a1.889 1.889 0 0 1-1.133-.678c-.29-.36-.435-.78-.435-1.257 0-.451.132-.853.396-1.206.264-.355.627-.633 1.087-.835.463-.204.988-.307 1.577-.307.588 0 1.112.103 1.572.307.463.205.827.485 1.091.84.264.352.398.753.4 1.201-.002.48-.15.9-.443 1.257a1.901 1.901 0 0 1-1.125.678v.06c.35.057.666.187.951.392.286.201.514.456.681.763.171.303.257.637.26 1.001a2.026 2.026 0 0 1-.439 1.266c-.289.372-.69.666-1.201.882-.509.213-1.091.32-1.747.32Zm0-1.355c.292 0 .548-.052.767-.157.218-.108.389-.256.511-.444.125-.19.187-.409.187-.656 0-.253-.063-.476-.191-.669a1.318 1.318 0 0 0-.52-.46 1.613 1.613 0 0 0-.754-.17c-.282 0-.533.056-.755.17-.221.11-.396.264-.524.46a1.204 1.204 0 0 0-.187.67c0 .246.061.465.183.655.122.188.294.336.515.444.222.105.478.157.768.157Zm0-3.899c.244 0 .461-.05.652-.15.19-.099.339-.236.447-.412.108-.177.162-.38.162-.61a1.09 1.09 0 0 0-.605-1.001 1.38 1.38 0 0 0-.656-.15c-.248 0-.466.05-.657.15-.19.096-.339.231-.447.405-.105.17-.158.369-.158.596 0 .23.054.433.162.61.108.176.257.314.448.413.19.1.407.15.652.15Zm12.918.456-1.662.102a.862.862 0 0 0-.183-.383.979.979 0 0 0-.371-.277 1.261 1.261 0 0 0-.541-.107c-.281 0-.519.06-.712.18-.193.116-.29.272-.29.468 0 .156.063.288.188.396.125.108.339.195.643.26l1.185.239c.636.13 1.111.34 1.423.63.313.29.469.671.469 1.143 0 .429-.126.805-.379 1.129-.25.324-.594.577-1.032.758-.434.18-.936.269-1.504.269-.866 0-1.557-.18-2.071-.541a2.11 2.11 0 0 1-.899-1.483l1.786-.094a.915.915 0 0 0 .392.605c.207.136.473.205.796.205.319 0 .574-.061.768-.184.196-.125.295-.285.298-.481a.503.503 0 0 0-.209-.405c-.136-.108-.347-.19-.631-.247l-1.133-.226c-.639-.128-1.115-.35-1.428-.665-.309-.315-.464-.717-.464-1.206 0-.42.113-.782.341-1.086.23-.304.552-.539.967-.703.418-.165.906-.248 1.466-.248.827 0 1.477.175 1.952.525.477.349.755.825.835 1.427Zm4.275 4.807c-.673 0-1.253-.136-1.739-.41a2.798 2.798 0 0 1-1.116-1.167c-.261-.505-.392-1.104-.392-1.794 0-.673.131-1.264.392-1.773a2.892 2.892 0 0 1 1.104-1.188c.477-.285 1.037-.427 1.679-.427.431 0 .833.07 1.206.21.375.136.701.342.98.617.281.276.5.622.656 1.04.156.415.234.9.234 1.457v.499h-5.527v-1.125h3.819c0-.262-.057-.493-.171-.695a1.222 1.222 0 0 0-.473-.473 1.35 1.35 0 0 0-.695-.175c-.275 0-.519.064-.732.192a1.345 1.345 0 0 0-.495.507c-.119.21-.18.445-.183.703v1.07c0 .324.06.604.179.84.122.235.294.417.516.545.221.128.484.192.788.192.202 0 .386-.029.554-.085a1.098 1.098 0 0 0 .703-.673l1.679.11c-.085.403-.26.756-.524 1.057-.262.298-.6.531-1.014.699-.412.165-.888.247-1.428.247Zm7.146 0c-.67 0-1.247-.142-1.73-.426a2.885 2.885 0 0 1-1.108-1.194c-.255-.508-.383-1.093-.383-1.755 0-.67.129-1.259.388-1.764a2.879 2.879 0 0 1 1.112-1.19c.48-.286 1.051-.43 1.713-.43.571 0 1.071.104 1.5.311.429.208.768.499 1.018.874s.388.815.414 1.321h-1.713c-.049-.327-.177-.59-.384-.788-.204-.202-.473-.303-.805-.303a1.22 1.22 0 0 0-.738.23c-.207.15-.369.37-.485.66-.117.29-.175.641-.175 1.053 0 .418.057.773.17 1.066.117.292.28.515.49.669.211.153.456.23.738.23.207 0 .393-.043.558-.128.168-.085.305-.209.413-.37.111-.166.184-.363.218-.593h1.713c-.029.5-.165.94-.409 1.32a2.477 2.477 0 0 1-1.002.887c-.426.213-.93.32-1.513.32ZM238.494 86.62c-.637 0-1.203-.11-1.7-.329-.495-.221-.885-.525-1.172-.912a2.29 2.29 0 0 1-.439-1.346h1.858c.011.213.081.4.208.562.131.16.304.283.52.37.216.089.459.133.729.133.281 0 .53-.05.746-.15.216-.099.385-.236.507-.412.122-.177.183-.38.183-.61 0-.233-.065-.439-.196-.618a1.251 1.251 0 0 0-.554-.426 2.156 2.156 0 0 0-.852-.153h-.814v-1.355h.814c.278 0 .524-.049.737-.145.216-.097.384-.23.503-.4.119-.174.179-.376.179-.606a1.048 1.048 0 0 0-.592-.967 1.415 1.415 0 0 0-.648-.14c-.25 0-.479.044-.686.135a1.197 1.197 0 0 0-.499.38.994.994 0 0 0-.2.58h-1.769c.009-.504.152-.947.431-1.33a2.789 2.789 0 0 1 1.125-.9c.474-.218 1.01-.328 1.606-.328.603 0 1.13.11 1.581.328.452.22.803.515 1.053.887.253.37.378.784.375 1.244.003.489-.149.897-.456 1.223-.304.327-.7.534-1.189.622v.069c.642.082 1.131.305 1.466.669.338.36.506.812.503 1.355.003.497-.141.939-.431 1.325-.287.386-.683.69-1.189.912-.505.221-1.085.332-1.738.332Zm5.516-.01a.994.994 0 0 1-.724-.297.996.996 0 0 1-.299-.725c0-.278.1-.517.299-.716a.994.994 0 0 1 .724-.298c.273 0 .511.1.716.298a.961.961 0 0 1 .307.716c0 .188-.048.36-.145.516a1.1 1.1 0 0 1-.371.37.974.974 0 0 1-.507.137Zm5.567.082c-.733-.003-1.364-.183-1.893-.541-.525-.358-.93-.877-1.214-1.556-.281-.679-.42-1.496-.418-2.45 0-.952.141-1.763.422-2.433.284-.67.689-1.18 1.215-1.53.528-.353 1.157-.529 1.888-.529.73 0 1.357.176 1.883.529.528.352.935.864 1.219 1.534.284.668.425 1.477.422 2.429 0 .957-.142 1.776-.426 2.454-.282.68-.685 1.198-1.211 1.556-.525.358-1.155.537-1.887.537Zm0-1.53c.5 0 .899-.252 1.197-.754.298-.503.446-1.257.443-2.263 0-.662-.068-1.213-.204-1.653-.134-.44-.324-.772-.571-.993a1.247 1.247 0 0 0-.865-.333c-.498 0-.895.249-1.194.746-.298.497-.449 1.241-.451 2.233 0 .67.066 1.23.2 1.679.136.446.328.781.575 1.005.247.222.537.333.87.333Zm13.08-3.341-1.662.102a.873.873 0 0 0-.183-.383.979.979 0 0 0-.371-.277 1.261 1.261 0 0 0-.541-.107c-.282 0-.519.06-.712.18-.193.116-.29.272-.29.468 0 .156.063.288.188.396.125.108.339.195.643.26l1.185.239c.636.13 1.111.34 1.423.63.313.29.469.671.469 1.143 0 .429-.126.805-.379 1.129-.25.324-.594.577-1.032.758-.434.18-.936.269-1.504.269-.866 0-1.557-.18-2.071-.541a2.11 2.11 0 0 1-.899-1.483l1.785-.094a.917.917 0 0 0 .393.605c.207.136.473.205.796.205.319 0 .574-.061.767-.184.196-.125.296-.285.299-.481a.503.503 0 0 0-.209-.405c-.136-.108-.347-.19-.631-.247l-1.133-.226c-.639-.128-1.115-.35-1.428-.665-.309-.315-.464-.717-.464-1.206 0-.42.113-.782.341-1.086.23-.304.552-.539.967-.703.418-.165.906-.248 1.466-.248.827 0 1.477.175 1.952.525.477.349.755.825.835 1.427Zm4.275 4.807c-.673 0-1.253-.136-1.739-.41a2.798 2.798 0 0 1-1.116-1.167c-.261-.505-.392-1.104-.392-1.794 0-.673.131-1.264.392-1.773a2.892 2.892 0 0 1 1.104-1.188c.477-.285 1.037-.427 1.679-.427.431 0 .833.07 1.206.21.375.136.701.342.98.617.281.276.5.622.656 1.04.156.415.234.9.234 1.457v.499h-5.527v-1.125h3.818c0-.262-.056-.493-.17-.695a1.222 1.222 0 0 0-.473-.473 1.35 1.35 0 0 0-.695-.175c-.275 0-.52.064-.733.192-.21.125-.375.294-.494.507-.119.21-.18.445-.183.703v1.07c0 .324.06.604.179.84.122.235.294.417.515.545.222.128.485.192.789.192.202 0 .386-.029.554-.085a1.11 1.11 0 0 0 .703-.673l1.679.11c-.085.403-.26.756-.524 1.057-.262.298-.6.531-1.014.699-.412.165-.888.247-1.428.247Zm7.146 0c-.67 0-1.247-.142-1.73-.426a2.885 2.885 0 0 1-1.108-1.194c-.255-.508-.383-1.093-.383-1.755 0-.67.129-1.259.387-1.764a2.887 2.887 0 0 1 1.113-1.19c.48-.286 1.051-.43 1.713-.43.571 0 1.071.104 1.5.311.429.208.768.499 1.018.874s.388.815.414 1.321h-1.713c-.049-.327-.177-.59-.384-.788-.205-.202-.473-.303-.805-.303a1.22 1.22 0 0 0-.738.23c-.207.15-.369.37-.485.66-.117.29-.175.641-.175 1.053 0 .418.057.773.17 1.066.117.292.28.515.49.669.211.153.456.23.738.23.207 0 .393-.043.558-.128.167-.085.305-.209.413-.37a1.43 1.43 0 0 0 .218-.593h1.713c-.029.5-.165.94-.409 1.32a2.477 2.477 0 0 1-1.002.887c-.426.213-.93.32-1.513.32Z" fill="#121224"/><path fill="#84CC16" d="M0 96.5h126v10H0z"/><path fill="#EAB308" d="M126 96.5h126v10H126z"/><path fill="#EF4444" d="M252 96.5h126v10H252z"/><path d="M51.818 116.53a2.667 2.667 0 0 0-.332-.695 2.131 2.131 0 0 0-1.142-.865 2.613 2.613 0 0 0-.797-.115 2.42 2.42 0 0 0-1.33.379c-.395.253-.707.624-.937 1.113-.227.485-.341 1.081-.341 1.785 0 .707.115 1.305.345 1.794.23.489.546.86.946 1.112.4.253.857.38 1.368.38.474 0 .888-.097 1.24-.29a2.02 2.02 0 0 0 .822-.818c.197-.355.295-.773.295-1.253l.34.064h-2.497v-1.087h3.43v.993c0 .733-.156 1.369-.468 1.909-.31.537-.739.952-1.287 1.244-.545.293-1.17.439-1.875.439-.79 0-1.483-.181-2.08-.545-.593-.364-1.056-.879-1.389-1.547-.332-.67-.498-1.466-.498-2.386 0-.696.096-1.321.29-1.875a4.068 4.068 0 0 1 .813-1.411 3.562 3.562 0 0 1 1.24-.891 3.889 3.889 0 0 1 1.564-.311c.472 0 .91.07 1.317.209.41.139.773.337 1.091.593a3.344 3.344 0 0 1 1.223 2.075h-1.35Zm10.663 1.606c0 .932-.17 1.733-.511 2.404-.341.667-.808 1.182-1.402 1.542-.591.358-1.263.537-2.016.537-.755 0-1.43-.179-2.024-.537-.59-.36-1.057-.876-1.398-1.546-.34-.671-.511-1.471-.511-2.4 0-.931.17-1.731.511-2.399.341-.67.807-1.184 1.398-1.542.594-.361 1.269-.542 2.024-.542.753 0 1.425.181 2.016.542.594.358 1.06.872 1.402 1.542.34.668.511 1.468.511 2.399Zm-1.304 0c0-.71-.115-1.308-.345-1.794-.227-.488-.54-.858-.938-1.108a2.442 2.442 0 0 0-1.342-.379 2.45 2.45 0 0 0-1.346.379c-.395.25-.708.62-.938 1.108-.227.486-.34 1.084-.34 1.794 0 .711.113 1.31.34 1.799.23.485.543.855.938 1.108.394.25.843.375 1.346.375.5 0 .948-.125 1.343-.375.397-.253.71-.623.937-1.108.23-.489.345-1.088.345-1.799Zm10.527 0c0 .932-.17 1.733-.511 2.404-.341.667-.809 1.182-1.403 1.542-.59.358-1.262.537-2.015.537-.756 0-1.43-.179-2.024-.537-.591-.36-1.057-.876-1.398-1.546-.34-.671-.511-1.471-.511-2.4 0-.931.17-1.731.511-2.399.34-.67.807-1.184 1.398-1.542.593-.361 1.268-.542 2.024-.542.753 0 1.425.181 2.015.542.594.358 1.062.872 1.402 1.542.341.668.512 1.468.512 2.399Zm-1.304 0c0-.71-.115-1.308-.345-1.794-.228-.488-.54-.858-.938-1.108a2.442 2.442 0 0 0-1.342-.379 2.45 2.45 0 0 0-1.347.379c-.395.25-.707.62-.937 1.108-.228.486-.341 1.084-.341 1.794 0 .711.113 1.31.34 1.799.23.485.543.855.938 1.108.395.25.844.375 1.347.375.5 0 .947-.125 1.342-.375.398-.253.71-.623.938-1.108.23-.489.345-1.088.345-1.799Zm5.77 4.364h-2.825v-8.727h2.915c.855 0 1.59.174 2.203.524a3.449 3.449 0 0 1 1.41 1.496c.33.647.495 1.424.495 2.331 0 .909-.166 1.69-.498 2.343a3.496 3.496 0 0 1-1.432 1.509c-.625.349-1.38.524-2.267.524Zm-1.508-1.151h1.436c.665 0 1.218-.125 1.658-.375.44-.252.77-.617.989-1.095.218-.48.328-1.065.328-1.755 0-.685-.11-1.266-.328-1.743a2.315 2.315 0 0 0-.968-1.087c-.429-.247-.961-.371-1.598-.371h-1.517v6.426ZM177.099 113.773v8.727h-1.211l-4.436-6.401h-.081v6.401h-1.316v-8.727h1.218l4.441 6.409h.081v-6.409h1.304Zm1.92 8.727v-8.727h5.472v1.133h-4.155v2.659h3.869v1.13h-3.869v2.671h4.206v1.134h-5.523Zm7.231 0v-8.727h5.471v1.133h-4.154v2.659h3.869v1.13h-3.869v2.671h4.206v1.134h-5.523Zm10.056 0h-2.826v-8.727h2.915c.855 0 1.59.174 2.203.524a3.45 3.45 0 0 1 1.411 1.496c.329.647.494 1.424.494 2.331 0 .909-.166 1.69-.499 2.343a3.49 3.49 0 0 1-1.431 1.509c-.625.349-1.381.524-2.267.524Zm-1.509-1.151h1.436c.665 0 1.217-.125 1.658-.375.44-.252.77-.617.988-1.095.219-.48.329-1.065.329-1.755 0-.685-.11-1.266-.329-1.743a2.31 2.31 0 0 0-.967-1.087c-.429-.247-.962-.371-1.598-.371h-1.517v6.426Zm12.103-5.284a1.243 1.243 0 0 0-.562-.937c-.33-.225-.744-.337-1.244-.337a2.31 2.31 0 0 0-.929.171c-.262.11-.465.264-.61.46a1.085 1.085 0 0 0-.213.66c0 .208.048.387.145.537.099.151.229.277.388.38.162.099.335.183.52.251.184.065.362.119.532.162l.853.222c.278.068.564.16.856.277.293.116.564.269.814.46.25.19.452.426.605.707.156.281.235.618.235 1.01 0 .494-.128.933-.384 1.317-.253.383-.621.686-1.104.907-.48.222-1.061.333-1.743.333-.653 0-1.218-.104-1.696-.311a2.621 2.621 0 0 1-1.12-.882c-.27-.384-.419-.838-.448-1.364h1.321c.026.315.128.578.307.788.182.208.413.363.695.465.284.099.595.149.933.149.372 0 .703-.058.993-.175a1.66 1.66 0 0 0 .69-.494 1.17 1.17 0 0 0 .252-.746.916.916 0 0 0-.222-.635 1.647 1.647 0 0 0-.592-.409 5.72 5.72 0 0 0-.84-.285l-1.031-.282c-.699-.19-1.253-.47-1.662-.839-.406-.369-.609-.858-.609-1.466 0-.503.136-.942.409-1.317a2.677 2.677 0 0 1 1.108-.873c.466-.21.991-.316 1.576-.316.591 0 1.113.104 1.564.311.455.208.813.493 1.074.857.262.361.398.776.409 1.244h-1.27Zm-59.933 12.708v8.727h-1.317v-8.727h1.317Zm1.918 0h1.598l2.778 6.784h.102l2.779-6.784h1.598v8.727h-1.253v-6.315h-.081l-2.574 6.302h-1.04l-2.574-6.307h-.081v6.32h-1.252v-8.727Zm10.769 8.727v-8.727h3.111c.679 0 1.241.123 1.687.37.446.248.78.586 1.002 1.015.221.426.332.906.332 1.44 0 .537-.112 1.02-.336 1.449a2.438 2.438 0 0 1-1.006 1.014c-.446.247-1.007.371-1.683.371h-2.14v-1.117h2.02c.429 0 .777-.074 1.044-.221.267-.151.463-.355.588-.614.125-.258.188-.552.188-.882 0-.33-.063-.622-.188-.878a1.343 1.343 0 0 0-.592-.601c-.267-.145-.619-.217-1.057-.217h-1.653v7.598h-1.317Zm7.676 0v-8.727h3.111c.676 0 1.237.116 1.683.349.449.233.784.556 1.006.967.221.41.332.883.332 1.42 0 .534-.112 1.004-.337 1.41a2.265 2.265 0 0 1-1.005.942c-.446.224-1.007.336-1.684.336h-2.356v-1.133h2.237c.426 0 .773-.061 1.04-.183.27-.122.467-.3.592-.533.125-.233.188-.513.188-.839 0-.33-.064-.616-.192-.857a1.24 1.24 0 0 0-.592-.554c-.267-.131-.618-.196-1.053-.196h-1.653v7.598h-1.317Zm4.308-3.938 2.156 3.938h-1.5l-2.113-3.938h1.457Zm11.007-.426c0 .932-.17 1.733-.511 2.404-.341.667-.808 1.182-1.402 1.542-.591.358-1.263.537-2.016.537-.755 0-1.43-.179-2.024-.537-.591-.36-1.057-.876-1.398-1.546-.341-.671-.511-1.471-.511-2.4 0-.931.17-1.731.511-2.399.341-.67.807-1.184 1.398-1.542.594-.361 1.269-.542 2.024-.542.753 0 1.425.181 2.016.542.594.358 1.061.872 1.402 1.542.341.668.511 1.468.511 2.399Zm-1.304 0c0-.71-.115-1.308-.345-1.794-.227-.488-.54-.858-.937-1.108a2.445 2.445 0 0 0-1.343-.379c-.503 0-.951.127-1.346.379-.395.25-.708.62-.938 1.108-.227.486-.341 1.084-.341 1.794 0 .711.114 1.31.341 1.799.23.485.543.855.938 1.108.395.25.843.375 1.346.375.5 0 .948-.125 1.343-.375.397-.253.71-.623.937-1.108.23-.489.345-1.088.345-1.799Zm3.275-4.363 2.429 7.108h.098l2.429-7.108h1.423l-3.14 8.727h-1.522l-3.14-8.727h1.423Zm7.64 8.727v-8.727h5.471v1.133h-4.155v2.659h3.87v1.13h-3.87v2.671h4.206v1.134h-5.522Zm7.23-8.727h1.598l2.779 6.784h.102l2.778-6.784h1.598v8.727h-1.253v-6.315h-.081l-2.573 6.302h-1.04l-2.574-6.307h-.081v6.32h-1.253v-8.727Zm10.77 8.727v-8.727h5.471v1.133h-4.155v2.659h3.87v1.13h-3.87v2.671h4.206v1.134h-5.522Zm14.274-8.727v8.727h-1.21l-4.436-6.401h-.081v6.401h-1.317v-8.727h1.219l4.44 6.409h.081v-6.409h1.304Zm1.491 1.133v-1.133h6.754v1.133h-2.723v7.594h-1.313v-7.594h-2.718ZM299.031 122.5v-8.727h3.111c.679 0 1.241.123 1.687.37.446.248.78.586 1.002 1.015.221.426.332.906.332 1.44 0 .537-.112 1.02-.336 1.449a2.438 2.438 0 0 1-1.006 1.014c-.446.247-1.007.371-1.683.371h-2.14v-1.117h2.02c.429 0 .777-.074 1.044-.221.267-.151.463-.355.588-.614.125-.258.188-.552.188-.882 0-.33-.063-.622-.188-.878a1.343 1.343 0 0 0-.592-.601c-.267-.145-.619-.217-1.057-.217h-1.653v7.598h-1.317Zm15.257-4.364c0 .932-.171 1.733-.512 2.404-.34.667-.808 1.182-1.402 1.542-.59.358-1.262.537-2.015.537-.756 0-1.431-.179-2.024-.537-.591-.36-1.057-.876-1.398-1.546-.341-.671-.511-1.471-.511-2.4 0-.931.17-1.731.511-2.399.341-.67.807-1.184 1.398-1.542.593-.361 1.268-.542 2.024-.542.753 0 1.425.181 2.015.542.594.358 1.062.872 1.402 1.542.341.668.512 1.468.512 2.399Zm-1.304 0c0-.71-.115-1.308-.345-1.794-.228-.488-.54-.858-.938-1.108a2.442 2.442 0 0 0-1.342-.379c-.503 0-.952.127-1.347.379-.395.25-.707.62-.937 1.108-.228.486-.341 1.084-.341 1.794 0 .711.113 1.31.341 1.799.23.485.542.855.937 1.108.395.25.844.375 1.347.375.5 0 .947-.125 1.342-.375.398-.253.71-.623.938-1.108.23-.489.345-1.088.345-1.799Zm10.526 0c0 .932-.17 1.733-.511 2.404-.341.667-.808 1.182-1.402 1.542-.591.358-1.263.537-2.016.537-.755 0-1.43-.179-2.024-.537-.591-.36-1.056-.876-1.397-1.546-.341-.671-.512-1.471-.512-2.4 0-.931.171-1.731.512-2.399.341-.67.806-1.184 1.397-1.542.594-.361 1.269-.542 2.024-.542.753 0 1.425.181 2.016.542.594.358 1.061.872 1.402 1.542.341.668.511 1.468.511 2.399Zm-1.304 0c0-.71-.115-1.308-.345-1.794-.227-.488-.539-.858-.937-1.108a2.445 2.445 0 0 0-1.343-.379 2.45 2.45 0 0 0-1.346.379c-.395.25-.707.62-.938 1.108-.227.486-.341 1.084-.341 1.794 0 .711.114 1.31.341 1.799.231.485.543.855.938 1.108.395.25.844.375 1.346.375.5 0 .948-.125 1.343-.375.398-.253.71-.623.937-1.108.23-.489.345-1.088.345-1.799Zm2.946 4.364v-8.727h3.111c.676 0 1.237.116 1.683.349.449.233.784.556 1.006.967.221.41.332.883.332 1.42 0 .534-.112 1.004-.336 1.41a2.273 2.273 0 0 1-1.006.942c-.446.224-1.007.336-1.683.336h-2.357v-1.133h2.237c.427 0 .773-.061 1.04-.183.27-.122.467-.3.592-.533.125-.233.188-.513.188-.839 0-.33-.064-.616-.192-.857a1.24 1.24 0 0 0-.592-.554c-.267-.131-.618-.196-1.053-.196h-1.653v7.598h-1.317Zm4.308-3.938 2.157 3.938h-1.5l-2.114-3.938h1.457Z" fill="#595966"/></svg>