<svg width="378" height="138" fill="none" xmlns="http://www.w3.org/2000/svg"><path d="M167.005 22V.182h14.446v3.803h-9.833v5.199h8.874v3.803h-8.874V22h-4.613ZM189.166.182V22h-4.612V.182h4.612ZM200.696 22h-7.734V.182h7.798c2.195 0 4.084.437 5.668 1.31 1.583.867 2.801 2.113 3.654 3.74.859 1.626 1.289 3.572 1.289 5.838 0 2.272-.43 4.226-1.289 5.859-.853 1.634-2.078 2.887-3.676 3.76-1.591.874-3.494 1.311-5.71 1.311Zm-3.121-3.952h2.929c1.364 0 2.511-.242 3.441-.725.938-.49 1.641-1.246 2.11-2.269.476-1.03.714-2.358.714-3.984 0-1.613-.238-2.93-.714-3.953-.469-1.023-1.169-1.775-2.099-2.258-.93-.483-2.077-.725-3.441-.725h-2.94v13.914Z" fill="#3A82F6"/><path d="M83.12 42.545h2.096l2.807 6.851h.111l2.807-6.85h2.096V52h-1.644v-6.495h-.088l-2.612 6.467h-1.228l-2.613-6.481h-.088V52h-1.643v-9.455ZM94.903 52v-9.455h6.149v1.436h-4.436v2.567h4.117v1.436h-4.117v2.58h4.473V52h-6.186Zm9.11 0h-1.828l3.329-9.455h2.114L110.96 52h-1.828l-2.525-7.516h-.074L104.012 52Zm.06-3.707h4.986v1.376h-4.986v-1.376Zm13.119-3.148a1.26 1.26 0 0 0-.544-.942c-.317-.225-.73-.337-1.238-.337-.357 0-.663.054-.918.161a1.363 1.363 0 0 0-.587.439 1.068 1.068 0 0 0-.207.632c0 .197.044.368.133.513.093.144.217.268.374.37.157.098.331.18.522.248s.383.125.577.171l.886.222a6.07 6.07 0 0 1 1.03.337c.332.141.629.32.891.535.265.216.474.476.628.78.154.305.231.662.231 1.072 0 .554-.142 1.041-.425 1.463-.283.419-.693.746-1.228.983-.533.234-1.177.351-1.934.351-.736 0-1.375-.114-1.916-.342-.539-.227-.96-.56-1.265-.997-.302-.437-.465-.97-.489-1.597h1.685c.024.33.126.603.304.822.179.218.411.381.697.49.29.107.613.16.97.16.372 0 .698-.055.978-.166.284-.113.505-.27.665-.47.16-.203.242-.44.245-.711a.901.901 0 0 0-.217-.61 1.59 1.59 0 0 0-.596-.406 5.706 5.706 0 0 0-.886-.295l-1.076-.277c-.778-.2-1.394-.504-1.846-.91-.45-.41-.674-.952-.674-1.63 0-.556.151-1.044.452-1.463a2.994 2.994 0 0 1 1.242-.974c.523-.234 1.116-.35 1.777-.35.671 0 1.259.116 1.764.35.508.23.906.552 1.196.965.289.41.438.88.447 1.413h-1.648Zm9.264-2.6h1.713v6.177c0 .677-.16 1.273-.48 1.787a3.242 3.242 0 0 1-1.339 1.205c-.575.286-1.248.43-2.017.43-.773 0-1.447-.144-2.022-.43a3.242 3.242 0 0 1-1.339-1.205c-.317-.514-.475-1.11-.475-1.787v-6.177h1.712v6.034c0 .394.086.745.259 1.053.175.308.421.55.738.724.317.173.693.26 1.127.26.434 0 .809-.087 1.126-.26a1.84 1.84 0 0 0 .739-.724 2.12 2.12 0 0 0 .258-1.053v-6.034ZM130.03 52v-9.455h3.545c.726 0 1.336.127 1.828.379.496.252.87.606 1.122 1.062.256.452.383.98.383 1.583 0 .606-.129 1.133-.388 1.58a2.555 2.555 0 0 1-1.131 1.029c-.498.24-1.111.36-1.837.36h-2.525v-1.422h2.294c.425 0 .773-.059 1.044-.176.27-.12.47-.294.6-.521.132-.231.198-.514.198-.85 0-.335-.066-.621-.198-.858a1.265 1.265 0 0 0-.605-.545c-.271-.126-.62-.19-1.048-.19h-1.57V52h-1.712Zm4.884-4.284 2.34 4.284h-1.911l-2.299-4.284h1.87ZM138.485 52v-9.455h6.149v1.436h-4.437v2.567h4.118v1.436h-4.118v2.58h4.474V52h-6.186Zm13.034-6.855a1.26 1.26 0 0 0-.544-.942c-.317-.225-.73-.337-1.238-.337-.357 0-.663.054-.918.161a1.363 1.363 0 0 0-.587.439 1.068 1.068 0 0 0-.207.632.95.95 0 0 0 .134.513c.092.144.217.268.374.37a2.6 2.6 0 0 0 .521.248c.191.068.383.125.577.171l.887.222c.357.083.7.195 1.029.337.332.141.629.32.891.535.265.216.474.476.628.78.154.305.231.662.231 1.072 0 .554-.142 1.041-.425 1.463-.283.419-.692.746-1.228.983-.532.234-1.177.351-1.934.351-.736 0-1.374-.114-1.916-.342-.539-.227-.96-.56-1.265-.997-.302-.437-.465-.97-.489-1.597h1.685c.024.33.126.603.304.822.179.218.411.381.697.49.29.107.613.16.97.16.372 0 .699-.055.979-.166.283-.113.504-.27.664-.47.16-.203.242-.44.245-.711a.901.901 0 0 0-.217-.61 1.595 1.595 0 0 0-.595-.406 5.757 5.757 0 0 0-.887-.295l-1.075-.277c-.779-.2-1.395-.504-1.847-.91-.449-.41-.674-.952-.674-1.63 0-.556.151-1.044.452-1.463a2.994 2.994 0 0 1 1.242-.974c.523-.234 1.116-.35 1.778-.35.67 0 1.258.116 1.763.35.508.23.906.552 1.196.965.289.41.438.88.447 1.413h-1.648Z" fill="#A0A0A7"/><path d="M157.937 52v-9.455h3.731c.717 0 1.328.137 1.832.411.505.271.89.648 1.154 1.131.268.48.402 1.034.402 1.662 0 .628-.135 1.182-.406 1.662s-.663.854-1.177 1.122c-.511.268-1.13.402-1.856.402h-2.378v-1.602h2.055c.384 0 .701-.066.951-.199.252-.135.44-.321.563-.558.126-.24.189-.516.189-.827 0-.314-.063-.588-.189-.821a1.265 1.265 0 0 0-.563-.55c-.253-.132-.573-.198-.961-.198h-1.348V52h-1.999Zm8.955 0h-2.142l3.264-9.455h2.576L173.849 52h-2.142l-2.368-7.294h-.074L166.892 52Zm-.134-3.716h5.06v1.56h-5.06v-1.56Zm14.054-2.682a2.081 2.081 0 0 0-.272-.596 1.673 1.673 0 0 0-.43-.443 1.841 1.841 0 0 0-.572-.282 2.419 2.419 0 0 0-.706-.097c-.484 0-.908.12-1.275.36-.363.24-.646.59-.849 1.048-.203.456-.305 1.013-.305 1.672 0 .658.1 1.218.3 1.68.2.462.484.814.85 1.057.366.24.799.36 1.297.36.453 0 .839-.08 1.159-.24.323-.163.569-.392.738-.688.173-.295.259-.645.259-1.048l.406.06h-2.437V46.94h3.956v1.191c0 .831-.175 1.545-.526 2.142a3.585 3.585 0 0 1-1.45 1.376c-.615.32-1.32.48-2.114.48-.886 0-1.665-.195-2.336-.586a4.074 4.074 0 0 1-1.57-1.676c-.372-.726-.558-1.588-.558-2.585 0-.766.111-1.45.332-2.05a4.387 4.387 0 0 1 .942-1.532 4.062 4.062 0 0 1 1.408-.956 4.56 4.56 0 0 1 1.74-.328 4.62 4.62 0 0 1 1.496.236 3.98 3.98 0 0 1 1.228.655c.36.283.654.62.882 1.011.228.388.374.816.438 1.284h-2.031ZM184.433 52v-9.455h6.37v1.648h-4.371v2.253h4.044v1.648h-4.044v2.258h4.39V52h-6.389Zm12.967-9.455V52h-1.999v-9.455h1.999Zm9.553 0V52h-1.727l-4.113-5.95h-.069V52h-1.999v-9.455h1.754l4.081 5.947h.083v-5.947h1.99Zm1.291 1.648v-1.648h7.765v1.648h-2.894V52h-1.976v-7.806h-2.895ZM217.288 52v-9.455h6.371v1.648h-4.372v2.253h4.044v1.648h-4.044v2.258h4.39V52h-6.389Zm7.96 0v-9.455h3.73c.714 0 1.324.128 1.828.384.508.252.894.61 1.159 1.075.268.462.402 1.005.402 1.63 0 .628-.136 1.168-.407 1.62a2.63 2.63 0 0 1-1.177 1.034c-.511.24-1.129.36-1.856.36h-2.497v-1.606h2.174c.382 0 .699-.052.951-.157.253-.105.44-.262.563-.47.127-.21.19-.47.19-.781 0-.314-.063-.579-.19-.794a1.16 1.16 0 0 0-.567-.49c-.253-.113-.571-.17-.956-.17h-1.348V52h-1.999Zm5.106-4.303 2.35 4.303h-2.207l-2.299-4.303h2.156ZM235.409 52h-2.142l3.264-9.455h2.576L242.366 52h-2.142l-2.368-7.294h-.074L235.409 52Zm-.134-3.716h5.06v1.56h-5.06v-1.56Zm16.127-2.428h-2.023a1.956 1.956 0 0 0-.226-.698 1.782 1.782 0 0 0-.438-.526 1.938 1.938 0 0 0-.619-.332 2.369 2.369 0 0 0-.752-.116c-.49 0-.916.122-1.279.365-.363.24-.645.59-.845 1.053-.2.458-.3 1.015-.3 1.67 0 .675.1 1.241.3 1.7.203.458.486.804.849 1.038.364.234.784.351 1.261.351.268 0 .515-.035.743-.106a1.776 1.776 0 0 0 1.057-.813c.12-.197.203-.421.249-.673l2.023.009a3.783 3.783 0 0 1-1.228 2.331 3.942 3.942 0 0 1-1.247.748c-.48.181-1.023.272-1.63.272-.843 0-1.597-.19-2.262-.572-.661-.382-1.185-.934-1.569-1.657-.382-.724-.573-1.6-.573-2.627 0-1.031.194-1.908.582-2.632.388-.723.914-1.274 1.579-1.652.665-.382 1.412-.573 2.243-.573.548 0 1.056.077 1.524.231.471.154.888.379 1.251.674.363.292.659.65.886 1.076.231.424.379.91.444 1.459Zm1.073-1.663v-1.648h7.765v1.648h-2.895V52h-1.976v-7.806h-2.894Zm11.042-1.648V52h-1.998v-9.455h1.998Zm3.353 0 2.285 7.184h.088l2.29-7.184h2.216L270.489 52h-2.576l-3.263-9.455h2.22Zm10.016 0V52h-1.999v-9.455h1.999Zm1.284 1.648v-1.648h7.765v1.648h-2.894V52h-1.976v-7.806h-2.895Zm8.49-1.648h2.239l2.156 4.072h.092l2.156-4.072h2.239l-3.449 6.113V52h-1.985v-3.342l-3.448-6.113Z" fill="#1E1E2F"/><path d="M105.077 77.273V86h-1.846v-6.976h-.051l-1.998 1.253v-1.636l2.16-1.368h1.735Zm5.496 8.919c-.733-.003-1.364-.183-1.892-.541-.526-.358-.931-.877-1.215-1.556-.281-.679-.42-1.496-.418-2.45 0-.952.141-1.763.422-2.433.284-.67.689-1.18 1.215-1.53.528-.353 1.158-.529 1.888-.529s1.358.176 1.883.529c.529.352.935.864 1.219 1.534.284.668.425 1.477.422 2.429 0 .957-.142 1.776-.426 2.454-.282.68-.685 1.198-1.211 1.556-.525.358-1.154.537-1.887.537Zm0-1.53c.5 0 .899-.252 1.197-.754.298-.503.446-1.257.443-2.263 0-.662-.068-1.213-.204-1.653-.134-.44-.324-.772-.571-.993a1.247 1.247 0 0 0-.865-.333c-.498 0-.895.249-1.194.746-.298.497-.448 1.241-.451 2.233 0 .67.066 1.23.2 1.679.136.446.328.781.575 1.005.247.222.537.333.87.333Zm8.261 1.53c-.733-.003-1.363-.183-1.892-.541-.525-.358-.93-.877-1.214-1.556-.281-.679-.421-1.496-.418-2.45 0-.952.141-1.763.422-2.433.284-.67.689-1.18 1.215-1.53.528-.353 1.157-.529 1.887-.529s1.358.176 1.884.529c.528.352.935.864 1.219 1.534.284.668.424 1.477.421 2.429 0 .957-.142 1.776-.426 2.454-.281.68-.684 1.198-1.21 1.556-.525.358-1.155.537-1.888.537Zm0-1.53c.5 0 .899-.252 1.198-.754.298-.503.446-1.257.443-2.263 0-.662-.068-1.213-.205-1.653-.133-.44-.323-.772-.571-.993a1.244 1.244 0 0 0-.865-.333c-.497 0-.895.249-1.193.746-.298.497-.449 1.241-.452 2.233 0 .67.067 1.23.201 1.679.136.446.328.781.575 1.005.247.222.537.333.869.333ZM126.469 86v-6.546h1.73v1.155h.076a1.82 1.82 0 0 1 .682-.907c.318-.222.699-.333 1.142-.333.449 0 .831.112 1.147.337.315.222.525.523.63.903h.068c.134-.375.375-.674.725-.899.352-.227.768-.34 1.248-.34.611 0 1.107.194 1.488.583.383.386.575.935.575 1.645V86h-1.811v-4.044c0-.364-.097-.636-.29-.818a1.016 1.016 0 0 0-.724-.273c-.33 0-.587.105-.772.315-.184.208-.277.482-.277.823V86h-1.76v-4.082c0-.321-.092-.577-.277-.767-.181-.19-.421-.286-.72-.286a1 1 0 0 0-.545.154c-.159.099-.286.24-.379.421-.094.18-.141.39-.141.631V86h-1.815Zm16.391-4.679-1.662.102a.862.862 0 0 0-.183-.383.979.979 0 0 0-.371-.277 1.261 1.261 0 0 0-.541-.107c-.281 0-.519.06-.712.18-.193.116-.29.272-.29.468 0 .156.063.288.188.396.125.108.339.195.643.26l1.185.239c.636.13 1.111.34 1.423.63.313.29.469.671.469 1.143 0 .429-.126.805-.379 1.129-.25.324-.594.577-1.031.758-.435.18-.937.269-1.505.269-.866 0-1.557-.18-2.071-.541a2.11 2.11 0 0 1-.899-1.483l1.786-.094a.915.915 0 0 0 .392.605c.207.136.473.205.797.205.318 0 .573-.061.767-.184.196-.125.295-.285.298-.481a.503.503 0 0 0-.209-.405c-.136-.108-.347-.19-.631-.247l-1.133-.226c-.639-.128-1.115-.35-1.428-.665-.309-.315-.464-.717-.464-1.206 0-.42.113-.782.341-1.086.23-.304.552-.539.967-.703.418-.165.906-.248 1.466-.248.827 0 1.477.175 1.952.525.477.349.755.825.835 1.427ZM237.486 86.12c-.636 0-1.203-.11-1.7-.329-.495-.221-.885-.525-1.172-.912a2.29 2.29 0 0 1-.439-1.346h1.858c.011.213.081.4.209.562.13.16.304.283.52.37.215.089.458.133.728.133.281 0 .53-.05.746-.15.216-.099.385-.236.507-.412.122-.177.183-.38.183-.61 0-.233-.065-.439-.196-.618a1.251 1.251 0 0 0-.554-.426 2.15 2.15 0 0 0-.852-.153h-.814v-1.355h.814c.278 0 .524-.049.737-.145.216-.097.384-.23.503-.4.119-.174.179-.376.179-.606 0-.219-.052-.41-.158-.575a1.04 1.04 0 0 0-.434-.392 1.415 1.415 0 0 0-.648-.14c-.25 0-.479.044-.686.135a1.203 1.203 0 0 0-.499.38 1.001 1.001 0 0 0-.2.58h-1.768c.008-.504.152-.947.43-1.33a2.789 2.789 0 0 1 1.125-.9c.474-.218 1.01-.328 1.607-.328.602 0 1.129.11 1.581.328a2.6 2.6 0 0 1 1.052.887c.253.37.378.784.375 1.244.003.489-.149.897-.456 1.223-.304.327-.7.534-1.189.622v.069c.642.082 1.131.305 1.466.669.338.36.506.812.503 1.355.003.497-.141.939-.43 1.325-.287.386-.684.69-1.189.912-.506.221-1.086.332-1.739.332Zm8.106.072c-.733-.003-1.363-.183-1.892-.541-.525-.358-.93-.877-1.214-1.556-.282-.679-.421-1.496-.418-2.45 0-.952.141-1.763.422-2.433.284-.67.689-1.18 1.214-1.53.529-.353 1.158-.529 1.888-.529s1.358.176 1.884.529c.528.352.934.864 1.218 1.534.285.668.425 1.477.422 2.429 0 .957-.142 1.776-.426 2.454-.281.68-.684 1.198-1.21 1.556-.526.358-1.155.537-1.888.537Zm0-1.53c.5 0 .899-.252 1.198-.754.298-.503.446-1.257.443-2.263 0-.662-.068-1.213-.205-1.653-.133-.44-.324-.772-.571-.993a1.244 1.244 0 0 0-.865-.333c-.497 0-.895.249-1.193.746-.298.497-.449 1.241-.452 2.233 0 .67.067 1.23.201 1.679.136.446.328.781.575 1.005.247.222.537.333.869.333Zm8.262 1.53c-.733-.003-1.364-.183-1.892-.541-.526-.358-.931-.877-1.215-1.556-.281-.679-.42-1.496-.417-2.45 0-.952.14-1.763.422-2.433.284-.67.689-1.18 1.214-1.53.528-.353 1.158-.529 1.888-.529s1.358.176 1.883.529c.529.352.935.864 1.219 1.534.284.668.425 1.477.422 2.429 0 .957-.142 1.776-.426 2.454-.281.68-.685 1.198-1.21 1.556-.526.358-1.155.537-1.888.537Zm0-1.53c.5 0 .899-.252 1.197-.754.299-.503.446-1.257.443-2.263 0-.662-.068-1.213-.204-1.653-.134-.44-.324-.772-.571-.993a1.245 1.245 0 0 0-.865-.333c-.497 0-.895.249-1.193.746-.299.497-.449 1.241-.452 2.233 0 .67.067 1.23.2 1.679.137.446.328.781.576 1.005.247.222.536.333.869.333ZM261.488 86v-6.546h1.73v1.155h.077c.136-.383.364-.686.682-.907.318-.222.699-.333 1.142-.333.449 0 .831.112 1.146.337.315.222.526.523.631.903h.068a1.74 1.74 0 0 1 .724-.899c.353-.227.769-.34 1.249-.34.611 0 1.107.194 1.487.583.384.386.575.935.575 1.645V86h-1.811v-4.044c0-.364-.096-.636-.289-.818a1.018 1.018 0 0 0-.725-.273c-.329 0-.586.105-.771.315-.185.208-.277.482-.277.823V86h-1.76v-4.082c0-.321-.092-.577-.277-.767-.182-.19-.422-.286-.72-.286-.202 0-.384.051-.546.154-.159.099-.285.24-.379.421-.094.18-.141.39-.141.631V86h-1.815Zm16.391-4.679-1.661.102a.864.864 0 0 0-.184-.383.967.967 0 0 0-.37-.277 1.263 1.263 0 0 0-.542-.107c-.281 0-.518.06-.711.18-.193.116-.29.272-.29.468 0 .156.062.288.187.396.125.108.34.195.644.26l1.185.239c.636.13 1.11.34 1.423.63.312.29.469.671.469 1.143 0 .429-.127.805-.38 1.129-.25.324-.593.577-1.031.758-.435.18-.936.269-1.504.269-.867 0-1.557-.18-2.071-.541a2.106 2.106 0 0 1-.899-1.483l1.785-.094a.919.919 0 0 0 .392.605c.208.136.473.205.797.205.318 0 .574-.061.767-.184.196-.125.296-.285.298-.481a.499.499 0 0 0-.208-.405c-.137-.108-.347-.19-.631-.247l-1.134-.226c-.639-.128-1.115-.35-1.427-.665-.31-.315-.465-.717-.465-1.206 0-.42.114-.782.341-1.086.23-.304.553-.539.968-.703.417-.165.906-.248 1.466-.248.826 0 1.477.175 1.951.525.477.349.756.825.835 1.427Z" fill="#121224"/><path fill="#84CC16" d="M0 96h126v10H0z"/><path fill="#EAB308" d="M126 96h126v10H126z"/><path fill="#EF4444" d="M252 96h126v10H252z"/><path d="M51.818 116.03a2.667 2.667 0 0 0-.332-.695 2.131 2.131 0 0 0-1.142-.865 2.613 2.613 0 0 0-.797-.115 2.42 2.42 0 0 0-1.33.379c-.395.253-.707.624-.937 1.113-.227.485-.341 1.081-.341 1.785 0 .707.115 1.305.345 1.794.23.489.546.86.946 1.112.4.253.857.38 1.368.38.474 0 .888-.097 1.24-.29a2.02 2.02 0 0 0 .822-.818c.197-.355.295-.773.295-1.253l.34.064h-2.497v-1.087h3.43v.993c0 .733-.156 1.369-.468 1.909-.31.537-.739.952-1.287 1.244-.545.293-1.17.439-1.875.439-.79 0-1.483-.181-2.08-.545-.593-.364-1.056-.879-1.389-1.547-.332-.67-.498-1.466-.498-2.386 0-.696.096-1.321.29-1.875a4.068 4.068 0 0 1 .813-1.411 3.562 3.562 0 0 1 1.24-.891 3.889 3.889 0 0 1 1.564-.311c.472 0 .91.07 1.317.209.41.139.773.337 1.091.593a3.344 3.344 0 0 1 1.223 2.075h-1.35Zm10.663 1.606c0 .932-.17 1.733-.511 2.404-.341.667-.808 1.182-1.402 1.542-.591.358-1.263.537-2.016.537-.755 0-1.43-.179-2.024-.537-.59-.36-1.057-.876-1.398-1.546-.34-.671-.511-1.471-.511-2.4 0-.931.17-1.731.511-2.399.341-.67.807-1.184 1.398-1.542.594-.361 1.269-.542 2.024-.542.753 0 1.425.181 2.016.542.594.358 1.06.872 1.402 1.542.34.668.511 1.468.511 2.399Zm-1.304 0c0-.71-.115-1.308-.345-1.794-.227-.488-.54-.858-.938-1.108a2.442 2.442 0 0 0-1.342-.379 2.45 2.45 0 0 0-1.346.379c-.395.25-.708.62-.938 1.108-.227.486-.34 1.084-.34 1.794 0 .711.113 1.31.34 1.799.23.485.543.855.938 1.108.394.25.843.375 1.346.375.5 0 .948-.125 1.343-.375.397-.253.71-.623.937-1.108.23-.489.345-1.088.345-1.799Zm10.527 0c0 .932-.17 1.733-.511 2.404-.341.667-.809 1.182-1.403 1.542-.59.358-1.262.537-2.015.537-.756 0-1.43-.179-2.024-.537-.591-.36-1.057-.876-1.398-1.546-.34-.671-.511-1.471-.511-2.4 0-.931.17-1.731.511-2.399.34-.67.807-1.184 1.398-1.542.593-.361 1.268-.542 2.024-.542.753 0 1.425.181 2.015.542.594.358 1.062.872 1.402 1.542.341.668.512 1.468.512 2.399Zm-1.304 0c0-.71-.115-1.308-.345-1.794-.228-.488-.54-.858-.938-1.108a2.442 2.442 0 0 0-1.342-.379 2.45 2.45 0 0 0-1.347.379c-.395.25-.707.62-.937 1.108-.228.486-.341 1.084-.341 1.794 0 .711.113 1.31.34 1.799.23.485.543.855.938 1.108.395.25.844.375 1.347.375.5 0 .947-.125 1.342-.375.398-.253.71-.623.938-1.108.23-.489.345-1.088.345-1.799ZM76.17 122h-2.825v-8.727h2.915c.855 0 1.59.174 2.203.524a3.449 3.449 0 0 1 1.41 1.496c.33.647.495 1.424.495 2.331 0 .909-.166 1.69-.498 2.343a3.496 3.496 0 0 1-1.432 1.509c-.625.349-1.38.524-2.267.524Zm-1.508-1.151h1.436c.665 0 1.218-.125 1.658-.375.44-.252.77-.617.989-1.095.218-.48.328-1.065.328-1.755 0-.685-.11-1.266-.328-1.743a2.315 2.315 0 0 0-.968-1.087c-.429-.247-.961-.371-1.598-.371h-1.517v6.426ZM177.099 113.273V122h-1.211l-4.436-6.401h-.081V122h-1.316v-8.727h1.218l4.441 6.409h.081v-6.409h1.304Zm1.92 8.727v-8.727h5.472v1.133h-4.155v2.659h3.869v1.13h-3.869v2.671h4.206V122h-5.523Zm7.231 0v-8.727h5.471v1.133h-4.154v2.659h3.869v1.13h-3.869v2.671h4.206V122h-5.523Zm10.056 0h-2.826v-8.727h2.915c.855 0 1.59.174 2.203.524a3.45 3.45 0 0 1 1.411 1.496c.329.647.494 1.424.494 2.331 0 .909-.166 1.69-.499 2.343a3.49 3.49 0 0 1-1.431 1.509c-.625.349-1.381.524-2.267.524Zm-1.509-1.151h1.436c.665 0 1.217-.125 1.658-.375.44-.252.77-.617.988-1.095.219-.48.329-1.065.329-1.755 0-.685-.11-1.266-.329-1.743a2.31 2.31 0 0 0-.967-1.087c-.429-.247-.962-.371-1.598-.371h-1.517v6.426Zm12.103-5.284a1.243 1.243 0 0 0-.562-.937c-.33-.225-.744-.337-1.244-.337a2.31 2.31 0 0 0-.929.171c-.262.11-.465.264-.61.46a1.085 1.085 0 0 0-.213.66c0 .208.048.387.145.537.099.151.229.277.388.38.162.099.335.183.52.251.184.065.362.119.532.162l.853.222c.278.068.564.16.856.277.293.116.564.269.814.46.25.19.452.426.605.707.156.281.235.618.235 1.01 0 .494-.128.933-.384 1.317-.253.383-.621.686-1.104.907-.48.222-1.061.333-1.743.333-.653 0-1.218-.104-1.696-.311a2.621 2.621 0 0 1-1.12-.882c-.27-.384-.419-.838-.448-1.364h1.321c.026.315.128.578.307.788.182.208.413.363.695.465.284.099.595.149.933.149.372 0 .703-.058.993-.175a1.66 1.66 0 0 0 .69-.494 1.17 1.17 0 0 0 .252-.746.916.916 0 0 0-.222-.635 1.647 1.647 0 0 0-.592-.409 5.72 5.72 0 0 0-.84-.285l-1.031-.282c-.699-.19-1.253-.47-1.662-.839-.406-.369-.609-.858-.609-1.466 0-.503.136-.942.409-1.317a2.677 2.677 0 0 1 1.108-.873c.466-.21.991-.316 1.576-.316.591 0 1.113.104 1.564.311.455.208.813.493 1.074.857.262.361.398.776.409 1.244h-1.27Zm-59.933 12.708V137h-1.317v-8.727h1.317Zm1.918 0h1.598l2.778 6.784h.102l2.779-6.784h1.598V137h-1.253v-6.315h-.081l-2.574 6.302h-1.04l-2.574-6.307h-.081V137h-1.252v-8.727ZM159.654 137v-8.727h3.111c.679 0 1.241.123 1.687.37.446.248.78.586 1.002 1.015.221.426.332.906.332 1.44 0 .537-.112 1.02-.336 1.449a2.438 2.438 0 0 1-1.006 1.014c-.446.247-1.007.371-1.683.371h-2.14v-1.117h2.02c.429 0 .777-.074 1.044-.221.267-.151.463-.355.588-.614.125-.258.188-.552.188-.882 0-.33-.063-.622-.188-.878a1.343 1.343 0 0 0-.592-.601c-.267-.145-.619-.217-1.057-.217h-1.653V137h-1.317Zm7.676 0v-8.727h3.111c.676 0 1.237.116 1.683.349.449.233.784.556 1.006.967.221.41.332.883.332 1.42 0 .534-.112 1.004-.337 1.41a2.265 2.265 0 0 1-1.005.942c-.446.224-1.007.336-1.684.336h-2.356v-1.133h2.237c.426 0 .773-.061 1.04-.183.27-.122.467-.3.592-.533.125-.233.188-.513.188-.839 0-.33-.064-.616-.192-.857a1.24 1.24 0 0 0-.592-.554c-.267-.131-.618-.196-1.053-.196h-1.653V137h-1.317Zm4.308-3.938 2.156 3.938h-1.5l-2.113-3.938h1.457Zm11.007-.426c0 .932-.17 1.733-.511 2.404-.341.667-.808 1.182-1.402 1.542-.591.358-1.263.537-2.016.537-.755 0-1.43-.179-2.024-.537-.591-.36-1.057-.876-1.398-1.546-.341-.671-.511-1.471-.511-2.4 0-.931.17-1.731.511-2.399.341-.67.807-1.184 1.398-1.542.594-.361 1.269-.542 2.024-.542.753 0 1.425.181 2.016.542.594.358 1.061.872 1.402 1.542.341.668.511 1.468.511 2.399Zm-1.304 0c0-.71-.115-1.308-.345-1.794-.227-.488-.54-.858-.937-1.108a2.445 2.445 0 0 0-1.343-.379c-.503 0-.951.127-1.346.379-.395.25-.708.62-.938 1.108-.227.486-.341 1.084-.341 1.794 0 .711.114 1.31.341 1.799.23.485.543.855.938 1.108.395.25.843.375 1.346.375.5 0 .948-.125 1.343-.375.397-.253.71-.623.937-1.108.23-.489.345-1.088.345-1.799Zm3.275-4.363 2.429 7.108h.098l2.429-7.108h1.423l-3.14 8.727h-1.522l-3.14-8.727h1.423Zm7.64 8.727v-8.727h5.471v1.133h-4.155v2.659h3.87v1.13h-3.87v2.671h4.206V137h-5.522Zm7.23-8.727h1.598l2.779 6.784h.102l2.778-6.784h1.598V137h-1.253v-6.315h-.081l-2.573 6.302h-1.04l-2.574-6.307h-.081V137h-1.253v-8.727Zm10.77 8.727v-8.727h5.471v1.133h-4.155v2.659h3.87v1.13h-3.87v2.671h4.206V137h-5.522Zm14.274-8.727V137h-1.21l-4.436-6.401h-.081V137h-1.317v-8.727h1.219l4.44 6.409h.081v-6.409h1.304Zm1.491 1.133v-1.133h6.754v1.133h-2.723V137h-1.313v-7.594h-2.718ZM299.031 122v-8.727h3.111c.679 0 1.241.123 1.687.37.446.248.78.586 1.002 1.015.221.426.332.906.332 1.44 0 .537-.112 1.02-.336 1.449a2.438 2.438 0 0 1-1.006 1.014c-.446.247-1.007.371-1.683.371h-2.14v-1.117h2.02c.429 0 .777-.074 1.044-.221.267-.151.463-.355.588-.614.125-.258.188-.552.188-.882 0-.33-.063-.622-.188-.878a1.343 1.343 0 0 0-.592-.601c-.267-.145-.619-.217-1.057-.217h-1.653V122h-1.317Zm15.257-4.364c0 .932-.171 1.733-.512 2.404-.34.667-.808 1.182-1.402 1.542-.59.358-1.262.537-2.015.537-.756 0-1.431-.179-2.024-.537-.591-.36-1.057-.876-1.398-1.546-.341-.671-.511-1.471-.511-2.4 0-.931.17-1.731.511-2.399.341-.67.807-1.184 1.398-1.542.593-.361 1.268-.542 2.024-.542.753 0 1.425.181 2.015.542.594.358 1.062.872 1.402 1.542.341.668.512 1.468.512 2.399Zm-1.304 0c0-.71-.115-1.308-.345-1.794-.228-.488-.54-.858-.938-1.108a2.442 2.442 0 0 0-1.342-.379c-.503 0-.952.127-1.347.379-.395.25-.707.62-.937 1.108-.228.486-.341 1.084-.341 1.794 0 .711.113 1.31.341 1.799.23.485.542.855.937 1.108.395.25.844.375 1.347.375.5 0 .947-.125 1.342-.375.398-.253.71-.623.938-1.108.23-.489.345-1.088.345-1.799Zm10.526 0c0 .932-.17 1.733-.511 2.404-.341.667-.808 1.182-1.402 1.542-.591.358-1.263.537-2.016.537-.755 0-1.43-.179-2.024-.537-.591-.36-1.056-.876-1.397-1.546-.341-.671-.512-1.471-.512-2.4 0-.931.171-1.731.512-2.399.341-.67.806-1.184 1.397-1.542.594-.361 1.269-.542 2.024-.542.753 0 1.425.181 2.016.542.594.358 1.061.872 1.402 1.542.341.668.511 1.468.511 2.399Zm-1.304 0c0-.71-.115-1.308-.345-1.794-.227-.488-.539-.858-.937-1.108a2.445 2.445 0 0 0-1.343-.379 2.45 2.45 0 0 0-1.346.379c-.395.25-.707.62-.938 1.108-.227.486-.341 1.084-.341 1.794 0 .711.114 1.31.341 1.799.231.485.543.855.938 1.108.395.25.844.375 1.346.375.5 0 .948-.125 1.343-.375.398-.253.71-.623.937-1.108.23-.489.345-1.088.345-1.799Zm2.946 4.364v-8.727h3.111c.676 0 1.237.116 1.683.349.449.233.784.556 1.006.967.221.41.332.883.332 1.42 0 .534-.112 1.004-.336 1.41a2.273 2.273 0 0 1-1.006.942c-.446.224-1.007.336-1.683.336h-2.357v-1.133h2.237c.427 0 .773-.061 1.04-.183.27-.122.467-.3.592-.533.125-.233.188-.513.188-.839 0-.33-.064-.616-.192-.857a1.24 1.24 0 0 0-.592-.554c-.267-.131-.618-.196-1.053-.196h-1.653V122h-1.317Zm4.308-3.938 2.157 3.938h-1.5l-2.114-3.938h1.457Z" fill="#595966"/></svg>